/* XPM */
static char *result[] = {
/* columns rows colors chars-per-pixel */
"40 40 13 1 ",
"  c black",
". c #3B2607",
"X c #333218",
"o c #5E3D0C",
"O c #65410D",
"+ c #754B0E",
"@ c #654511",
"# c #525026",
"$ c #585629",
"% c #666330",
"& c #EB971D",
"* c #CCC761",
"= c None",
/* pixels */
"X%%%%%%%.++++++++++++++++++++++.%%%%%%%X",
"%*******+&&&&&&&&&&&&&&&&&&&&&&+*******%",
"%*******+&&&&&&&&&&&&&&&&&&&&&&+*******%",
"%*******+&&&&&&&&&&&&&&&&&&&&&&+*******%",
"%*******+&&&&&&&&&&&&&&&&&&&&&&+*******%",
"%*******+&&&&&&&&&&&&&&&&&&&&&&+*******%",
"#*******@&&&&&&&&&&&&&&&&&&&&&&@*******$",
"=$%%%%%# O++++++++++++++++++++o $%%%%%#=",
"========================================",
"========================================",
"========================================",
"========================================",
"========================================",
"========================================",
"========================================",
"========================================",
"========================================",
"========================================",
"========================================",
"========================================",
"========================================",
"========================================",
"========================================",
"========================================",
"========================================",
"========================================",
"========================================",
"========================================",
"========================================",
"========================================",
"========================================",
"========================================",
"========================================",
"========================================",
"========================================",
"========================================",
"========================================",
"========================================",
"========================================",
"========================================"
};
