/* XPM */
static char *result[] = {
/* columns rows colors chars-per-pixel */
"40 40 17 1 ",
"  c #222222",
". c #222322",
"X c #2B2828",
"o c #352E2E",
"O c #3E3534",
"+ c #413735",
"@ c #483B3A",
"# c #4C3F3B",
"$ c #544341",
"% c #564541",
"& c #5F4B47",
"* c #6B544E",
"= c #775C55",
"- c #97D93F",
"; c #97DA3F",
": c #417089",
"> c #49A790",
/* pixels */
"       o@@          @@@@@@@o  @@o       ",
"       o@@          @@@@@@@o  @@o       ",
"  XooooO@@oooooooooo@@@@@@@Ooo@@Ooooo+##",
"  o@@@@@@@@@@@@@@@@@@@@@@@@@@@@@@@@@@&==",
"  o@@@@@@@@@@@@@@@@@@@@@@@@@@@@@@@@@@&==",
"@@@@@@@@@@@@@@@@@@@@@@@@@@@@@@@@@@@@@&==",
"@@@@@@@@@@@@                @@@@@@@@@&==",
"@@@@@@@@@@@@                @@@@@@@@@&==",
"@@@@@@@@@@  ::;;;;;;;;;;;;;;  @@@@@@@&==",
"@@@@@@@@@@  ::;;;;;;;;;;;;;;  @@@@@@@&==",
"  o@@@@@@@  ::;;>>>>;;;;;;>>  @@@@@@@&==",
"  o@@@@@@@  ::;;>>>>;;;;;;>>  @@@@@@@&==",
"ooO@@@@@@@  ::;;    ;;;;;;    @@@@@@@&==",
"@@@@@@@@@@  ::;;    ;;;;;;    @@@@@@@&==",
"@@@@@@@@@@  ::;;    ;;;;;;    @@@@@@@&==",
"  o@@@@@@@  ::;;    ;;;;;;    @@@@@@@@@@",
"  o@@@@@@@  ::;;>>>>;;;;;;>>  @@@@@@@@@@",
"  o@@@@@@@  ::;;>>>>;;;;;;>>  @@@@@@@$&&",
"  o@@@@@    >>;;  ;;  ;;  ;;>>  @@@@@&==",
"  o@@@@@    >>;;  ;;  ;;  ;;>>  @@@@@&==",
"  o@@@        >>      ;;  >>      @@@@@@",
"  o@@@        >>      ;;  >>      @@@@@@",
"ooO@@@                >>          @@@$&&",
"@@@@@@                >>          @@@&==",
"@@@@      >>      >>                @&==",
"@@@@      >>      >>                @&==",
"@@@@  ::  >>  >>  ;;  >>  >>  >>    @&==",
"ooO@  ::  >>  >>  ;;  >>  >>  >> .  @$&&",
"  o@  ::::::::>>>>;;;;;;;;;;;;;;;;  @@@@",
"  o@  ::::::::>>>>;;;;;;;;;;;;;---  @@@@",
"  o@                                @@@@",
"  o@                                @@@@",
"  o@@@@@@@@@@@@@@@@@@@@@@@@@@@@@@@@@@$&&",
"  o@@@@@@@@@@@@@@@@@@@@@@@@@@@@@@@@@@&==",
"  o@@@@@@@@@@@@@@@@@@@@@@@@@@@@@@@@@@&==",
"  o@@@@@@@@@@@@@@@@@@@@@@@@@@@@@@@@@@&==",
"  o@@@@@@@@@@@@@@@@@@@@@@@@@@@@@@@@@@&==",
"##%&&&&$@@@@$&&@@$&&&&&&&&&$@@&&&&&&&*==",
"=======&@@@@&==@@&=========&@@==========",
"=======&@@@@&==@@&=========&@@=========="
};
