/* XPM */
static char *_cdb235dc42a4935996834399eb6a134dLm2tiTsH2zaePWq[] = {
/* columns rows colors chars-per-pixel */
"40 40 150 2 ",
"   c None",
".  c #020207",
"X  c #03050B",
"o  c #040711",
"O  c #040C15",
"+  c #060C1B",
"@  c #090C1D",
"#  c #05161D",
"$  c #0A0F23",
"%  c #0A1127",
"&  c #0D122C",
"*  c #081C2F",
"=  c #0D1532",
"-  c #071F35",
";  c #0C1935",
":  c #0E1C3B",
">  c #111536",
",  c #111A3E",
"<  c #092936",
"1  c #0B2139",
"2  c #0A2F3E",
"3  c #0E1E41",
"4  c #131C44",
"5  c #161F4C",
"6  c #0F2347",
"7  c #0F244A",
"8  c #102D44",
"9  c #12234C",
"0  c #0C3443",
"q  c #172150",
"w  c #122C55",
"e  c #1B265E",
"r  c #0C385F",
"t  c #0B365A",
"y  c #103853",
"u  c #13365D",
"i  c #152F61",
"p  c #1A2962",
"a  c #1D2D6A",
"s  c #0E3C69",
"d  c #0C3C66",
"f  c #133363",
"g  c #15376C",
"h  c #1C316E",
"j  c #123A6C",
"k  c #1E2F70",
"l  c #1E3372",
"z  c #1F3679",
"x  c #1E397D",
"c  c #243F6F",
"v  c #213176",
"b  c #203478",
"n  c #10445B",
"m  c #144B6B",
"M  c #12516B",
"N  c #144F70",
"B  c #13457D",
"V  c #145475",
"C  c #16577A",
"Z  c #384669",
"A  c #22427A",
"S  c #255078",
"D  c #414345",
"F  c #474B53",
"G  c #575F71",
"H  c #666D79",
"J  c #717477",
"K  c #1E3F85",
"L  c #203F86",
"P  c #243A89",
"I  c #28388B",
"U  c #263482",
"Y  c #293C92",
"T  c #164784",
"R  c #1C4285",
"E  c #1E448B",
"W  c #1B488C",
"Q  c #1E558C",
"!  c #1D4B94",
"~  c #1D5897",
"^  c #1C519A",
"/  c #1C5694",
"(  c #21418D",
")  c #295780",
"_  c #255889",
"`  c #3D5A86",
"'  c #234595",
"]  c #284196",
"[  c #274398",
"{  c #224B9B",
"}  c #265594",
"|  c #176687",
" . c #186488",
".. c #19688B",
"X. c #196E92",
"o. c #256091",
"O. c #366996",
"+. c #1F54A1",
"@. c #1E59A4",
"#. c #1E5CAC",
"$. c #2153A5",
"%. c #2057A8",
"&. c #2058A9",
"*. c #1765AB",
"=. c #1B63B2",
"-. c #1969B6",
";. c #176EBB",
":. c #186DBA",
">. c #1672BE",
",. c #396FA8",
"<. c #2C73BA",
"1. c #405E80",
"2. c #48638C",
"3. c #44638C",
"4. c #5E728F",
"5. c #537295",
"6. c #657D9B",
"7. c #1576C1",
"8. c #137BC6",
"9. c #7C8188",
"0. c #0F85CE",
"q. c #1282CB",
"w. c #0C8DD4",
"e. c #0A90D7",
"r. c #0A93DA",
"t. c #0799DE",
"y. c #0899DE",
"u. c #2B84C9",
"i. c #3582C5",
"p. c #218DD1",
"a. c #3596D4",
"s. c #069DE1",
"d. c #04A0E4",
"f. c #02A7EA",
"g. c #4B91C9",
"h. c #5D97C9",
"j. c #4C97D1",
"k. c #4B9ED6",
"l. c #5AA0D6",
"z. c #6BA9D9",
"x. c #71A6D4",
"c. c #828997",
"v. c #9DA3AA",
"b. c gray65",
"n. c #B3B4B5",
"m. c #C6C6C6",
"M. c gray83",
"N. c #ECECEC",
"B. c #E3E3E4",
"V. c gray95",
/* pixels */
"                                                                                ",
"                                                                                ",
"                                                                                ",
"                                                                                ",
"                                                                                ",
"                                                                                ",
"                                                                                ",
"                                                                                ",
"                                                                                ",
"                              X , 5 @                                           ",
"                              4 a v p $                                         ",
"                            o : w f j s d t 1 X                                 ",
"                          + f ^ =.-.;.>.u.l.l.g.) 8                             ",
"                        ; W @.#.=.:.7.8.q.p.a.l.z.h.S o                         ",
"                      : ' $.@.=.-.>.8.0.w.e.w.w.q.j.x.,.-                       ",
"                    % l ' $.#.=.;.7.q.w.y.s.y.r.q.8.i.<.T O                     ",
"                    9 x { $.#.=.;.7.0.w.t.f.d.r.0.q.;.-.#.j                     ",
"                    h x { $.#.=.:.7.q.w.y.s.s.r.0.8.>.-.#.+.+                   ",
"                  @ z x { { &.=.:.>.8.w.e.e.e.w.q.>.>.=.#.%.6                   ",
"                  4 b x ' $.%.=.-.;.7.8.0.0.q.0.8.>.-.=.&.%.6                   ",
"                % a b b ( { %.&.=.=.;.>.7.7.8.>.;.:.=.#.%.{ 3                   ",
"                q v b b b R A 2.6.5./ ;.>.*.} O._ ~ #.@.$.E 9                   ",
"                U I v a l l n.V.b.M.N.G / v.N.m.N.B.` $.E x h O                 ",
"                a I = ; % p Z G F H 4.} @.O.9.D J c.c K x K z :                 ",
"                $ 5   o     < n u f R ! ! ! W g w m 1 w P [ P e                 ",
"                              0 M |  .C V V V ..X.V r : [ [ Y v                 ",
"                                    # 2 0 y u f B *.j = a Y Y v                 ",
"                                          & l L W ! i ; v Y Y ,                 ",
"                                          . 5 5 p a 5 5 I Y 5                   ",
"                                            X   $ p > X & &                     ",
"                                                  .                             ",
"                                                                                ",
"                                                                                ",
"                                                                                ",
"                                                                                ",
"                                                                                ",
"                                                                                ",
"                                                                                ",
"                                                                                ",
"                                                                                "
};
