/* XPM */
static char *result[] = {
/* columns rows colors chars-per-pixel */
"40 40 143 2 ",
"   c #020306",
".  c #030309",
"X  c #020B10",
"o  c #070D1B",
"O  c #06101F",
"+  c #090E21",
"@  c #0B0F2A",
"#  c #0A1127",
"$  c #061B24",
"%  c #0C122C",
"&  c #061424",
"*  c #0E1533",
"=  c #0D1A36",
"-  c #0E1B3B",
";  c #101736",
":  c #10193A",
">  c #0B233B",
",  c #0E1E41",
"<  c #141C44",
"1  c #161F4D",
"2  c #0F2D49",
"3  c #13224C",
"4  c #0C3142",
"5  c #182253",
"6  c #102850",
"7  c #1B265C",
"8  c #0A3457",
"9  c #113255",
"0  c #103853",
"q  c #12355B",
"w  c #3D3E41",
"e  c #313E5C",
"r  c #1D2762",
"t  c #172D60",
"y  c #1A2D65",
"u  c #1C2E6A",
"i  c #0F3E6C",
"p  c #0C3C64",
"a  c #133363",
"s  c #103B67",
"d  c #14376B",
"f  c #123B6D",
"g  c #1D3473",
"h  c #1F377A",
"j  c #1E3A7D",
"k  c #202B6C",
"l  c #212D72",
"z  c #213175",
"x  c #203478",
"c  c #11435F",
"v  c #124D68",
"b  c #144F71",
"n  c #145574",
"m  c #16597C",
"M  c #274A6F",
"N  c #2B4577",
"B  c #20427A",
"V  c #16607F",
"C  c #464A53",
"Z  c #656B76",
"A  c #787B7E",
"S  c #1F3F87",
"D  c #253B8B",
"F  c #29398C",
"G  c #263583",
"H  c #293C92",
"J  c #174683",
"K  c #1D4185",
"L  c #1D458A",
"P  c #124A82",
"I  c #1E558A",
"U  c #1E4B94",
"Y  c #1D5390",
"T  c #1C559F",
"R  c #1C599A",
"E  c #20438D",
"W  c #255B8D",
"Q  c #2D5C84",
"!  c #3E5881",
"~  c #244594",
"^  c #284297",
"/  c #214996",
"(  c #214C9C",
")  c #275593",
"_  c #176183",
"`  c #196E92",
"'  c #346793",
"]  c #1E5CAC",
"[  c #1D59A3",
"{  c #214FA1",
"}  c #2153A5",
"|  c #2056A8",
" . c #1767AB",
".. c #1B62AF",
"X. c #1B64B3",
"o. c #1768B1",
"O. c #1969B7",
"+. c #176FBC",
"@. c #186EBA",
"#. c #1671BD",
"$. c #386AA5",
"%. c #2D70B9",
"&. c #425E84",
"*. c #4A698C",
"=. c #5A6E8C",
"-. c #537699",
";. c #677080",
":. c #667F9D",
">. c #1576C1",
",. c #137AC4",
"<. c #127EC9",
"1. c #7C828C",
"2. c #0F86CE",
"3. c #1181CB",
"4. c #1C81C9",
"5. c #0C8CD3",
"6. c #0B90D7",
"7. c #0A93D9",
"8. c #069ADF",
"9. c #0898DD",
"0. c #2783C9",
"q. c #3880C2",
"w. c #208CD1",
"e. c #3896D3",
"r. c #069DE1",
"t. c #05A1E5",
"y. c #03A7EA",
"u. c #4C92CB",
"i. c #5E97CA",
"p. c #4E9DD5",
"a. c #599FD4",
"s. c #5BA2D6",
"d. c #6BA7D7",
"f. c #71A2D3",
"g. c #969BA1",
"h. c gray65",
"j. c #B8B8B9",
"k. c #C6C6C6",
"l. c #D2D2D2",
"z. c #DFDFE0",
"x. c #EDEDED",
"c. c #E2E3E3",
"v. c None",
/* pixels */
"v.v.v.v.v.v.v.v.v.v.v.v.v.v.v.v.v.v.v.v.v.v.v.v.v.v.v.v.v.v.v.v.v.v.v.v.v.v.v.v.",
"v.v.v.v.v.v.v.v.v.v.v.v.v.v.v.v.v.v.v.v.v.v.v.v.v.v.v.v.v.v.v.v.v.v.v.v.v.v.v.v.",
"v.v.v.v.v.v.v.v.v.v.v.v.v.v.v.v.v.v.v.v.v.v.v.v.v.v.v.v.v.v.v.v.v.v.v.v.v.v.v.v.",
"v.v.v.v.v.v.v.v.v.v.v.v.v.v.v.v.v.v.v.v.v.v.v.v.v.v.v.v.v.v.v.v.v.v.v.v.v.v.v.v.",
"v.v.v.v.v.v.v.v.v.v.v.v.v.v.v.v.v.v.v.v.v.v.v.v.v.v.v.v.v.v.v.v.v.v.v.v.v.v.v.v.",
"v.v.v.v.v.v.v.v.v.v.v.v.v.v.v.v.v.v.v.v.v.v.v.v.v.v.v.v.v.v.v.v.v.v.v.v.v.v.v.v.",
"v.v.v.v.v.v.v.v.v.v.v.v.v.v.v.v.v.v.v.v.v.v.v.v.v.v.v.v.v.v.v.v.v.v.v.v.v.v.v.v.",
"v.v.v.v.v.v.v.v.v.v.v.v.v.v.v.v.v.v.v.v.v.v.v.v.v.v.v.v.v.v.v.v.v.v.v.v.v.v.v.v.",
"v.v.v.v.v.v.v.v.v.v.v.v.v.v.v.v.v.v.v.v.v.v.v.v.v.v.v.v.v.v.v.v.v.v.v.v.v.v.v.v.",
"v.v.v.v.v.v.v.v.v.v.v.v.v.v.v.v.v.v.v.v.v.+ < < . v.v.v.v.v.v.v.v.v.v.v.v.v.v.v.",
"v.v.v.v.v.v.v.v.v.v.v.v.v.v.v.v.v.v.v.v.+ r u g : v.v.v.v.v.v.v.v.v.v.v.v.v.v.v.",
"v.v.v.v.v.v.v.v.v.v.v.v.v.v.v.v.X > 8 p i f a 6 - O v.v.v.v.v.v.v.v.v.v.v.v.v.v.",
"v.v.v.v.v.v.v.v.v.v.v.v.v.v.2 Q u.a.s.0.#.#.O.X.T a O v.v.v.v.v.v.v.v.v.v.v.v.v.",
"v.v.v.v.v.v.v.v.v.v.v.v.v.M i.d.p.e.w.3.<.>.#.O.X.] L - v.v.v.v.v.v.v.v.v.v.v.v.",
"v.v.v.v.v.v.v.v.v.v.v.& $.f.u.4.2.5.7.5.2.2.>.@.X.] } ~ = v.v.v.v.v.v.v.v.v.v.v.",
"v.v.v.v.v.v.v.v.v.v.v.J %.q.,.<.5.9.r.r.6.2.,.#.O.] ] / g # v.v.v.v.v.v.v.v.v.v.",
"v.v.v.v.v.v.v.v.v.v.f | X.@.,.3.5.r.y.t.7.5.,.#.O.] | / S 3 v.v.v.v.v.v.v.v.v.v.",
"v.v.v.v.v.v.v.v.v.o | | X.O.,.<.5.r.t.r.6.2.,.#.O...| ( j u v.v.v.v.v.v.v.v.v.v.",
"v.v.v.v.v.v.v.v.v.3 | | X.O.>.,.2.5.6.6.5.<.>.+.X.] | ( j h + v.v.v.v.v.v.v.v.v.",
"v.v.v.v.v.v.v.v.v.3 { | ..X.@.>.<.3.5.3.3.,.#.O...| } / j h < v.v.v.v.v.v.v.v.v.",
"v.v.v.v.v.v.v.v.v., ( } | X.O.@.>.,.,.,.>.#.O.X.] | ( S j x z # v.v.v.v.v.v.v.v.",
"v.v.v.v.v.v.v.v.v.3 E } | | ) W ' W  .#.o.W -.:.*.B K S g h z 5 v.v.v.v.v.v.v.v.",
"v.v.v.v.v.v.v.v.+ u h K } &.z.x.k.x.g.R *.z.l.h.c.j.g g y h F G v.v.v.v.v.v.v.v.",
"v.v.v.v.v.v.v.v.= x x j E N ;.A w 1.&.[ ) =.Z C ;.e t # % * F k v.v.v.v.v.v.v.v.",
"v.v.v.v.v.v.v.v.r F ^ E 3 > v q d L ( Y U K a 9 v $ v.v.o v.1 % v.v.v.v.v.v.v.v.",
"v.v.v.v.v.v.v.v.z H H ^ ; s v ` ` m b n n _ _ n 4 v.v.v.v.v.v.v.v.v.v.v.v.v.v.v.",
"v.v.v.v.v.v.v.v.l H H k : s ..b q q 0 4 > $ v.v.v.v.v.v.v.v.v.v.v.v.v.v.v.v.v.v.",
"v.v.v.v.v.v.v.v.< H H l % y U L E g ; v.v.v.v.v.v.v.v.v.v.v.v.v.v.v.v.v.v.v.v.v.",
"v.v.v.v.v.v.v.v.v.5 F F 1 1 y y 1 3 . v.v.v.v.v.v.v.v.v.v.v.v.v.v.v.v.v.v.v.v.v.",
"v.v.v.v.v.v.v.v.v.v.* @ . % 7 % v.  v.v.v.v.v.v.v.v.v.v.v.v.v.v.v.v.v.v.v.v.v.v.",
"v.v.v.v.v.v.v.v.v.v.v.v.v.v.  v.v.v.v.v.v.v.v.v.v.v.v.v.v.v.v.v.v.v.v.v.v.v.v.v.",
"v.v.v.v.v.v.v.v.v.v.v.v.v.v.v.v.v.v.v.v.v.v.v.v.v.v.v.v.v.v.v.v.v.v.v.v.v.v.v.v.",
"v.v.v.v.v.v.v.v.v.v.v.v.v.v.v.v.v.v.v.v.v.v.v.v.v.v.v.v.v.v.v.v.v.v.v.v.v.v.v.v.",
"v.v.v.v.v.v.v.v.v.v.v.v.v.v.v.v.v.v.v.v.v.v.v.v.v.v.v.v.v.v.v.v.v.v.v.v.v.v.v.v.",
"v.v.v.v.v.v.v.v.v.v.v.v.v.v.v.v.v.v.v.v.v.v.v.v.v.v.v.v.v.v.v.v.v.v.v.v.v.v.v.v.",
"v.v.v.v.v.v.v.v.v.v.v.v.v.v.v.v.v.v.v.v.v.v.v.v.v.v.v.v.v.v.v.v.v.v.v.v.v.v.v.v.",
"v.v.v.v.v.v.v.v.v.v.v.v.v.v.v.v.v.v.v.v.v.v.v.v.v.v.v.v.v.v.v.v.v.v.v.v.v.v.v.v.",
"v.v.v.v.v.v.v.v.v.v.v.v.v.v.v.v.v.v.v.v.v.v.v.v.v.v.v.v.v.v.v.v.v.v.v.v.v.v.v.v.",
"v.v.v.v.v.v.v.v.v.v.v.v.v.v.v.v.v.v.v.v.v.v.v.v.v.v.v.v.v.v.v.v.v.v.v.v.v.v.v.v.",
"v.v.v.v.v.v.v.v.v.v.v.v.v.v.v.v.v.v.v.v.v.v.v.v.v.v.v.v.v.v.v.v.v.v.v.v.v.v.v.v."
};
