/* XPM */
static char *result[] = {
/* columns rows colors chars-per-pixel */
"40 40 155 2 ",
"   c #090C1C",
".  c #12141C",
"X  c #0C142F",
"o  c #0D1531",
"O  c #0A1D34",
"+  c #151B39",
"@  c #18252D",
"#  c #1D2338",
"$  c #212427",
"%  c #262C3B",
"&  c #2E3235",
"*  c #2B373E",
"=  c #2C383F",
"-  c #333737",
";  c #54542D",
":  c #434632",
">  c #4B4D34",
",  c #4F5133",
"<  c #4A5638",
"1  c #5B5D35",
"2  c #55593C",
"3  c #656535",
"4  c #6E6F39",
"5  c #6F713C",
"6  c #74753B",
"7  c #7D7D3E",
"8  c #131C43",
"9  c #151E4A",
"0  c #142143",
"q  c #16214C",
"w  c #0E374F",
"e  c #152552",
"r  c #1A2354",
"t  c #162B57",
"y  c #1A255A",
"u  c #122D5A",
"i  c #192C5B",
"p  c #193459",
"a  c #123C5C",
"s  c #2D3C48",
"d  c #1C2761",
"f  c #1E2B67",
"g  c #153766",
"h  c #1B326C",
"j  c #163A6B",
"k  c #1D3473",
"l  c #173A74",
"z  c #1F367A",
"x  c #1D3A7D",
"c  c #212C6A",
"v  c #212F74",
"b  c #21347A",
"n  c #20387F",
"m  c #0F4156",
"M  c #3D524B",
"N  c #2A4557",
"B  c #334B54",
"V  c #114761",
"C  c #124768",
"Z  c #144571",
"A  c #114B7D",
"S  c #184F78",
"D  c #155875",
"F  c #2E406C",
"G  c #3B4A62",
"H  c #2A5263",
"J  c #294F71",
"K  c #474D58",
"L  c #616C47",
"P  c #777943",
"I  c #414F66",
"U  c #4E5665",
"Y  c #5D667A",
"T  c #878946",
"R  c #8F8F45",
"E  c #8F9047",
"W  c #95964A",
"Q  c #9B9C4C",
"!  c #9FA050",
"~  c #A2A24F",
"^  c #A5A652",
"/  c #AAAB54",
"(  c #AFB157",
")  c #B1B257",
"_  c #B4B559",
"`  c #BBBC5C",
"'  c #C1C25E",
"]  c #C6C761",
"[  c #C7C862",
"{  c #CACB63",
"}  c #1F3E84",
"|  c #283686",
" . c #243884",
".. c #243C89",
"X. c #2A3D93",
"o. c #1C4282",
"O. c #1D458B",
"+. c #1F4690",
"@. c #1E4F9A",
"#. c #1B559E",
"$. c #195E9F",
"%. c #21438D",
"&. c #29518A",
"*. c #375481",
"=. c #385F86",
"-. c #214591",
";. c #284095",
":. c #214896",
">. c #224B9B",
",. c #235393",
"<. c #176384",
"1. c #18678A",
"2. c #196E91",
"3. c #1E5CAC",
"4. c #2153A5",
"5. c #2056A8",
"6. c #2058A9",
"7. c #1B64B3",
"8. c #1969B7",
"9. c #176FBC",
"0. c #186CB9",
"q. c #1672BD",
"w. c #1E70BB",
"e. c #4E6689",
"r. c #5B6E8D",
"t. c #597D9E",
"y. c #656F82",
"u. c #637C99",
"i. c #4B79A8",
"p. c #1576C1",
"a. c #137AC5",
"s. c #127FC9",
"d. c #7C828C",
"f. c #6A819D",
"g. c #768EA4",
"h. c #0F85CE",
"j. c #1082CB",
"k. c #0C8CD4",
"l. c #158AD0",
"z. c #0A93DA",
"x. c #0898DD",
"c. c #238FD1",
"v. c #3391D1",
"b. c #069DE1",
"n. c #04A4E8",
"m. c #599FD4",
"M. c #6199CF",
"N. c #5EA6D8",
"B. c #6AA7D7",
"V. c gray63",
"C. c #ACACAC",
"Z. c #B2B2B2",
"A. c #EDEDED",
"S. c #F6F6F6",
"D. c #F9F9F9",
/* pixels */
"{ { { { { { { { { { { { { { { { { { { { { { { { { { { { { { { { { { { { { { { { ",
"{ { { { { { { { { { { { { { { { { { { { { { { { { { { { { { { { { { { { { { { { ",
"{ { { { { { { { { { { { { { { { { { { { { { { { { { { { { { { { { { { { { { { { ",
"{ { { { { { { { { { { { { { { { { { { { { { { { { { { { { { { { { { { { { { { { ",
"{ { { { { { { { { { { { { { { { { { { { { { { { { { { { { { { { { { { { { { { { ",
"{ { { { { { { { { { { { { { { { { { { { { { { { { { { { { { { { { { { { { { { { ",
"{ { { { { { { { { { { { { { { { { { { { { { { { { { { { { { { { { { { { { { { { ",
"{ { { { { { { { { { { { { { { { { { { { { { { { { { { { { { { { { { { { { { { { ",
"{ { { { { { { { { { { { { { { { { { { { { { { { { { { { { { { { { { { { { { { { ",
"{ { { { { { { { { { { { { { { { { { { { { { { { { { { { { { { { { { { { { { { { ",
"{ { { { { { { { { { { { { { { { [ ( ! W W ! _ [ { { { { { { { { { { { { { { { { ",
"{ { { { { { { { { { { { { { / 6 M H Z A o.S H M 6 _ { { { { { { { { { { { { { { ",
"{ { { { { { { { { { { { ) 2 g #.7.8.q.q.v.N.B.B.M.J L ( { { { { { { { { { { { { ",
"{ { { { { { { { { { { ( * O.3.3.8.q.a.j.h.l.c.v.m.B.i.B / { { { { { { { { { { { ",
"{ { { { { { { { { { / = +.4.3.7.0.q.j.k.z.z.k.k.a.a.M.i.p W { { { { { { { { { { ",
"{ { { { { { { { { { 2 h :.4.3.7.q.a.h.k.b.b.b.k.h.p.w.8.,.N ' { { { { { { { { { ",
"{ { { { { { { { [ ] 0 x >.5.3.7.q.a.h.z.b.n.b.z.j.a.0.7.3.@.1 _ { { { { { { { { ",
"{ { { { { { { { [ E i x >.5.3.7.q.q.h.k.x.b.x.k.j.p.0.7.3.4.s Q ) { { { { { { { ",
"{ { { { { { { ' ^ ; k x ;.4.3.7.0.q.s.h.k.k.k.j.a.p.8.7.5.4.i T ~ ` { { { { { { ",
"{ { { { { { [ / W & b b -.4.6.3.7.9.q.a.j.j.j.a.p.0.7.3.5.4.p P ~ ) { { { { { { ",
"{ { { { { { ` ~ 1 r b b } >.4.3.7.8.0.q.q.p.p.9.0.7.3.3.4.:.t 4 ~ ) { { { { { { ",
"{ { { { { { ) ~ % v b z z %.Z *.u.f.=.$.0.2.t.g.g.u.,.5.>.%.h : ~ ' { { { { { { ",
"{ { { { { { _ R y | b k h x d.D.C.Z.S.d.3.u.A.V.C.A.y.-.o.x b q W ' { { { { { { ",
"{ { { { { { ' ! r X.9 9 o r F Y K U r.&.3.@.e.G B I t x n ....c 7 { { { { { { { ",
"{ { { { { { { [ , f .   9 e O m a g k Z o.o.l u g <.w O x k X. .7 { { { { { { { ",
"{ { { { { { { { ` P 3 1 # f h j V D 2.1.1.1.2.2.1.C j t 8 o X.y ^ { { { { { { { ",
"{ { { { { { { { { { ` / ; 9 y ..X.b 8 X < @ r r k %.h f d $ 2 T { { { { { { { { ",
"{ { { { { { { { { { { [ ^ 2 ; - | c > 4 ~ , 9 + t c % - & P { [ { { { { { { { { ",
"{ { { { { { { { { { { { { { ' _ 3 4 / / ) _ Q ` 5 : / { { { { { { { { { { { { { ",
"{ { { { { { { { { { { { { { { { { { { { { { { { { { { { { { { { { { { { { { { { ",
"{ { { { { { { { { { { { { { { { { { { { { { { { { { { { { { { { { { { { { { { { ",
"{ { { { { { { { { { { { { { { { { { { { { { { { { { { { { { { { { { { { { { { { ",
"{ { { { { { { { { { { { { { { { { { { { { { { { { { { { { { { { { { { { { { { { ",
"{ { { { { { { { { { { { { { { { { { { { { { { { { { { { { { { { { { { { { { { { ",
"{ { { { { { { { { { { { { { { { { { { { { { { { { { { { { { { { { { { { { { { { ",
"{ { { { { { { { { { { { { { { { { { { { { { { { { { { { { { { { { { { { { { { { ",
"{ { { { { { { { { { { { { { { { { { { { { { { { { { { { { { { { { { { { { { { { ",
"{ { { { { { { { { { { { { { { { { { { { { { { { { { { { { { { { { { { { { { { { ",
"{ { { { { { { { { { { { { { { { { { { { { { { { { { { { { { { { { { { { { { { { ",
"{ { { { { { { { { { { { { { { { { { { { { { { { { { { { { { { { { { { { { { { { "
};
