/* XPM */
static char *result[] = {
/* columns rows colors chars-per-pixel */
"40 40 24 1 ",
"  c black",
". c #020202",
"X c #040404",
"o c #090909",
"O c gray4",
"+ c #0C0C0C",
"@ c gray5",
"# c gray6",
"$ c #111111",
"% c #131313",
"& c #151515",
"* c #161616",
"= c gray9",
"- c #191919",
"; c #1D1D1D",
": c #1E1E1E",
"> c #202020",
", c #222222",
"< c #441812",
"1 c #6D271C",
"2 c #7A2B20",
"3 c #883123",
"4 c #BE4431",
"5 c #DA4E38",
/* pixels */
",,,,,,,,,,,,,,,,,,,,,,,,,,,,,,,,,,,,,,,,",
",,,,,,,,,,,,,,,,,,,,,,,,,,,,,,,,,,,,,,,,",
",,,,,,,,,,,,,,,,,,,,,,,,,,,,,,,,,,,,,,,,",
",,,,,,,,,,,,,,,,,,,,,,,,,,,,,,,,,,,,,,,,",
",,,,,,,,,,,,,,,,,,,,,,,,,,,,,,,,,,,,,,,,",
",,,,,,,,,,,,,,,,,,,,,,,,,,,,,,,,,,,,,,,,",
",,,,,,,,,,,,,,,,,,,,,,,,,,,,,,,,,,,,,,,,",
",,,,,,,,,,,,,,,,,,,,,,,,,,,,,,,,,,,,,,,,",
",,,,,,,,,,>-----,,,,,,,,-----;,,,,,,,,,,",
",,,,,,,,,,*     ,,,,,,,,     &,,,,,,,,,,",
",,,,,,,,,,*     ,,,,,,,,     &,,,,,,,,,,",
",,,,,,,,$$O     $$=,,=$$     O$$,,,,,,,,",
",,,,,,,,          +,,@          ,,,,,,,,",
",,,,,,,,          +,,@          ,,,,,,,,",
",,,,,#XX442       .XX.          XX#,,,,,",
",,,,,@  553                       +,,,,,",
",,,,,@  553                       +,,,,,",
",,,,,@  553                       +,,,,,",
",,,,,@  553                       +,,,,,",
",,,,,=$$11<                     $$=,,,,,",
",,,,,,,,                        ,,,,,,,,",
",,,,,,,,                        ,,,,,,,,",
",,,,,,,,::%                  %::,,,,,,,,",
",,,,,,,,,,*                  &,,,,,,,,,,",
",,,,,,,,,,=ooX            .oo-,,,,,,,,,,",
",,,,,,,,,,,,,@            +,,,,,,,,,,,,,",
",,,,,,,,,,,,,@            +,,,,,,,,,,,,,",
",,,,,,,,,,,,,=$$        $$=,,,,,,,,,,,,,",
",,,,,,,,,,,,,,,,        ,,,,,,,,,,,,,,,,",
",,,,,,,,,,,,,,,,        ,,,,,,,,,,,,,,,,",
",,,,,,,,,,,,,,,,::%  %::,,,,,,,,,,,,,,,,",
",,,,,,,,,,,,,,,,,,*  &,,,,,,,,,,,,,,,,,,",
",,,,,,,,,,,,,,,,,,=oo-,,,,,,,,,,,,,,,,,,",
",,,,,,,,,,,,,,,,,,,,,,,,,,,,,,,,,,,,,,,,",
",,,,,,,,,,,,,,,,,,,,,,,,,,,,,,,,,,,,,,,,",
",,,,,,,,,,,,,,,,,,,,,,,,,,,,,,,,,,,,,,,,",
",,,,,,,,,,,,,,,,,,,,,,,,,,,,,,,,,,,,,,,,",
",,,,,,,,,,,,,,,,,,,,,,,,,,,,,,,,,,,,,,,,",
",,,,,,,,,,,,,,,,,,,,,,,,,,,,,,,,,,,,,,,,",
",,,,,,,,,,,,,,,,,,,,,,,,,,,,,,,,,,,,,,,,"
};
