/* XPM */
static char *result[] = {
/* columns rows colors chars-per-pixel */
"40 40 34 1 ",
"  c black",
". c #040404",
"X c #090909",
"o c #0C0C0C",
"O c gray5",
"+ c gray6",
"@ c #1B0A07",
"# c #111111",
"$ c #151515",
"% c #161616",
"& c gray9",
"* c #191919",
"= c #1D1D1D",
"- c #1E1E1E",
"; c #37130E",
": c #201817",
"> c #211917",
", c #341915",
"< c #202020",
"1 c #222222",
"2 c #521D15",
"3 c #62241A",
"4 c #6D271C",
"5 c #712B20",
"6 c #7D2E21",
"7 c #883123",
"8 c #953527",
"9 c #953627",
"0 c #963626",
"q c #963627",
"w c #A33A2A",
"e c #BE4431",
"r c #CC4934",
"t c #DA4E38",
/* pixels */
"1111111111111111111111111111111111111111",
"1111111111111111111111111111111111111111",
"1111111111111111111111111111111111111111",
"1111111111111111111111111111111111111111",
"1111111111111111111111111111111111111111",
"1111111111111111111111111111111111111111",
"1111111111111111111111111111111111111111",
"1111111111111111111111111111111111111111",
"1111111111<*****11111111*****=1111111111",
"1111111111%     11111111     $1111111111",
"1111111111%     11111111     $1111111111",
"11111111##,44444##&11&##44444,##11111111",
"11111111  2ttttt  o11O  ttttt2  11111111",
"11111111  2ttttt  o11O  ttttt2  11111111",
"11111+..eertttttee6..6eetttttree..+11111",
"11111O  tttttttttt7  7tttttttttt  o11111",
"11111O  tttttttttt8;;wtttttttttt  o11111",
"11111O  tttttttttttttttttttttttt  o11111",
"11111O  tttttttttttttttttttttttt  o11111",
"11111&##440tttttttttttttttttt844##&11111",
"11111111  2tttttttttttttttttt2  11111111",
"11111111  2tttttttttttttttttt2  11111111",
"11111111-->@@qtttttttttttt9@@:--11111111",
"1111111111%  7tttttttttttt7  $1111111111",
"1111111111&XX5wwttttttttww3XX*1111111111",
"1111111111111O  tttttttt  o1111111111111",
"1111111111111O  tttttttt  o1111111111111",
"1111111111111&##440tt844##&1111111111111",
"1111111111111111  2tt2  1111111111111111",
"1111111111111111  2tt2  1111111111111111",
"1111111111111111-->@@:--1111111111111111",
"111111111111111111%  $111111111111111111",
"111111111111111111&XX*111111111111111111",
"1111111111111111111111111111111111111111",
"1111111111111111111111111111111111111111",
"1111111111111111111111111111111111111111",
"1111111111111111111111111111111111111111",
"1111111111111111111111111111111111111111",
"1111111111111111111111111111111111111111",
"1111111111111111111111111111111111111111"
};
