/* XPM */
static char *result[] = {
/* columns rows colors chars-per-pixel */
"40 40 35 1 ",
"  c black",
". c #020202",
"X c #040404",
"o c #090909",
"O c gray4",
"+ c #0C0C0C",
"@ c gray5",
"# c gray6",
"$ c #1B0A07",
"% c #111111",
"& c #131313",
"* c #151515",
"= c #161616",
"- c gray9",
"; c #191919",
": c #1D1D1D",
"> c #1E1E1E",
", c #37130E",
"< c #201817",
"1 c #211917",
"2 c #341915",
"3 c #202020",
"4 c #222222",
"5 c #521D15",
"6 c #6D271C",
"7 c #712B20",
"8 c #7D2E21",
"9 c #883123",
"0 c #953527",
"q c #963626",
"w c #963627",
"e c #A33A2A",
"r c #BE4431",
"t c #CC4934",
"y c #DA4E38",
/* pixels */
"4444444444444444444444444444444444444444",
"4444444444444444444444444444444444444444",
"4444444444444444444444444444444444444444",
"4444444444444444444444444444444444444444",
"4444444444444444444444444444444444444444",
"4444444444444444444444444444444444444444",
"4444444444444444444444444444444444444444",
"4444444444444444444444444444444444444444",
"44444444443;;;;;44444444;;;;;:4444444444",
"4444444444=     44444444     *4444444444",
"4444444444=     44444444     *4444444444",
"44444444%%266666%%-44-%%     O%%44444444",
"44444444  5yyyyy  +44@          44444444",
"44444444  5yyyyy  +44@          44444444",
"44444#XXrrtyyyyyrr8XX.          XX#44444",
"44444@  yyyyyyyyyy9               +44444",
"44444@  yyyyyyyyyy0,,$            +44444",
"44444@  yyyyyyyyyyyyy5            +44444",
"44444@  yyyyyyyyyyyyy5            +44444",
"44444-%%66qyyyyyyyyyy5          %%-44444",
"44444444  5yyyyyyyyyy5          44444444",
"44444444  5yyyyyyyyyy5          44444444",
"44444444>>1$$wyyyyyyy5       &>>44444444",
"4444444444=  9yyyyyyy5       *4444444444",
"4444444444-oo7eeyyyyy5    .oo;4444444444",
"4444444444444@  yyyyy5    +4444444444444",
"4444444444444@  yyyyy5    +4444444444444",
"4444444444444-%%66qyy5  %%-4444444444444",
"4444444444444444  5yy5  4444444444444444",
"4444444444444444  5yy5  4444444444444444",
"4444444444444444>>1$$<>>4444444444444444",
"444444444444444444=  *444444444444444444",
"444444444444444444-oo;444444444444444444",
"4444444444444444444444444444444444444444",
"4444444444444444444444444444444444444444",
"4444444444444444444444444444444444444444",
"4444444444444444444444444444444444444444",
"4444444444444444444444444444444444444444",
"4444444444444444444444444444444444444444",
"4444444444444444444444444444444444444444"
};
