/* XPM */
static char *result[] = {
/* columns rows colors chars-per-pixel */
"40 40 31 1 ",
"  c black",
". c #020202",
"X c #040404",
"o c #090909",
"O c gray4",
"+ c #0C0C0C",
"@ c gray5",
"# c gray6",
"$ c #1B0A07",
"% c #111111",
"& c #131313",
"* c #151515",
"= c #161616",
"- c gray9",
"; c #191919",
": c #1D1D1D",
"> c #1E1E1E",
", c #211917",
"< c #341915",
"1 c #202020",
"2 c #222222",
"3 c #521D15",
"4 c #6D271C",
"5 c #712B20",
"6 c #883123",
"7 c #963626",
"8 c #963627",
"9 c #A33A2A",
"0 c #BE4431",
"q c #CC4934",
"w c #DA4E38",
/* pixels */
"2222222222222222222222222222222222222222",
"2222222222222222222222222222222222222222",
"2222222222222222222222222222222222222222",
"2222222222222222222222222222222222222222",
"2222222222222222222222222222222222222222",
"2222222222222222222222222222222222222222",
"2222222222222222222222222222222222222222",
"2222222222222222222222222222222222222222",
"22222222221;;;;;22222222;;;;;:2222222222",
"2222222222=     22222222     *2222222222",
"2222222222=     22222222     *2222222222",
"22222222%%<44444%%-22-%%     O%%22222222",
"22222222  3wwwww  +22@          22222222",
"22222222  3wwwww  +22@          22222222",
"22222#XX00qwwwww  .XX.          XX#22222",
"22222@  wwwwwwww                  +22222",
"22222@  wwwwwwww                  +22222",
"22222@  wwwwwwww                  +22222",
"22222@  wwwwwwww                  +22222",
"22222-%%447wwwww                %%-22222",
"22222222  3wwwww                22222222",
"22222222  3wwwww                22222222",
"22222222>>,$$8ww             &>>22222222",
"2222222222=  6ww             *2222222222",
"2222222222-oo599          .oo;2222222222",
"2222222222222@            +2222222222222",
"2222222222222@            +2222222222222",
"2222222222222-%%        %%-2222222222222",
"2222222222222222        2222222222222222",
"2222222222222222        2222222222222222",
"2222222222222222>>&  &>>2222222222222222",
"222222222222222222=  *222222222222222222",
"222222222222222222-oo;222222222222222222",
"2222222222222222222222222222222222222222",
"2222222222222222222222222222222222222222",
"2222222222222222222222222222222222222222",
"2222222222222222222222222222222222222222",
"2222222222222222222222222222222222222222",
"2222222222222222222222222222222222222222",
"2222222222222222222222222222222222222222"
};
