/* XPM */
static char *result[] = {
/* columns rows colors chars-per-pixel */
"40 40 175 2 ",
"   c #222222",
".  c #2B2828",
"X  c #352E2E",
"o  c #3E3534",
"O  c #413735",
"+  c #473B3B",
"@  c #463B3C",
"#  c #463B3D",
"$  c #483B3A",
"%  c #4C3F3B",
"&  c #593E35",
"*  c #544F37",
"=  c #67443D",
"-  c #6D4338",
";  c #794A34",
":  c #7F533E",
">  c #4B613C",
",  c #3F3A48",
"<  c #3F3A49",
"1  c #3D3A4B",
"2  c #3C3A4D",
"3  c #3A3A50",
"4  c #3B3B52",
"5  c #3E3C50",
"6  c #3F3D50",
"7  c #423A42",
"8  c #443A40",
"9  c #443B40",
"0  c #473E43",
"q  c #403A47",
"w  c #473F45",
"e  c #473F47",
"r  c #365E54",
"t  c #36605C",
"y  c #434648",
"u  c #44454E",
"i  c #44454F",
"p  c #4C434A",
"a  c #544341",
"s  c #564541",
"d  c #534246",
"f  c #5F4B47",
"g  c #4B5A42",
"h  c #545746",
"j  c #595A4A",
"k  c #464250",
"l  c #464253",
"z  c #404057",
"x  c #464355",
"c  c #4A4755",
"v  c #464559",
"b  c #46465E",
"n  c #4A4A5B",
"m  c #4E4F5E",
"M  c #574F51",
"N  c #504957",
"B  c #534C59",
"V  c #584E59",
"C  c #4F525B",
"Z  c #535555",
"A  c #5D5257",
"S  c #5C535E",
"D  c #6B544E",
"F  c #785643",
"G  c #70524F",
"H  c #614D56",
"J  c #665150",
"K  c #655454",
"L  c #60525B",
"P  c #62525D",
"I  c #725D54",
"U  c #775C55",
"Y  c #5C614C",
"T  c #6E7352",
"R  c #6D7656",
"E  c #727856",
"W  c #767C5A",
"Q  c #4A4C60",
"!  c #4C5068",
"~  c #4F576E",
"^  c #505260",
"/  c #515361",
"(  c #545160",
")  c #535662",
"_  c #595261",
"`  c #5D5D63",
"'  c #5D5865",
"]  c #53576D",
"[  c #51586E",
"{  c #545B6C",
"}  c #555D6F",
"|  c #5F5D69",
" . c #525B72",
".. c #545E75",
"X. c #545E76",
"o. c #555F76",
"O. c #605E6B",
"+. c #556076",
"@. c #556077",
"#. c #566178",
"$. c #566279",
"%. c #56627A",
"&. c #57647B",
"*. c #58657D",
"=. c #67616B",
"-. c #64606E",
";. c #67646C",
":. c #6A686E",
">. c #736660",
",. c #7D6764",
"<. c #696571",
"1. c #696775",
"2. c #6D6D72",
"3. c #6A687E",
"4. c #747078",
"5. c #86753C",
"6. c #806051",
"7. c #B46845",
"8. c #A57152",
"9. c #897262",
"0. c #8C7169",
"q. c #93766B",
"w. c #837875",
"e. c #927F74",
"r. c #718943",
"t. c #6B9858",
"y. c #AD875A",
"u. c #8F847A",
"i. c #89807E",
"p. c #9F8A75",
"a. c #BC8368",
"s. c #A28070",
"d. c #A18D7C",
"f. c #A9917F",
"g. c #596981",
"h. c #5C6E87",
"j. c #5D7089",
"k. c #5D708A",
"l. c #5E728B",
"z. c #5F758F",
"x. c #6F7380",
"c. c #7B7781",
"v. c #747B88",
"b. c #757C89",
"n. c #607791",
"m. c #627B95",
"M. c #637C97",
"N. c #647E99",
"B. c #948985",
"V. c #9A9493",
"C. c #9D9695",
"Z. c #A0928A",
"A. c #A2948B",
"S. c #AF9F92",
"D. c #BCA281",
"F. c #ADA396",
"G. c #ABA09B",
"H. c #B1A298",
"J. c #BAB0A3",
"K. c #BCB3A5",
"L. c #BDB3A5",
"P. c #BEB4A6",
"I. c #C5AB8D",
"U. c #C3B1A3",
"Y. c #C5B4A5",
"T. c #C6B4A5",
"R. c #CBBCAD",
"E. c #D2C4AB",
"W. c #CEC2B3",
"Q. c #CAC1B4",
"!. c #CEC4B5",
"~. c #CFC6B7",
"^. c #D0C4B5",
"/. c #D2C7B8",
"(. c #D4CABB",
/* pixels */
"              X $ $                     $ $ $ $ $ $ $ X     $ $ X               ",
"              X $ $                     $ $ $ $ $ $ $ X     $ $ X               ",
"    . X X X X o $ $ X X X X X X X X X X $ $ $ $ $ $ $ o X X $ $ o X X X X O % % ",
"    X $ $ $ $ $ $ $ $ $ $ $ $ e b b b b b b v $ $ $ $ $ $ $ $ $ $ $ $ $ $ f U U ",
"    X $ $ $ $ $ $ $ $ $ $ $ w ~ n.n.n.n.k... .x $ $ $ $ $ $ $ $ $ $ $ $ $ f U U ",
"$ $ $ $ $ $ $ $ $ $ $ $ $ 0 Q %.h.N.N.N.M.z.@.[ l $ $ $ $ $ $ $ $ $ $ $ $ f U U ",
"$ $ $ $ $ $ $ $ $ $ $ $ $ e ! $.&.g.h.N.N.m.$.X.v $ $ $ $ $ $ $ $ $ $ $ $ f U U ",
"$ $ $ $ $ $ $ $ $ $ $ $ 0 n  .$.$.$.&.l.N.m.$.o.m k $ $ $ $ $ $ $ $ $ $ $ f U U ",
"$ $ $ $ $ $ $ $ $ $ $ $ e ! $.$.$.$.$.*.j.h.#.{ / z $ $ $ $ $ $ $ $ $ $ $ f U U ",
"$ $ $ $ $ $ $ $ $ $ $ $ e ! $.$.$.$.$.$.$.#.} ) ^ 3 $ $ $ $ $ $ $ $ $ $ $ f U U ",
"    X $ $ $ $ $ $ $ $ $ e ! $.$.$.$.$.$.+.} ) ) ^ 3 $ $ $ $ $ $ $ $ $ $ $ f U U ",
"    X $ $ $ $ $ $ $ $ $ e ] b.b.b.b.b.v.x.2.2.:.;.3 $ $ $ $ $ $ $ $ $ $ $ f U U ",
"X X o $ $ $ $ $ $ $ $ $ e c.(.(.(.(.(.!.K.K.J.S.Z.4 $ $ $ $ $ $ $ $ $ $ $ f U U ",
"$ $ $ $ $ $ $ $ $ $ $ $ e c.Q.Q.(.(.(.~.P.L.J.S.B.v $ $ $ $ $ $ $ $ $ $ $ f U U ",
"$ $ $ $ $ $ $ $ $ $ $ $ e c.V.4.(.(.(.(.^.Y.J.A.v $ $ $ $ $ $ $ $ $ $ $ $ f U U ",
"    X $ $ $ $ $ $ $ $ $ 7 4.D.y.(.(.(.^.T.U.S.Z.2 $ $ $ $ $ $ $ $ $ $ $ $ $ $ $ ",
"    X $ $ $ $ $ $ $ $ $ + p G 7.a.R.(.(.W.T.H.c @ $ $ $ $ $ $ $ $ $ $ $ $ $ $ $ ",
"    X $ $ $ $ $ $ $ $ $ $ # d H P -.O.O.| ' ( 2 $ $ $ $ $ $ $ $ $ $ $ $ $ a f f ",
"    X $ $ $ $ $ $ $ $ $ $ $ y t r _ q.,.N 0.6 I < $ $ $ $ $ $ $ $ $ $ $ $ f U U ",
"    X $ $ $ $ $ $ $ $ $ $ $ g r.5.=.I.d.V s.6 A u.q $ $ $ $ $ $ $ $ $ $ $ f U U ",
"    X $ $ $ $ $ $ $ $ $ $ $ > t.w.<.E.F.S s.5 K p.3 $ $ $ $ $ $ $ $ $ $ $ $ $ $ ",
"    X $ $ $ $ $ $ $ $ $ $ $ * T 3.1./.G.L 8.= 6.9.3 $ $ $ $ $ $ $ $ $ $ $ $ $ $ ",
"X X o $ $ $ $ $ $ $ $ $ $ $ & ; F ` C.i.M : - J >., $ $ $ $ $ $ $ $ $ $ $ a f f ",
"$ $ $ $ $ $ $ $ $ $ $ $ $ $ $ 7 u Y C Z h 3 1 1 , $ $ $ $ $ $ $ $ $ $ $ $ f U U ",
"$ $ $ $ $ $ $ $ $ $ $ $ $ $ $ 9 i R W E j 2 $ $ $ $ $ $ $ $ $ $ $ $ $ $ $ f U U ",
"$ $ $ $ $ $ $ $ $ $ $ $ $ $ $ $ # B f.f.e.1 $ $ $ $ $ $ $ $ $ $ $ $ $ $ $ f U U ",
"$ $ $ $ $ $ $ $ $ $ $ $ $ $ $ $ $ 8 3 3 1 $ $ $ $ $ $ $ $ $ $ $ $ $ $ $ $ f U U ",
"X X o $ $ $ $ $ $ $ $ $ $ $ $ $ $ $ $ $ $ $ $ $ $ $ $ $ $ $ $ $ $ $ $ $ $ a f f ",
"    X $ $ $ $ $ $ $ $ $ $ $ $ $ $ $ $ $ $ $ $ $ $ $ $ $ $ $ $ $ $ $ $ $ $ $ $ $ ",
"    X $ $ $ $ $ $ $ $ $ $ $ $ $ $ $ $ $ $ $ $ $ $ $ $ $ $ $ $ $ $ $ $ $ $ $ $ $ ",
"    X $ $ $ $ $ $ $ $ $ $ $ $ $ $ $ $ $ $ $ $ $ $ $ $ $ $ $ $ $ $ $ $ $ $ $ $ $ ",
"    X $ $ $ $ $ $ $ $ $ $ $ $ $ $ $ $ $ $ $ $ $ $ $ $ $ $ $ $ $ $ $ $ $ $ $ $ $ ",
"    X $ $ $ $ $ $ $ $ $ $ $ $ $ $ $ $ $ $ $ $ $ $ $ $ $ $ $ $ $ $ $ $ $ $ a f f ",
"    X $ $ $ $ $ $ $ $ $ $ $ $ $ $ $ $ $ $ $ $ $ $ $ $ $ $ $ $ $ $ $ $ $ $ f U U ",
"    X $ $ $ $ $ $ $ $ $ $ $ $ $ $ $ $ $ $ $ $ $ $ $ $ $ $ $ $ $ $ $ $ $ $ f U U ",
"    X $ $ $ $ $ $ $ $ $ $ $ $ $ $ $ $ $ $ $ $ $ $ $ $ $ $ $ $ $ $ $ $ $ $ f U U ",
"    X $ $ $ $ $ $ $ $ $ $ $ $ $ $ $ $ $ $ $ $ $ $ $ $ $ $ $ $ $ $ $ $ $ $ f U U ",
"% % s f f f f a $ $ $ $ a f f $ $ a f f f f f f f f f a $ $ f f f f f f f D U U ",
"U U U U U U U f $ $ $ $ f U U $ $ f U U U U U U U U U f $ $ U U U U U U U U U U ",
"U U U U U U U f $ $ $ $ f U U $ $ f U U U U U U U U U f $ $ U U U U U U U U U U "
};
