/* XPM */
static char *result[] = {
/* columns rows colors chars-per-pixel */
"40 40 186 2 ",
"   c #030101",
".  c #0C0707",
"X  c #120601",
"o  c #240802",
"O  c #2D0B02",
"+  c #300D02",
"@  c #201207",
"#  c #391500",
"$  c #321903",
"%  c #31120D",
"&  c #220E1D",
"*  c #30061B",
"=  c #3C1612",
"-  c #2C2200",
";  c #282613",
":  c #322513",
">  c #353219",
",  c #1F0B21",
"<  c #1A0D33",
"1  c #230F28",
"2  c #21142E",
"3  c #2D1128",
"4  c #381125",
"5  c #230E30",
"6  c #340C31",
"7  c #26183C",
"8  c #362725",
"9  c #342C35",
"0  c #450D04",
"q  c #4C1700",
"w  c #4B1905",
"e  c #591606",
"r  c #551B02",
"t  c #5F0D1F",
"y  c #441116",
"u  c #481119",
"i  c #5C161A",
"p  c #671707",
"a  c #6D1701",
"s  c #631A01",
"d  c #6D1608",
"f  c #761A03",
"g  c #601614",
"h  c #492209",
"j  c #532A00",
"k  c #59250C",
"l  c #4A3700",
"z  c #462711",
"x  c #42331C",
"c  c #513719",
"v  c #533918",
"b  c #632509",
"n  c #722300",
"m  c #792901",
"M  c #752B0C",
"N  c #673815",
"B  c #551429",
"V  c #460337",
"C  c #5C063C",
"Z  c #451638",
"A  c #541837",
"S  c #641228",
"D  c #452E37",
"F  c #50233F",
"G  c #595002",
"H  c #534B15",
"J  c #6B5506",
"K  c #755700",
"L  c #7A6E01",
"P  c #4B4421",
"I  c #4D4C26",
"U  c #554C25",
"Y  c #525028",
"T  c #5B552B",
"R  c #5A4438",
"E  c #614821",
"W  c #675D2C",
"Q  c #63622C",
"!  c #686732",
"~  c #777537",
"^  c #78773A",
"/  c #2C184A",
"(  c #33184D",
")  c #2C1555",
"_  c #351756",
"`  c #3A274C",
"'  c #331962",
"]  c #391B66",
"[  c #3C1C6D",
"{  c #3D1F76",
"}  c #490047",
"|  c #58054B",
" . c #510E52",
".. c #670163",
"X. c #780077",
"o. c #43207B",
"O. c #7D7A43",
"+. c #8B1D05",
"@. c #941E01",
"#. c #981E05",
"$. c #811C12",
"%. c #892500",
"&. c #852A01",
"*. c #9F2101",
"=. c #943200",
"-. c #993300",
";. c #A32101",
":. c #AA2201",
">. c #B52501",
",. c #BD2601",
"<. c #B93310",
"1. c #C22700",
"2. c #C62801",
"3. c #CC2900",
"4. c #C72F0A",
"5. c #D42B00",
"6. c #DB2C00",
"7. c #E32D00",
"8. c #EB2F00",
"9. c #EE3000",
"0. c #F53100",
"q. c #FE3300",
"w. c #FF3907",
"e. c #865C00",
"r. c #8E7C00",
"t. c #84671A",
"y. c #AB4624",
"u. c #807F3E",
"i. c #FE4415",
"p. c #FD4719",
"a. c #FD491C",
"s. c #D94520",
"d. c #FF4D20",
"f. c #FF572D",
"g. c #FF5B32",
"h. c #8E8D00",
"j. c #9A9A00",
"k. c #A68500",
"l. c #B28E00",
"z. c #B89100",
"x. c #A7A401",
"c. c #ADA601",
"v. c #B7B600",
"b. c #BAB900",
"n. c #83823F",
"m. c #C7C700",
"M. c #DBDB00",
"N. c #FFCC00",
"B. c #E8E801",
"V. c #F4F400",
"C. c #FFFF00",
"Z. c #858541",
"A. c #8E8D45",
"S. c #908F46",
"D. c #8F9046",
"F. c #919147",
"G. c #949449",
"H. c #98974B",
"J. c #9A9A4C",
"K. c #A2A24F",
"L. c #A4A550",
"P. c #A7A852",
"I. c #ABAB53",
"U. c #B3B357",
"Y. c #B5B659",
"T. c #B7B85A",
"R. c #BBBB5B",
"E. c #BFC05E",
"W. c #C1C25F",
"Q. c #C4C560",
"!. c #C7C861",
"~. c #CACB63",
"^. c #442284",
"/. c #47238A",
"(. c #4A2593",
"). c #51279C",
"_. c #5329A4",
"`. c #552BAA",
"'. c #5A2DB3",
"]. c #5E30BE",
"[. c #6130C2",
"{. c #6633CB",
"}. c #860185",
"|. c #8B008B",
" X c #940094",
".X c #990099",
/* pixels */
"~.~.~.~.~.~.~.~.~.~.~.~.~.~.~.~.~.~.~.~.~.~.~.~.~.~.~.~.~.~.~.~.~.~.~.~.~.~.~.~.",
"~.~.~.~.~.~.~.~.~.~.~.~.~.~.~.~.~.~.~.~.~.~.~.~.~.~.~.~.~.~.~.~.~.~.~.~.~.~.~.~.",
"~.~.~.~.~.~.~.~.~.~.~.~.~.~.~.~.~.~.~.~.~.~.~.~.~.~.~.~.~.~.~.~.~.~.~.~.~.~.~.~.",
"~.~.~.~.~.~.~.~.~.~.~.~.~.~.~.~.~.~.~.~.~.~.~.~.~.~.~.~.~.~.~.~.~.~.~.~.~.~.~.~.",
"~.~.~.~.~.~.~.~.~.~.~.~.~.~.~.~.~.~.~.~.~.~.~.~.~.~.~.~.~.~.~.~.~.~.~.~.~.~.~.~.",
"~.~.~.~.~.~.~.~.~.~.~.~.~.~.~.~.~.~.~.~.~.~.~.~.~.~.~.~.~.~.~.~.~.~.~.~.~.~.~.~.",
"~.~.~.~.~.~.~.~.~.~.~.~.W.~.~.W.R.R.T.T.T.T.T.R.W.!.~.~.~.~.~.~.~.~.~.~.~.~.~.~.",
"~.~.~.~.~.~.~.~.~.~.U.v M b ! K.K.L.K.K.K.K.K.L.L.L.n.N M E L.~.~.~.~.~.~.~.~.~.",
"~.~.~.~.~.~.~.~.W.I.c 5.q.7.f ~ K.L.K.K.K.K.K.L.K.A.k 6.0.2.N I.~.~.~.~.~.~.~.~.",
"~.~.~.~.~.~.Q.T.P.W *.q.q.q.0.z A.F.S.A.D.F.G.J.K.c 3.q.q.q.,.U I.W.~.~.~.~.~.~.",
"~.~.~.~.~.Q.P.K.J.c 0.q.q.0.1.0 8 7 7 7 < 2 7 9 I 0 8.q.q.q.0.b D.P.R.~.~.~.~.~.",
"~.~.~.~.E.L.K.K.u.@ >.1.+.4 ) (./._ u e f a e y / ) 5 p 5.q.5.+ ! K.K.T.~.~.~.~.",
"~.~.~.W.P.K.L.K.~   o q % { _.] e :.*.e j j s *.*.u { ^., a O   I K.K.K.T.~.~.~.",
"~.~.~.U.K.K.L.L.Q . r =.m 3 /.e n l L x.v.m.v.h.l s p ] % k X   > K.K.K.P.E.~.~.",
"~.~.Q.P.K.K.L.Z.> . r =.-.b . $ h.m.B.V.C.C.C.C.V.j.# O m =.m X ; K.K.K.L.U.~.~.",
"~.~.R.L.K.K.W > 2 ^.{ % =.&.. j.M.V.C.C.C.C.C.C.C.C.m.- n =.w & . I A.K.L.P.~.~.",
"~.~.R.K.L.Z.x z 3 (._.o.r r f G M.C.C.C.C.C.C.C.C.C.B.G r = (.`.' : P ^ L.P.~.~.",
"~.~.E.L.K.I h 2.*._ `.].1 a 3.;.e.b.B.C.C.C.C.C.V.v.t.y.s _ {.[.( a c P A.I.~.~.",
"~.~.!.I.H.; >.0.5.Z '.{.6 ;.3.q.6.%.K r.x.c.c.r.J +.s.g.<.[ {.`.i q.+.: ! Y.~.~.",
"~.~.~.R.G.+ q.q.0.g '.{.4 1.6.q.q.q.0.:.* * e 3.0.q.p.g.p.) [.^.#.q.0.e Y !.~.~.",
"~.~.~.~.L.e q.q.q.%.).].y 3.6.q.q.q.0.p  X.X| 2.q.q.p.g.a.Z ]. .3.q.q.;.P ~.~.~.",
"~.~.~.~.T.k q.q.q.;.o.].y 3.7.q.q.q.0.d }. X| 3.q.q.i.g.a.Z ].A 8.q.q.>.W ~.~.~.",
"~.~.~.~.Q.T 6.q.q.,.[ {.y 1.5.q.q.q.q.5.t t #.0.q.q.a.g.i.` '.B q.q.q.#.n.~.~.~.",
"~.~.~.~.~.I.d 8.q.5.) {.( :.3.q.q.q.q.q.0.9.q.q.q.w.f.g.4.{ `.S q.q.0.N I.~.~.~.",
"~.~.~.~.~.~.Z.b ,.>./ {.).f 3.9.q.q.q.q.q.q.q.q.q.p.g.d.e '.).$.q.0.p A.~.~.~.~.",
"~.~.~.~.~.~.~.U.~ Y / [.[.2 ;.5.0.q.q.q.q.q.q.q.q.i.p.>._ {.).y @.k F.~.~.~.~.~.",
"~.~.~.~.~.~.~.~.~.~.J.` ^.x # >.7.q.q.q.q.q.q.q.q.q.2.# ` '.( O.I.R.~.~.~.~.~.~.",
"~.~.~.~.~.~.~.~.~.~.W.U.T L z.w #.7.q.q.q.q.q.q.0.,.O l 8 D J.!.~.~.~.~.~.~.~.~.",
"~.~.~.~.~.~.~.~.~.~.~.~.P.r.N.J V 0 ;.0.q.q.8.:.e  .B k.H Q.~.~.~.~.~.~.~.~.~.~.",
"~.~.~.~.~.~.~.~.~.~.~.~.I.J N.J }.|...} V V } .. X.XA l.! ~.~.~.~.~.~.~.~.~.~.~.",
"~.~.~.~.~.~.~.~.~.~.~.~.~.Q k.K X..X.X X|. X X.X.X X4 H P.~.~.~.~.~.~.~.~.~.~.~.",
"~.~.~.~.~.~.~.~.~.~.~.~.~.T.~ H  .X.|.|.| S C X.}. .I P.~.~.~.~.~.~.~.~.~.~.~.~.",
"~.~.~.~.~.~.~.~.~.~.~.~.~.~.~.!.J.R F F e ,.%.8 R O.Q.~.~.~.~.~.~.~.~.~.~.~.~.~.",
"~.~.~.~.~.~.~.~.~.~.~.~.~.~.~.~.~.~.~.~.^ Q ^ R.~.~.~.~.~.~.~.~.~.~.~.~.~.~.~.~.",
"~.~.~.~.~.~.~.~.~.~.~.~.~.~.~.~.~.~.~.~.~.~.~.~.~.~.~.~.~.~.~.~.~.~.~.~.~.~.~.~.",
"~.~.~.~.~.~.~.~.~.~.~.~.~.~.~.~.~.~.~.~.~.~.~.~.~.~.~.~.~.~.~.~.~.~.~.~.~.~.~.~.",
"~.~.~.~.~.~.~.~.~.~.~.~.~.~.~.~.~.~.~.~.~.~.~.~.~.~.~.~.~.~.~.~.~.~.~.~.~.~.~.~.",
"~.~.~.~.~.~.~.~.~.~.~.~.~.~.~.~.~.~.~.~.~.~.~.~.~.~.~.~.~.~.~.~.~.~.~.~.~.~.~.~.",
"~.~.~.~.~.~.~.~.~.~.~.~.~.~.~.~.~.~.~.~.~.~.~.~.~.~.~.~.~.~.~.~.~.~.~.~.~.~.~.~.",
"~.~.~.~.~.~.~.~.~.~.~.~.~.~.~.~.~.~.~.~.~.~.~.~.~.~.~.~.~.~.~.~.~.~.~.~.~.~.~.~."
};
