/* XPM */
static char *result[] = {
/* columns rows colors chars-per-pixel */
"40 40 184 2 ",
"   c #030101",
".  c #0C0606",
"X  c #120601",
"o  c #280902",
"O  c #300D02",
"+  c #201307",
"@  c #391500",
"#  c #321903",
"$  c #31110D",
"%  c #30061B",
"&  c #3C1512",
"*  c #3B101E",
"=  c #2C2200",
"-  c #292613",
";  c #332513",
":  c #353119",
">  c #1A0D33",
",  c #1E1233",
"<  c #200D22",
"1  c #250F2C",
"2  c #21142E",
"3  c #2C1228",
"4  c #381126",
"5  c #230E30",
"6  c #340C31",
"7  c #26183C",
"8  c #362825",
"9  c #342C35",
"0  c #460D04",
"q  c #550F08",
"w  c #4C1700",
"e  c #491B03",
"r  c #591706",
"t  c #551B02",
"y  c #5F0D1F",
"u  c #441015",
"i  c #481219",
"p  c #5D1617",
"a  c #611503",
"s  c #6E1603",
"d  c #631A01",
"f  c #691608",
"g  c #771A03",
"h  c #4A240D",
"j  c #532A00",
"k  c #59250C",
"l  c #4A3700",
"z  c #462711",
"x  c #43331B",
"c  c #513719",
"v  c #533919",
"b  c #692004",
"n  c #63250A",
"m  c #722300",
"M  c #792800",
"N  c #752B0B",
"B  c #693A16",
"V  c #551429",
"C  c #460337",
"Z  c #5C063C",
"A  c #451638",
"S  c #541837",
"D  c #641228",
"F  c #452D37",
"G  c #50233F",
"H  c #595002",
"J  c #534B15",
"K  c #6A5506",
"L  c #755700",
"P  c #7A6E01",
"I  c #4B4321",
"U  c #4D4C26",
"Y  c #554C25",
"T  c #525028",
"R  c #5B552C",
"E  c #5A4438",
"W  c #675D2C",
"Q  c #64622C",
"!  c #686732",
"~  c #777537",
"^  c #78773A",
"/  c #2C184A",
"(  c #33184D",
")  c #2D1555",
"_  c #351756",
"`  c #3B2158",
"'  c #341962",
"]  c #3A1B6B",
"[  c #3D1E75",
"{  c #3D1E78",
"}  c #490147",
"|  c #57064A",
" . c #510E52",
".. c #401D6E",
"X. c #660163",
"o. c #780077",
"O. c #43207B",
"+. c #7C7A43",
"@. c #8B1D05",
"#. c #941E01",
"$. c #981E05",
"%. c #811C12",
"&. c #892500",
"*. c #862A01",
"=. c #9F2000",
"-. c #953200",
";. c #993300",
":. c #A32100",
">. c #A92201",
",. c #B52401",
"<. c #BC2601",
"1. c #BA3310",
"2. c #C22700",
"3. c #C62801",
"4. c #CC2900",
"5. c #C82B05",
"6. c #D42B00",
"7. c #DB2C00",
"8. c #E32E00",
"9. c #ED2F00",
"0. c #EE3000",
"q. c #F53100",
"w. c #FE3300",
"e. c #FF3908",
"r. c #875C00",
"t. c #8E7C00",
"y. c #84671A",
"u. c #AB4524",
"i. c #807F3E",
"p. c #FE4415",
"a. c #FD4619",
"s. c #FD491C",
"d. c #D94520",
"f. c #FF4D20",
"g. c #FF572D",
"h. c #FF5B32",
"j. c #8E8D00",
"k. c #9A9A00",
"l. c #A58401",
"z. c #B28F00",
"x. c #A9A501",
"c. c #B7B500",
"v. c #BBBA00",
"b. c #81823F",
"n. c #C7C700",
"m. c #DBDB00",
"M. c #FFCC00",
"N. c #E8E801",
"B. c #F4F400",
"V. c #FFFF00",
"C. c #858441",
"Z. c #8D8C45",
"A. c #908F45",
"S. c #8F9046",
"D. c #919047",
"F. c #95954A",
"G. c #9A9A4C",
"H. c #A2A24F",
"J. c #A5A551",
"K. c #ABAB53",
"L. c #B5B659",
"P. c #B6B659",
"I. c #BBBC5C",
"U. c #BFC05E",
"Y. c #C1C25F",
"T. c #C5C660",
"R. c #C7C861",
"E. c #CACB63",
"W. c #442284",
"Q. c #47238A",
"!. c #4A2593",
"~. c #51289C",
"^. c #5329A5",
"/. c #552AAA",
"(. c #5A2DB3",
"). c #5E2FBC",
"_. c #5E30BD",
"`. c #6030BF",
"'. c #6231C4",
"]. c #6633CB",
"[. c #850185",
"{. c #8B008B",
"}. c #940094",
"|. c #990099",
/* pixels */
"E.E.E.E.E.E.E.E.E.E.E.E.E.E.E.E.E.E.E.E.E.E.E.E.E.E.E.E.E.E.E.E.E.E.E.E.E.E.E.E.",
"E.E.E.E.E.E.E.E.E.E.E.E.E.E.E.E.E.E.E.E.E.E.E.E.E.E.E.E.E.E.E.E.E.E.E.E.E.E.E.E.",
"E.E.E.E.E.E.E.E.E.E.E.E.E.Y.L.J.J.K.L.T.E.E.E.E.E.E.E.E.E.E.E.E.E.E.E.E.E.E.E.E.",
"E.E.E.E.E.E.E.E.E.E.E.E.L.J.H.H.J.S.! T I W b.J.E.E.E.E.E.E.E.E.E.E.E.E.E.E.E.E.",
"E.E.E.E.E.E.E.E.E.E.E.L.J.H.H.J.^ U ; t >.,.#.B Z.E.E.E.E.E.E.E.E.E.E.E.E.E.E.E.",
"E.E.E.E.E.E.E.E.E.E.I.H.H.H.H.Z.I c @.q.w.w.w.9.s A.E.E.E.E.E.E.E.E.E.E.E.E.E.E.",
"E.E.E.E.E.E.E.E.E.Y.J.J.H.H.J.U ; f w.w.w.w.w.w.w.k I.E.E.E.E.E.E.E.E.E.E.E.E.E.",
"E.E.E.E.E.E.E.E.E.K.S.! U : - . ' ( p $.4.9.w.w.w.@.K.E.E.E.E.E.E.E.E.E.E.E.E.E.",
"E.E.E.E.E.E.E.E.J.Y n O     X < /.'.^.W. .S V D %.u +.Y.E.E.E.E.E.E.E.E.E.E.E.E.",
"E.E.E.E.E.E.E.J.B <.w.6.O X M e !.].].'._.).)./.~.~./ H.E.E.E.E.E.E.E.E.E.E.E.E.",
"E.E.E.E.E.E.E.Y 3.w.w.w.s k ;.*.& _ [ ( A 9 ( [ (.].(.F Y.Y.E.E.E.E.E.E.E.E.E.E.",
"E.E.E.E.E.E.E.N q.w.w.6.< $ M M w a 1.a.a.a.a.5.a _ ` 8 J ! K.E.E.E.E.E.E.E.E.E.",
"E.E.E.E.E.E.E.B 7.w.w.f W.' o = H u.h.h.h.h.h.h.s.,.O l z.z.J K.E.E.E.E.E.E.E.E.",
"E.E.E.E.E.E.E.i.k 4.0.5 ..f @ n.N.y.d.s.p.p.f.g.h.p.3.$ V G * U R.E.E.E.E.E.E.E.",
"E.E.E.E.E.E.R.J.Z.v 0 ) i f k.V.V.c.&.w.w.w.w.e.a.p.w.,.| |.}. .Z.E.E.E.E.E.E.E.",
"E.E.E.E.E.E.Y.J.H.G.U / :.l B.V.V.B.L q.w.w.w.w.w.w.w.q.q {.|.[.F E.E.E.E.E.E.E.",
"E.E.E.E.E.E.I.H.J.F.9 u =.j.V.V.V.V.t.4.2.3.w.w.w.w.w.w.>.X.|.o.8 I.E.E.E.E.E.E.",
"E.E.E.E.E.E.I.H.H.D.9 q d c.V.V.V.V.x.q | | $.w.w.w.w.w.9.} |.Z &.^ E.E.E.E.E.E.",
"E.E.E.E.E.E.P.H.H.S., s j n.V.V.V.V.x.6 |.}.y 9.w.w.w.w.w.C }.D ,.! E.E.E.E.E.E.",
"E.E.E.E.E.E.P.H.H.S.> g j v.V.V.V.V.x.% }.{.y q.w.w.w.w.w.C }.Z d ^ E.E.E.E.E.E.",
"E.E.E.E.E.E.I.H.J.Z.7 q d x.B.V.V.V.t.>.f f 6.w.w.w.w.w.9.} |.{.G R.R.E.E.E.E.E.",
"E.E.E.E.E.E.I.H.H.S./ i &.P N.V.V.N.L q.q.q.w.w.w.w.w.w.=.X.|.{.G E.E.E.E.E.E.E.",
"E.E.E.E.E.E.I.H.H.F.7 ( :.l n.B.V.c.&.w.w.w.w.w.w.w.w.8.w [.|.o.E E.E.E.E.E.E.E.",
"E.E.E.E.E.Y.I.H.H.D.8 Q.p m j.m.m.r.7.w.w.w.w.w.w.q.8.#.C [.o. .F.E.E.E.E.E.E.E.",
"E.E.E.E.E.E.Y.H.~ h @ !.] q # k.H :.w.w.w.w.w.w.q.6.,.e K K L J R.E.E.E.E.E.E.E.",
"E.E.E.E.E.E.Y.! g q.3.) ^.Q.. X g 4.4.6.7.8.6.6.4.>.@ z.M.M.l.~ E.E.E.E.E.E.E.E.",
"E.E.E.E.E.E.E.n 8.w.w.4 O.1 b M w s :.5.4.4.2.>.s 1 x P t.K R L.E.E.E.E.E.E.E.E.",
"E.E.E.E.E.E.Y.N w.w.w.@.$ *.-.-.k < 6 * u u * ( ~.'.W.R K.K.E.E.E.E.E.E.E.E.E.E.",
"E.E.E.E.E.E.E.J 6.w.w.2.w -.-.$ ..`.].].)._.].].].'.9 L.E.E.E.E.E.E.E.E.E.E.E.E.",
"E.E.E.E.E.E.E.P.c :.q.,.o t t { ^./.(.(.!.W.] ) ) / G.E.E.E.E.E.E.E.E.E.E.E.E.E.",
"E.E.E.E.E.E.E.E.K.Q c +     . W.!._ A p @.>.<.6.<.U E.E.E.E.E.E.E.E.E.E.E.E.E.E.",
"E.E.E.E.E.E.E.E.T.J.G.b.~ Q : 2 3 $.7.q.w.w.w.w.<.~ E.E.E.E.E.E.E.E.E.E.E.E.E.E.",
"E.E.E.E.E.E.E.E.E.P.H.H.H.H.C.: z 5.w.w.w.w.w.0.n L.R.E.E.E.E.E.E.E.E.E.E.E.E.E.",
"E.E.E.E.E.E.E.E.E.R.K.H.H.H.H.W : e ,.w.w.w.8.s C.E.E.E.E.E.E.E.E.E.E.E.E.E.E.E.",
"E.E.E.E.E.E.E.E.E.E.R.J.H.H.H.H.C.U ; O r k R K.E.E.E.E.E.E.E.E.E.E.E.E.E.E.E.E.",
"E.E.E.E.E.E.E.E.E.E.E.U.K.H.H.H.H.H.G.D.J.I.U.E.E.E.E.E.E.E.E.E.E.E.E.E.E.E.E.E.",
"E.E.E.E.E.E.E.E.E.E.E.E.Y.P.J.H.H.J.K.I.E.E.E.E.E.E.E.E.E.E.E.E.E.E.E.E.E.E.E.E.",
"E.E.E.E.E.E.E.E.E.E.E.E.E.E.Y.I.I.U.R.E.E.E.E.E.E.E.E.E.E.E.E.E.E.E.E.E.E.E.E.E.",
"E.E.E.E.E.E.E.E.E.E.E.E.E.E.E.E.E.E.E.E.E.E.E.E.E.E.E.E.E.E.E.E.E.E.E.E.E.E.E.E.",
"E.E.E.E.E.E.E.E.E.E.E.E.E.E.E.E.E.E.E.E.E.E.E.E.E.E.E.E.E.E.E.E.E.E.E.E.E.E.E.E."
};
