/* XPM */
static char *result[] = {
/* columns rows colors chars-per-pixel */
"40 40 21 1 ",
"  c #222222",
". c #2B2828",
"X c #352E2E",
"o c #3E3534",
"O c #413735",
"+ c #483B3A",
"@ c #4C3F3B",
"# c #62232F",
"$ c #544341",
"% c #564541",
"& c #5F4B47",
"* c #6B544E",
"= c #775C55",
"- c #8F4029",
"; c #C56025",
": c #EE8E2E",
"> c #FFAD3B",
", c #97DA3F",
"< c #FACB3E",
"1 c #72D6CE",
"2 c #FDF7ED",
/* pixels */
"       X++          +++++++X  ++X       ",
"       X++          +++++++X  ++X       ",
"  .XXXXo++XXXXXXXXXX+++++++oXX++oXXXXO@@",
"  X++++++++++++++++++++++++++++++++++&==",
"  X+++++    ++++++++++++++++    +++++&==",
"++++++++    ++++++++++++++++    +++++&==",
"++++    ::##                ##::    +&==",
"++++    ::##                ##::    +&==",
"++++  ::<<--::::::::::::::::--<<::  +&==",
"++++  ::<<--::::::::::::::::--<<::  +&==",
"  X+  ;;::--;;;;;;;;;;;;;;;;--::;;  +&==",
"  X+  ;;::--;;;;;;;;;;;;;;;;--::;;  +&==",
"XXo+  ;;::--;;;;--####--;;;;--::;;  +&==",
"++++  ;;::--;;;;--####--;;;;--::;;  +&==",
"++++  <<<<##<<<<##<<<<##<<<<##<<<<  +&==",
"  X+  <<<<##<<<<##<<<<##<<<<##<<<<  ++++",
"  X+    ::--    ##::<<##    --::    ++++",
"  X+    ::--    ##::<<##    --::    +$&&",
"  X+  ;;  22,,,,<<####>>1122>>  ;;  +&==",
"  X+  ;;  22,,,,<<####>>1122>>  ;;  +&==",
"  X+  ;;22<<<<>>>>####221111<<22;;  ++++",
"  X+  ;;22<<<<>>>>####221111<<22;;  ++++",
"XXo+  ;;;;;;;;;;;;;;;;;;;;;;;;;;;;  +$&&",
"++++  ;;;;;;;;;;;;;;;;;;;;;;;;;;;;  +&==",
"++++  ############################  +&==",
"++++  ############################  +&==",
"++++  ----------------------------  +&==",
"XXo+  ----------------------------  +$&&",
"  X+  ##------------------------##  ++++",
"  X+  ##------------------------##  ++++",
"  X+  ############################  ++++",
"  X+  ############################  ++++",
"  X+                                +$&&",
"  X+                                +&==",
"  X++++++++++++++++++++++++++++++++++&==",
"  X++++++++++++++++++++++++++++++++++&==",
"  X++++++++++++++++++++++++++++++++++&==",
"@@%&&&&$++++$&&++$&&&&&&&&&$++&&&&&&&*==",
"=======&++++&==++&=========&++==========",
"=======&++++&==++&=========&++=========="
};
