/* XPM */
static char *result[] = {
/* columns rows colors chars-per-pixel */
"40 40 5 1 ",
"  c #222222",
". c #483B3A",
"X c #775C55",
"o c #AA8D7A",
"O c #D3BFA9",
/* pixels */
"                                        ",
"                                        ",
"oooooooo  oooooo  oooooooo  ..oooooooooo",
"oooooooo  oooooo  oooooooo  ..oooooooooo",
"oooooooo  oooooo  oooooooo  oooooooooooo",
"oooooooo  oooooo  oooooooo  oooooooooooo",
"OOOO..OO  OOOOOO  OOOOOOOO  OOOOOOOO..OO",
"OOOO..OO  OOOOOO  OOOOOOOO  OOOOOOOO..OO",
"XXXXXXXX  XXXXXX  XXXXXXXX  XXXXXXXXXXXX",
"XXXXXXXX  XXXXXX  XXXXXXXX  XXXXXXXXXXXX",
"........  ......  ........  ............",
"........  ......  ........  ............",
"  ......  ....    ........  ....  ......",
"  ......  ....    ........  ....  ......",
"                                        ",
"                                        ",
"XXXXXXXXXXXX  XXXXXXXXXX  XXXX  XXXXXXXX",
"XXXXXXXXXXXX  XXXXXXXXXX  XXXX  XXXXXXXX",
"............  ................  ........",
"............  ................  ........",
"............  ..  ............  ........",
"............  ..  ............  ........",
"                                        ",
"                                        ",
"XXXX  XXXXXXXXXXXX    XXXXXXXXXXXXXX  XX",
"XXXX  XXXXXXXXXXXX    XXXXXXXXXXXXXX  XX",
"....  ............  ................  ..",
"....  ............  ................  ..",
"....  ............  ........  ......  ..",
"....  ............  ........  ......  ..",
"                                        ",
"                                        ",
"XXXXXXXXXX  XXXXXXXXXXXXXX  XXXXXXXXXXXX",
"XXXXXXXXXX  XXXXXXXXXXXXXX  XXXXXXXXXXXX",
"..........  ..............  ............",
"..........  ..............  ............",
"......  ..  ..  ..........  ........  ..",
"......  ..  ..  ..........  ........  ..",
"                                        ",
"                                        "
};
