/* XPM */
static char *result[] = {
/* columns rows colors chars-per-pixel */
"40 40 57 1 ",
"  c black",
". c #000603",
"X c #010804",
"o c #020905",
"O c #0D0D06",
"+ c #001209",
"@ c #01170B",
"# c #0D1008",
"$ c #01180B",
"% c #01190C",
"& c #011F0F",
"* c #11140D",
"= c #19190C",
"- c #19190D",
"; c #012110",
": c #012311",
"> c #012513",
", c #012814",
"< c #012A15",
"1 c #012B16",
"2 c #012E17",
"3 c #023219",
"4 c #023319",
"5 c #02341A",
"6 c #02361B",
"7 c #02391D",
"8 c #023B1D",
"9 c #023D1E",
"0 c #023D1F",
"q c #023E1F",
"w c #252512",
"e c #252613",
"r c #262612",
"t c #1E2D26",
"y c #24382E",
"u c #294738",
"i c #294A39",
"p c #29523D",
"a c #4B4C25",
"s c #4C4C25",
"d c #656531",
"f c #656632",
"g c #727237",
"h c #717238",
"j c #727338",
"k c #7E7F3D",
"l c #7E7F3E",
"z c #466957",
"x c #476A58",
"c c #517965",
"v c #B1B156",
"b c #B1B157",
"n c #B1B256",
"m c #B1B257",
"M c #BDBE5C",
"N c #BDBE5D",
"B c #CACB63",
/* pixels */
"BBBMf-                            eavBBB",
"BBl*yuppppppppppppppppppppppppppppitOjBB",
"BjoxcccccccccccccccccccccccccccccccczXlB",
"nO6qqqqqqqqqqqqqqqqqqqqqqqqqqqqqqqqqq6#N",
"s@qqqqqqqqqqqqqqqqqqqqqqqqqqqqqqqqqqqq&d",
"w3qqqqqqqqqqqqqqqqqqqqqqqqqqqqqqqqqqqq2=",
" qqqqqqqqqqqqqqqqqqqqqqqqqqqqqqqqqqqqqq ",
" qqqqqqqqqqqqqqqqqqqqqqqqqqqqqqqqqqqqqq ",
" qqqqqqqqqqqqqqqqqqqqqqqqqqqqqqqqqqqqqq ",
" qqqqqqqqqqqqqqqqqqqqqqqqqqqqqqqqqqqqqq ",
" qqqqqqqqqqqqqqqqqqqqqqqqqqqqqqqqqqqqqq ",
" qqqqqqqqqqqqqqqqqqqqqqqqqqqqqqqqqqqqqq ",
" qqqqqqqqqqqqqqqqqqqqqqqqqqqqqqqqqqqqqq ",
" qqqqqqqqqqqqqqqqqqqqqqqqqqqqqqqqqqqqqq ",
" qqqqqqqqqqqqqqqqqqqqqqqqqqqqqqqqqqqqqq ",
" qqqqqqqqqqqqqqqqqqqqqqqqqqqqqqqqqqqqqq ",
" qqqqqqqqqqqqqqqqqqqqqqqqqqqqqqqqqqqqqq ",
" qqqqqqqqqqqqqqqqqqqqqqqqqqqqqqqqqqqqqq ",
" qqqqqqqqqqqqqqqqqqqqqqqqqqqqqqqqqqqqqq ",
" qqqqqqqqqqqqqqqqqqqqqqqqqqqqqqqqqqqqqq ",
" qqqqqqqqqqqqqqqqqqqqqqqqqqqqqqqqqqqqqq ",
" qqqqqqqqqqqqqqqqqqqqqqqqqqqqqqqqqqqqqq ",
" qqqqqqqqqqqqqqqqqqqqqqqqqqqqqqqqqqqqqq ",
" qqqqqqqqqqqqqqqqqqqqqqqqqqqqqqqqqqqqqq ",
" qqqqqqqqqqqqqqqqqqqqqqqqqqqqqqqqqqqqqq ",
" qqqqqqqqqqqqqqqqqqqqqqqqqqqqqqqqqqqqqq ",
" qqqqqqqqqqqqqqqqqqqqqqqqqqqqqqqqqqqqqq ",
" qqqqqqqqqqqqqqqqqqqqqqqqqqqqqqqqqqqqqq ",
" qqqqqqqqqqqqqqqqqqqqqqqqqqqqqqqqqqqqqq ",
" qqqqqqqqqqqqqqqqqqqqqqqqqqqqqqqqqqqqqq ",
" qqqqqqqqqqqqqqqqqqqqqqqqqqqqqqqqqqqqqq ",
" qqqqqqqqqqqqqqqqqqqqqqqqqqqqqqqqqqqqqq ",
" qqqqqqqqqqqqqqqqqqqqqqqqqqqqqqqqqqqqqq ",
" 70qqqqqqqqqqqqqqqqqqqqqqqqqqqqqqqqqq98 ",
"=>355555555555555555555555555555555554,r",
"d%333333333333333333333333333333333333+s",
"N#133333333333333333333333333333333331Ob",
"Bl.1333333333333333333333333333333331.gB",
"BBhO+:<<<<<<<<<<<<<<<<<<<<<<<<<<<<;$#kBB",
"BBBmsr                            =dNBBB"
};
