/* XPM */
static char *result[] = {
/* columns rows colors chars-per-pixel */
"40 40 5 1 ",
"  c #222222",
". c #483B3A",
"X c #775C55",
"o c #AA8D7A",
"O c #D3BFA9",
/* pixels */
"                                        ",
"                                        ",
"                                oooo..oo",
"                                oooo..oo",
"                                oooooooo",
"                                oooooooo",
"                                OOOOOOOO",
"                                OOOOOOOO",
"                                XXXXXXXX",
"                                XXXXXXXX",
"                                ........",
"                                ........",
"                                ........",
"                                ........",
"                                        ",
"                                        ",
"                                  XXXX  ",
"                                  XXXX  ",
"                                ......  ",
"                                ......  ",
"                                ......  ",
"                                ......  ",
"                                        ",
"                                        ",
"                                XXXXXXXX",
"                                XXXXXXXX",
"                                ........",
"                                ........",
"                                ....  ..",
"                                ....  ..",
"                                        ",
"                                        ",
"                                XXXXXX  ",
"                                XXXXXX  ",
"                                ......  ",
"                                ......  ",
"                                ......  ",
"                                ......  ",
"                                        ",
"                                        "
};
