/* XPM */
static char *result[] = {
/* columns rows colors chars-per-pixel */
"40 40 3 1 ",
"  c #222222",
". c #AA8D7A",
"X c #D3BFA9",
/* pixels */
"  ......                                ",
"  ......                                ",
"  ......                                ",
"  ......                                ",
"  ......                                ",
"  ......                                ",
"  ......                                ",
"  ......                                ",
"  ......                                ",
"  ......                                ",
"  ......                                ",
"  ......                                ",
"                                        ",
"                                        ",
"  XXXXXX                                ",
"  XXXXXX                                ",
"  ......                                ",
"  ......                                ",
"  ......                                ",
"  ......                                ",
"  ......                                ",
"  ......                                ",
"  ......                                ",
"  ......                                ",
"  ......                                ",
"  ......                                ",
"                                        ",
"                                        ",
"  XXXXXX                                ",
"  XXXXXX                                ",
"  ......                                ",
"  ......                                ",
"  ......                                ",
"  ......                                ",
"  ......                                ",
"  ......                                ",
"  ......                                ",
"  ......                                ",
"                                        ",
"                                        "
};
