/* XPM */
static char *result[] = {
/* columns rows colors chars-per-pixel */
"40 40 138 2 ",
"   c #E1A700",
".  c #EAA600",
"X  c #EFA600",
"o  c #E2A900",
"O  c #EAAA02",
"+  c #EDAA00",
"@  c #F2AA01",
"#  c #F5AE00",
"$  c #F4AF00",
"%  c #F8AF00",
"&  c #E3B300",
"*  c #E5B200",
"=  c #EFB101",
"-  c #EBBA00",
";  c #EEBE00",
":  c #F4B101",
">  c #F9B000",
",  c #FBB200",
"<  c #FDB300",
"1  c #F8B400",
"2  c #FBB400",
"3  c #FDB400",
"4  c #FDB500",
"5  c #F3B900",
"6  c #F4B800",
"7  c #F7B800",
"8  c #F5BB00",
"9  c #F2BD00",
"0  c #FCB800",
"q  c #FDB900",
"w  c #FFB800",
"e  c #FFB900",
"r  c #FFBA00",
"t  c #FFBB00",
"y  c #FCBC00",
"u  c #FFBC00",
"i  c #FFBD00",
"p  c #FFBE00",
"a  c #FEBF00",
"s  c #FFBF00",
"d  c #F1C000",
"f  c #F0C301",
"g  c #FCC100",
"h  c #FFC000",
"j  c #FEC100",
"k  c #FFC100",
"l  c #FDC200",
"z  c #FFC200",
"x  c #F9C400",
"c  c #FCC400",
"v  c #FFC400",
"b  c #FFC500",
"n  c #FFC600",
"m  c #FFC700",
"M  c #F8C800",
"N  c #F9C903",
"B  c #FDC900",
"V  c #FEC800",
"C  c #FFC800",
"Z  c #FFC900",
"A  c #FFCA00",
"S  c #FFCB00",
"D  c #FFCC00",
"F  c #FFCD00",
"G  c #FECE00",
"H  c #FFCE00",
"J  c #FFCF00",
"K  c #F8C905",
"L  c #FFCF06",
"P  c #FCCD09",
"I  c #FCCE09",
"U  c #FED000",
"Y  c #FFD000",
"T  c #FFD100",
"R  c #FFD200",
"E  c #FFD300",
"W  c #FFD400",
"Q  c #FFD500",
"!  c #FFD600",
"~  c gold",
"^  c #FFD800",
"/  c #FFD900",
"(  c #FFDA00",
")  c #FFDB00",
"_  c #FFDA03",
"`  c #FFDC00",
"'  c #FFDF00",
"]  c #FDD61D",
"[  c #FFE000",
"{  c #FFE100",
"}  c #FFE200",
"|  c #FFE300",
" . c #FFE400",
".. c #FFE500",
"X. c #FFE600",
"o. c #FFE700",
"O. c #FFE800",
"+. c #FFE900",
"@. c #FFEA00",
"#. c #FFEB00",
"$. c #FFED00",
"%. c #FFEE00",
"&. c #FFEE02",
"*. c #FFF000",
"=. c #FFF100",
"-. c #FFF200",
";. c #FFF300",
":. c #FFF500",
">. c #FFF600",
",. c #FFF700",
"<. c #FFFA00",
"1. c #FFFB00",
"2. c #FFED12",
"3. c #FFE31F",
"4. c #FFDA20",
"5. c #FFDD32",
"6. c #FFDB3F",
"7. c #FFE320",
"8. c #FFEA23",
"9. c #FFE928",
"0. c #FFEA2C",
"q. c #FFED2C",
"w. c #FFEF54",
"e. c #FFE35D",
"r. c #FFE861",
"t. c #FFE773",
"y. c #FFE872",
"u. c #FFE977",
"i. c #FFF27F",
"p. c #FFED88",
"a. c #FFEF95",
"s. c #FFF39B",
"d. c #FFF3A2",
"f. c #FFF3A4",
"g. c #FFF4A4",
"h. c #FFF4AA",
"j. c #FFF3AE",
"k. c None",
/* pixels */
"k.k.k.k.k.k.k.k.k.k.k.k.k.k.k.k.k.k.k.k.k.k.k.k.k.k.k.k.k.k.k.k.k.k.k.k.k.k.k.k.",
"k.k.k.k.k.k.k.k.k.k.k.k.k.k.k.k.k.k.k.k.k.k.k.k.k.k.k.k.k.k.k.k.k.k.k.k.k.k.k.k.",
"k.k.k.k.k.k.k.k.k.k.k.k.k.k.k.k.k.k.k.k.k.k.k.k.k.k.k.k.k.k.k.k.k.k.k.k.k.k.k.k.",
"k.k.k.k.k.k.k.k.k.k.k.k.k.k.k.k.k.k.k.k.k.k.k.k.k.k.k.k.k.k.k.k.k.k.k.k.k.k.k.k.",
"k.k.k.k.k.k.k.k.k.k.k.k.k.k.k.k.k.k.k.k.k.k.k.k.k.k.k.k.k.k.k.k.k.k.k.k.k.k.k.k.",
"k.k.k.k.k.k.k.k.k.k.k.k.k.k.k.k.k.k.k.k.k.k.k.k.k.k.k.k.k.k.k.k.k.k.k.k.k.k.k.k.",
"k.k.k.k.k.k.k.k.k.k.k.k.k.k.k.k.k.k.k.k.k.k.k.k.k.k.k.k.k.k.k.k.k.k.k.k.k.k.k.k.",
"k.k.k.k.k.k.k.k.k.k.k.k.k.k.k.k.k.k.k.k.k.k.k.k.k.k.k.k.k.k.k.k.k.k.k.k.k.k.k.k.",
"k.k.k.k.k.k.k.k.k.k.k.k.k.k.k.k.k.k.k.k.k.k.k.k.k.k.k.k.k.k.k.k.k.k.k.k.k.k.k.k.",
"k.k.k.k.k.k.k.k.k.k.k.k.k.k.k.k.k.k.k.k.k.k.k.k.k.k.k.k.k.k.k.k.k.k.k.k.k.k.k.k.",
"k.k.k.k.k.k.k.k.k.k.k.k.k.k.k.k.k.k.k.k.k.k.k.k.k.k.k.k.k.k.k.k.k.k.k.k.k.k.k.k.",
"k.k.k.k.k.k.k.k.k.k.k.k.k.k.k.k.k.k.k.k.k.k.k.k.k.k.k.k.k.k.k.k.k.k.k.k.k.k.k.k.",
"k.k.k.k.k.k.k.k.k.k.k.k.k.k.k.k.k.f K P I N d & k.k.k.k.k.k.k.k.k.k.k.k.k.k.k.k.",
"k.k.k.k.k.k.k.k.k.k.k.k.k.k.k.M ] e.y.u.u.t.6.L x * k.k.k.k.k.k.k.k.k.k.k.k.k.k.",
"k.k.k.k.k.k.k.k.k.k.k.k.k.; U 5.a.j.h.g.d.f.p.4.J V 8 k.k.k.k.k.k.k.k.k.k.k.k.k.",
"k.k.k.k.k.k.k.k.k.k.k.k.- G Q r.s.i.w.q.8.9.7._ W F m 5 k.k.k.k.k.k.k.k.k.k.k.k.",
"k.k.k.k.k.k.k.k.k.k.k.k.B E / 3.0.2.&.=.%.#. .' ~ T A l o k.k.k.k.k.k.k.k.k.k.k.",
"k.k.k.k.k.k.k.k.k.k.k.9 F Q ) | +.=.,.<.:.*.O.} ( E D b 7 k.k.k.k.k.k.k.k.k.k.k.",
"k.k.k.k.k.k.k.k.k.k.k.c F W ) | +.=.,.1.>.*.+.} ( E D b y k.k.k.k.k.k.k.k.k.k.k.",
"k.k.k.k.k.k.k.k.k.k.k.n D E ( { o.$.-.;.=.$.X.[ ^ R S v u k.k.k.k.k.k.k.k.k.k.k.",
"k.k.k.k.k.k.k.k.k.k.k.g A Y ! ` { X.+.@.+...[ ) Q J Z z q k.k.k.k.k.k.k.k.k.k.k.",
"k.k.k.k.k.k.k.k.k.k.k.6 n S T ! ) ' { } { ' ) ! Y S b p 1 k.k.k.k.k.k.k.k.k.k.k.",
"k.k.k.k.k.k.k.k.k.k.k.  j m D Y W ~ ( ( / ~ W Y S b k r + k.k.k.k.k.k.k.k.k.k.k.",
"k.k.k.k.k.k.k.k.k.k.k.k.= a v C A H J Y J H S C z p r % k.k.k.k.k.k.k.k.k.k.k.k.",
"k.k.k.k.k.k.k.k.k.k.k.k.k.: i k v n m m m n v h i w > k.k.k.k.k.k.k.k.k.k.k.k.k.",
"k.k.k.k.k.k.k.k.k.k.k.k.k.k.O 0 u i s s p i t e < @ k.k.k.k.k.k.k.k.k.k.k.k.k.k.",
"k.k.k.k.k.k.k.k.k.k.k.k.k.k.k.k.. $ 2 4 3 , # X k.k.k.k.k.k.k.k.k.k.k.k.k.k.k.k.",
"k.k.k.k.k.k.k.k.k.k.k.k.k.k.k.k.k.k.k.k.k.k.k.k.k.k.k.k.k.k.k.k.k.k.k.k.k.k.k.k.",
"k.k.k.k.k.k.k.k.k.k.k.k.k.k.k.k.k.k.k.k.k.k.k.k.k.k.k.k.k.k.k.k.k.k.k.k.k.k.k.k.",
"k.k.k.k.k.k.k.k.k.k.k.k.k.k.k.k.k.k.k.k.k.k.k.k.k.k.k.k.k.k.k.k.k.k.k.k.k.k.k.k.",
"k.k.k.k.k.k.k.k.k.k.k.k.k.k.k.k.k.k.k.k.k.k.k.k.k.k.k.k.k.k.k.k.k.k.k.k.k.k.k.k.",
"k.k.k.k.k.k.k.k.k.k.k.k.k.k.k.k.k.k.k.k.k.k.k.k.k.k.k.k.k.k.k.k.k.k.k.k.k.k.k.k.",
"k.k.k.k.k.k.k.k.k.k.k.k.k.k.k.k.k.k.k.k.k.k.k.k.k.k.k.k.k.k.k.k.k.k.k.k.k.k.k.k.",
"k.k.k.k.k.k.k.k.k.k.k.k.k.k.k.k.k.k.k.k.k.k.k.k.k.k.k.k.k.k.k.k.k.k.k.k.k.k.k.k.",
"k.k.k.k.k.k.k.k.k.k.k.k.k.k.k.k.k.k.k.k.k.k.k.k.k.k.k.k.k.k.k.k.k.k.k.k.k.k.k.k.",
"k.k.k.k.k.k.k.k.k.k.k.k.k.k.k.k.k.k.k.k.k.k.k.k.k.k.k.k.k.k.k.k.k.k.k.k.k.k.k.k.",
"k.k.k.k.k.k.k.k.k.k.k.k.k.k.k.k.k.k.k.k.k.k.k.k.k.k.k.k.k.k.k.k.k.k.k.k.k.k.k.k.",
"k.k.k.k.k.k.k.k.k.k.k.k.k.k.k.k.k.k.k.k.k.k.k.k.k.k.k.k.k.k.k.k.k.k.k.k.k.k.k.k.",
"k.k.k.k.k.k.k.k.k.k.k.k.k.k.k.k.k.k.k.k.k.k.k.k.k.k.k.k.k.k.k.k.k.k.k.k.k.k.k.k.",
"k.k.k.k.k.k.k.k.k.k.k.k.k.k.k.k.k.k.k.k.k.k.k.k.k.k.k.k.k.k.k.k.k.k.k.k.k.k.k.k."
};
