/* XPM */
static char *result[] = {
/* columns rows colors chars-per-pixel */
"40 40 240 2 ",
"   c #F7B407",
".  c #FAB504",
"X  c #FAB605",
"o  c #FFB800",
"O  c #FFB900",
"+  c #FFBA00",
"@  c #FFBB00",
"#  c #FCBA03",
"$  c #FEBC00",
"%  c #FFBD00",
"&  c #FEBD01",
"*  c #FFBE00",
"=  c #FFBF00",
"-  c #FEBF01",
";  c #F8B907",
":  c #FABD05",
">  c #F6B609",
",  c #F5B40A",
"<  c #F0B30E",
"1  c #F3B60C",
"2  c #F0BB0F",
"3  c #EFB210",
"4  c #EEB412",
"5  c #E9B117",
"6  c #ECB814",
"7  c #EBBD16",
"8  c #EBBF17",
"9  c #ECBD15",
"0  c #E4B11C",
"q  c #E5B31C",
"w  c #E5B91E",
"e  c #DFB522",
"r  c #D6B72C",
"t  c #D5B82F",
"y  c #D7BE2D",
"u  c #D9BB2B",
"i  c #CBAE36",
"p  c #C5AF3C",
"a  c #CCB337",
"s  c #C6B03E",
"d  c #C8B13A",
"f  c #C9B03B",
"g  c #C9B33B",
"h  c #C8B03C",
"j  c #CDBB3C",
"k  c #D1BF37",
"l  c #E0B422",
"z  c #FFC000",
"x  c #FFC100",
"c  c #FFC200",
"v  c #FEC201",
"b  c #FCC303",
"n  c #FFC400",
"m  c #FFC500",
"M  c #FEC501",
"N  c #FFC600",
"B  c #FFC700",
"V  c #F9C206",
"C  c #FFC800",
"Z  c #FFC900",
"A  c #FFCA00",
"S  c #FFCB00",
"D  c #FCC803",
"F  c #FFCC00",
"G  c #FFCD00",
"H  c #FFCE00",
"J  c #FFCF00",
"K  c #FECF01",
"L  c #FDCF03",
"P  c #F9C907",
"I  c #FFCE07",
"U  c #F7C508",
"Y  c #F3C50E",
"T  c #FFD000",
"R  c #FFD100",
"E  c #FFD200",
"W  c #FFD300",
"Q  c #FFD400",
"!  c #FFD500",
"~  c #FFD600",
"^  c gold",
"/  c #FFD800",
"(  c #FFD900",
")  c #FFDA00",
"_  c #FFDB00",
"`  c #FFDA03",
"'  c #FFDC00",
"]  c #FFDF00",
"[  c #EEC914",
"{  c #EFCA16",
"}  c #E7C31B",
"|  c #E5C51F",
" . c #E9C118",
".. c #F2C911",
"X. c #F7CD10",
"o. c #F7CD11",
"O. c #FFE000",
"+. c #FFE100",
"@. c #FFE200",
"#. c #FFE300",
"$. c #FFE400",
"%. c #FFE500",
"&. c #FFE600",
"*. c #FFE700",
"=. c #FFE800",
"-. c #FFE900",
";. c #FFEA00",
":. c #FFEB00",
">. c #FFED00",
",. c #FFEE00",
"<. c #FFEE02",
"1. c #FFF000",
"2. c #FFF100",
"3. c #FFF200",
"4. c #FFF300",
"5. c #FFF500",
"6. c #FFF600",
"7. c #FFF700",
"8. c #FFFA00",
"9. c #FFFB00",
"0. c #FFED12",
"q. c #FFE31F",
"w. c #DEC126",
"e. c #D5C032",
"r. c #E0C323",
"t. c #FCD520",
"y. c #FFDA20",
"u. c #FFDC32",
"i. c #FFDB3F",
"p. c #FFE320",
"a. c #FFEA23",
"s. c #FFE928",
"d. c #FFEA2C",
"f. c #FFED2C",
"g. c #BFAF43",
"h. c #BFB045",
"j. c #BCB048",
"k. c #BDB249",
"l. c #BEB34B",
"z. c #BBB44E",
"x. c #BDB54E",
"c. c #BDB64E",
"v. c #B3B053",
"b. c #B6B151",
"n. c #B4B152",
"m. c #B2B357",
"M. c #B5B557",
"N. c #B6B456",
"B. c #B9B757",
"V. c #BDB950",
"C. c #BEBA50",
"Z. c #BDB852",
"A. c #BFBA52",
"S. c #BAB957",
"D. c #BCB955",
"F. c #BCBA56",
"G. c #BDBB56",
"H. c #B2B358",
"J. c #B3B358",
"K. c #B3B458",
"L. c #B4B458",
"P. c #B5B659",
"I. c #B6B759",
"U. c #B5B65A",
"Y. c #B6B75A",
"T. c #B7B75A",
"R. c #B7B85A",
"E. c #BABB59",
"W. c #B8B85A",
"Q. c #B8B95A",
"!. c #B8B95B",
"~. c #B9BA5B",
"^. c #BBBB5A",
"/. c #BCBD5B",
"(. c #BABA5C",
"). c #BBBB5C",
"_. c #BBBC5C",
"`. c #BBBD5C",
"'. c #BCBD5C",
"]. c #BDBD5C",
"[. c #BDBE5C",
"{. c #BDBE5D",
"}. c #BEBF5D",
"|. c #BEBF5E",
" X c #C1B143",
".X c #C4B141",
"XX c #C4B142",
"oX c #C1B445",
"OX c #C4B845",
"+X c #C1B548",
"@X c #C1B648",
"#X c #C4BB4B",
"$X c #BEC05E",
"%X c #BFC05E",
"&X c #C0C15E",
"*X c #C1C25E",
"=X c #C1C25F",
"-X c #C1C35F",
";X c #C2C35E",
":X c #C2C35F",
">X c #C3C35F",
",X c #C2C45F",
"<X c #C3C45F",
"1X c #FFEF54",
"2X c #FFE35D",
"3X c #C3C560",
"4X c #C3C461",
"5X c #C4C560",
"6X c #C5C560",
"7X c #C4C461",
"8X c #C5C660",
"9X c #C4C661",
"0X c #C5C661",
"qX c #C5C761",
"wX c #C6C761",
"eX c #C7C761",
"rX c #C7C762",
"tX c #C7C961",
"yX c #C7C862",
"uX c #C8C962",
"iX c #C9C962",
"pX c #C8C963",
"aX c #C9CA62",
"sX c #C9CA63",
"dX c #C9CB63",
"fX c #CACB62",
"gX c #CACB63",
"hX c #FFE861",
"jX c #FFE773",
"kX c #FFE872",
"lX c #FFE977",
"zX c #FFF27F",
"xX c #FFED88",
"cX c #FFEF95",
"vX c #FFF39B",
"bX c #FFF3A2",
"nX c #FFF3A4",
"mX c #FFF4A4",
"MX c #FFF4AA",
"NX c #FFF3AE",
/* pixels */
"gXgXgXgXgXgXgXgXgXgXgXgXgXgXgXgXgXgXgXgXgXgXgXgXgXgXgXgXgXgXgXgXgXgXgXgXgXgXgXgX",
"gXgXgXgXgXgXgXgXgXgXgXgXgXgXgXgXgXgXgXgXgXgXgXgXgXgXgXgXgXgXgXgXgXgXgXgXgXgXgXgX",
"gXgXgXgXgXgXgXgXgXgXgXgXgXgXgXgXgXgXgXgXgXgXgXgXgXgXgXgXgXgXgXgXgXgXgXgXgXgXgXgX",
"gXgXgXgXgXgXgXgXgXgXgXgXgXgXgXgXgXgXgXgXgXgXgXgXgXgXgXgXgXgXgXgXgXgXgXgXgXgXgXgX",
"gXgXgXgXgXgXgXgXgXgXgXgXgXgXgXgXgXgXgXgXgXgXgXgXgXgXgXgXgXgXgXgXgXgXgXgXgXgXgXgX",
"gXgXgXgXgXgXgXgXgXgXgXgXgXgXgXgXgXgXgXgXgXgXgXgXgXgXgXgXgXgXgXgXgXgXgXgXgXgXgXgX",
"gXgXgXgXgXgXgXgXgXgXgXgXgXgXgXgXgXgXgXgXgXgXgXgXgXgXgXgXgXgXgXgXgXgXgXgXgXgXgXgX",
"gXgXgXgXgXgXgXgXgXgXgXgXgXgXgXgXgXgXgXgXgXgXgXgXgXgXgXgXgXgXgXgXgXgXgXgXgXgXgXgX",
"gXgXgXgXgXgXgXgXgXgXgXgXgXgXgXgXgXgXgXgXgXgXgXgXgXgXgXgXgXgXgXgXgXgXgXgXgXgXgXgX",
"gXgXgXgXgXgXgXgXgXgXgXgXgXgXgXgXgXgXgXgXgXgXgXgXgXgXgXgXgXgXgXgXgXgXgXgXgXgXgXgX",
"gXgXgXgXgXgXgXgXgXgXgXgXgXgXuXyX8X:X*X&X%X&X=X:X5XyXuXgXgXgXgXgXgXgXgXgXgXgXgXgX",
"gXgXgXgXgXgXgXgXgXgXgXgXaXwX:X%X/.G.A.C.V.Z.F.E._.%X:XwXaXgXgXgXgXgXgXgXgXgXgXgX",
"gXgXgXgXgXgXgXgXgXgXgXuX4X|.^.#Xk | { o.X...} y OXB.(.}.3XuXgXgXgXgXgXgXgXgXgXgX",
"gXgXgXgXgXgXgXgXgXgXuX:X{.S.e.[ t.2XkXlXlXjXi.I Y u c.Q.{.,XuXgXgXgXgXgXgXgXgXgX",
"gXgXgXgXgXgXgXgXgXaX6X[.D.r.L u.cXNXMXmXbXnXxXy.J D 8 @XR.].5XaXgXgXgXgXgXgXgXgX",
"gXgXgXgXgXgXgXgXfXwX%XD.w.K ! hXvXzX1Xf.a.s.p.` Q G B 7 z.W.$XwXgXgXgXgXgXgXgXgX",
"gXgXgXgXgXgXgXgXiX;X'.j P W ( q.d.0.<.2.,.:.$.] ^ R A b r M.`.;XuXgXgXgXgXgXgXgX",
"gXgXgXgXgXgXgXgX0X}.Q. .G ! _ #.-.2.7.8.5.1.=.@.) W F m 2 oXQ.}.wXgXgXgXgXgXgXgX",
"gXgXgXgXgXgXgXgX5X{.Y.U G Q _ #.-.2.7.9.6.1.-.@.) W F m : g I.{.5XgXgXgXgXgXgXgX",
"gXgXgXgXgXgXgXgX<X_.U.M F W ) +.*.>.3.4.2.>.&.O./ E S n & a P._.>XgXgXgXgXgXgXgX",
"gXgXgXgXgXgXgXgX<X'.U.V A T ~ ' +.&.-.;.-.%.O._ ! J Z c # d P.'.>XgXgXgXgXgXgXgX",
"gXgXgXgXgXgXgXgX5X{.Y.9 N S R ~ _ ] +.@.+.] _ ~ T S m * 1  XI.{.8XgXgXgXgXgXgXgX",
"gXgXgXgXgXgXgXgX0X}.W.t v B F T Q ^ ) ) ( ^ Q T S m x + q n.R.}.rXgXgXgXgXgXgXgX",
"gXgXgXgXgXgXgXgXiX-X/.x.w - n C A H J T J H S C c * + < j.L.`.:XaXgXgXgXgXgXgXgX",
"gXgXgXgXgXgXgXgXgXqX%XQ.+X6 % x n N B B B N n z % o , p H.R.%XeXgXgXgXgXgXgXgXgX",
"gXgXgXgXgXgXgXgXgXuX6X[.R.l.e ; $ % = = * % @ O . 5 g.m.R.].8XsXgXgXgXgXgXgXgXgX",
"gXgXgXgXgXgXgXgXgXgXuX:X{.!.N.XXl 4 > X X   3 0 i v.K.Q.[.<XdXgXgXgXgXgXgXgXgXgX",
"gXgXgXgXgXgXgXgXgXgXgXuX7X}.).Y.N.k..Xh f s h.b.J.T.(.}.9XpXgXgXgXgXgXgXgXgXgXgX",
"gXgXgXgXgXgXgXgXgXgXgXgXaXwX:X%X`.~.R.Y.P.Y.R.~._.%X:XtXsXgXgXgXgXgXgXgXgXgXgXgX",
"gXgXgXgXgXgXgXgXgXgXgXgXgXgXaXuX0X<X*X&X%X&X:X<X0XuXsXgXgXgXgXgXgXgXgXgXgXgXgXgX",
"gXgXgXgXgXgXgXgXgXgXgXgXgXgXgXgXgXgXgXgXgXgXgXgXgXgXgXgXgXgXgXgXgXgXgXgXgXgXgXgX",
"gXgXgXgXgXgXgXgXgXgXgXgXgXgXgXgXgXgXgXgXgXgXgXgXgXgXgXgXgXgXgXgXgXgXgXgXgXgXgXgX",
"gXgXgXgXgXgXgXgXgXgXgXgXgXgXgXgXgXgXgXgXgXgXgXgXgXgXgXgXgXgXgXgXgXgXgXgXgXgXgXgX",
"gXgXgXgXgXgXgXgXgXgXgXgXgXgXgXgXgXgXgXgXgXgXgXgXgXgXgXgXgXgXgXgXgXgXgXgXgXgXgXgX",
"gXgXgXgXgXgXgXgXgXgXgXgXgXgXgXgXgXgXgXgXgXgXgXgXgXgXgXgXgXgXgXgXgXgXgXgXgXgXgXgX",
"gXgXgXgXgXgXgXgXgXgXgXgXgXgXgXgXgXgXgXgXgXgXgXgXgXgXgXgXgXgXgXgXgXgXgXgXgXgXgXgX",
"gXgXgXgXgXgXgXgXgXgXgXgXgXgXgXgXgXgXgXgXgXgXgXgXgXgXgXgXgXgXgXgXgXgXgXgXgXgXgXgX",
"gXgXgXgXgXgXgXgXgXgXgXgXgXgXgXgXgXgXgXgXgXgXgXgXgXgXgXgXgXgXgXgXgXgXgXgXgXgXgXgX",
"gXgXgXgXgXgXgXgXgXgXgXgXgXgXgXgXgXgXgXgXgXgXgXgXgXgXgXgXgXgXgXgXgXgXgXgXgXgXgXgX",
"gXgXgXgXgXgXgXgXgXgXgXgXgXgXgXgXgXgXgXgXgXgXgXgXgXgXgXgXgXgXgXgXgXgXgXgXgXgXgXgX"
};
