/* XPM */
static char *_cd46f867da243ca9087b4773ff8d6cem3Dj4Tzv0eSqtIKK[] = {
/* columns rows colors chars-per-pixel */
"40 40 139 2 ",
"   c None",
".  c #020203",
"X  c #03040B",
"o  c #050710",
"O  c #060A16",
"+  c #070B1A",
"@  c #090B1C",
"#  c #0A0F24",
"$  c #051720",
"%  c #0B1026",
"&  c #0D122D",
"*  c #0A1829",
"=  c #0E1634",
"-  c #0A1D33",
";  c #0D1B38",
":  c #101738",
">  c #121D43",
",  c #151E4A",
"<  c #0B2443",
"1  c #0E264B",
"2  c #0E2A4F",
"3  c #16204E",
"4  c #0E374F",
"5  c #142653",
"6  c #182354",
"7  c #152E54",
"8  c #19255A",
"9  c #142C5B",
"0  c #0E355E",
"q  c #14345E",
"w  c #123C5C",
"e  c #1C2761",
"r  c #1E2A67",
"t  c #1D2C6A",
"y  c #0C3C64",
"u  c #133666",
"i  c #17366F",
"p  c #1B326C",
"a  c #163A6B",
"s  c #1D3473",
"d  c #173A74",
"f  c #1F367A",
"g  c #1D3A7D",
"h  c #212F74",
"j  c #203376",
"k  c #21347A",
"l  c #20387F",
"z  c #0F4156",
"x  c #114761",
"c  c #124768",
"v  c #0F4171",
"b  c #104A7B",
"n  c #155875",
"m  c #2E406C",
"M  c #3B4A62",
"N  c #264D71",
"B  c #474D58",
"V  c #414F66",
"C  c #4E5665",
"Z  c #5D667A",
"A  c #1F3E84",
"S  c #243480",
"D  c #283686",
"F  c #243A87",
"G  c #243C89",
"H  c #283888",
"J  c #2A3D93",
"K  c #1C4282",
"L  c #1D458B",
"P  c #1F4690",
"I  c #1E4F9A",
"U  c #1B559E",
"Y  c #195E9F",
"T  c #21438D",
"R  c #29518A",
"E  c #375481",
"W  c #385F86",
"Q  c #214591",
"!  c #284095",
"~  c #214896",
"^  c #224B9B",
"/  c #235393",
"(  c #176384",
")  c #18678A",
"_  c #196D8F",
"`  c #196E91",
"'  c #1D57A3",
"]  c #1E5CAC",
"[  c #2153A5",
"{  c #2056A8",
"}  c #2058A9",
"|  c #1B64B3",
" . c #1969B7",
".. c #176FBC",
"X. c #186CB9",
"o. c #1672BD",
"O. c #1E70BB",
"+. c #3E79BC",
"@. c #4E6689",
"#. c #5B6E8D",
"$. c #597D9E",
"%. c #656F82",
"&. c #637C99",
"*. c #4B79A8",
"=. c #1576C1",
"-. c #137AC5",
";. c #127FC9",
":. c #7C828C",
">. c #6F8196",
",. c #6A819D",
"<. c #4886BB",
"1. c #768EA4",
"2. c #0F85CE",
"3. c #1082CB",
"4. c #0C8CD4",
"5. c #158AD0",
"6. c #0B90D7",
"7. c #0A93DA",
"8. c #0799DF",
"9. c #0898DD",
"0. c #2D83C7",
"q. c #358ECE",
"w. c #238FD1",
"e. c #3391D1",
"r. c #069DE1",
"t. c #05A1E5",
"y. c #03A7EA",
"u. c #599FD4",
"i. c #6199CF",
"p. c #5EA6D8",
"a. c #65A5D7",
"s. c #6EA5D5",
"d. c #6AACDA",
"f. c gray63",
"g. c #ACACAC",
"h. c #B2B2B2",
"j. c #EDEDED",
"k. c #F6F6F6",
"l. c #F9F9F9",
/* pixels */
"                                                                                ",
"                                                                                ",
"                                                                                ",
"                                                                                ",
"                                                                                ",
"                                                                                ",
"                                                                                ",
"                                                                                ",
"                                                                                ",
"                                                                                ",
"                                                                                ",
"                                < 0 v b b b y <                                 ",
"                          @ u U |  .o.-.e.p.d.a.<.N -                           ",
"                        ; L } |  ...-.;.2.5.w.e.u.s.*.0                         ",
"                      ; P [ ] | X.=.;.4.6.7.6.4.;.0.i.*.2                       ",
"                    # p P } ] | ..-.3.4.r.r.r.6.;.-.O.| ' 1                     ",
"                    < l ~ [ ] | o.-.2.7.r.y.r.7.2.-.X.| ] I O                   ",
"                    8 g ^ [ ] | ..=.3.4.9.8.9.4.3.=.X.| ] [ <                   ",
"                  . s g ~ [ } |  .o.;.3.4.4.5.3.-.=. .| } [ 9                   ",
"                  % k g T [ } | | X.-.-.2.3.3.-.=. .| ] } [ 9                   ",
"                o 8 k k g ^ [ } | | o.o.o.=.=.o.X.| ] ] [ ~ 5                   ",
"                & j j k g F K E ,.,.W ' X.` $.1.1.&./ } ^ G s @                 ",
"                8 H k j s g :.l.g.h.k.:.] &.j.f.g.j.%.L A g f 3                 ",
"                6 H 3 3 & 5 m Z B C #.R ] I @.M M V 7 g g G G t                 ",
"                O t O @ , 5 - z w q i A K K d q w ( 4 - A s J S                 ",
"                      X : t s a x n _ ` ) ) ` ` ( c i 9 : = J 8                 ",
"                        X , 8 F ! k > @ $ * 3 6 f L p t e # %                   ",
"                          O X & D r @     O , : 8 r = % &                       ",
"                                X                 @                             ",
"                                                                                ",
"                                                                                ",
"                                                                                ",
"                                                                                ",
"                                                                                ",
"                                                                                ",
"                                                                                ",
"                                                                                ",
"                                                                                ",
"                                                                                ",
"                                                                                "
};
