/* XPM */
static char *result[] = {
/* columns rows colors chars-per-pixel */
"40 40 16 1 ",
"  c #222222",
". c #2B2828",
"X c #352E2E",
"o c #3E3534",
"O c #413735",
"+ c #483B3A",
"@ c #4C3F3B",
"# c #544341",
"$ c #564541",
"% c #5F4B47",
"& c #6B544E",
"* c #775C55",
"= c #97D93F",
"- c #97DA3F",
"; c #417089",
": c #49A790",
/* pixels */
"       X++          +++++++X  ++X       ",
"       X++          +++++++X  ++X       ",
"  .XXXXo++XXXXXXXXXX+++++++oXX++oXXXXO@@",
"  X++++++++++++++++++++++++++++++++++%**",
"  X+++++++++                +++++++++%**",
"++++++++++++                +++++++++%**",
"++++++++++  ;;--------------  +++++++%**",
"++++++++++  ;;--------------  +++++++%**",
"++++++++++  ;;--::::------::  +++++++%**",
"++++++++++  ;;--::::------::  +++++++%**",
"  X+++++++  ;;--    ------    +++++++%**",
"  X+++++++  ;;--    ------    +++++++%**",
"XXo+++++++  ;;--    ------    +++++++%**",
"++++++++++  ;;--    ------    +++++++%**",
"++++++++++  ;;--::::------::  +++++++%**",
"  X+++++++  ;;--::::------::  ++++++++++",
"  X+++++++  ::--  --  --  --::++++++++++",
"  X+++++++  ::--  --  --  --::+++++++#%%",
"  X+++++++    ::      --  ::  +++++++%**",
"  X+++++++    ::      --  ::  +++++++%**",
"  X+++++              ::        ++++++++",
"  X+++++              ::        ++++++++",
"XXo+++                            +++#%%",
"++++++                            +++%**",
"++++      ::      ::                +%**",
"++++      ::      ::                +%**",
"++++      ::  ::  --  ::  ::  ::    +%**",
"XXo+      ::  ::  --  ::  ::  ::    +#%%",
"  X+    ;;;;;;::::--------------    ++++",
"  X+    ;;;;;;::::-------------=    ++++",
"  X+                                ++++",
"  X+                                ++++",
"  X++++++++++++++++++++++++++++++++++#%%",
"  X++++++++++++++++++++++++++++++++++%**",
"  X++++++++++++++++++++++++++++++++++%**",
"  X++++++++++++++++++++++++++++++++++%**",
"  X++++++++++++++++++++++++++++++++++%**",
"@@$%%%%#++++#%%++#%%%%%%%%%#++%%%%%%%&**",
"*******%++++%**++%*********%++**********",
"*******%++++%**++%*********%++**********"
};
