/* XPM */
static char *result[] = {
/* columns rows colors chars-per-pixel */
"40 40 15 1 ",
"  c #222222",
". c #2B2828",
"X c #352E2E",
"o c #37302F",
"O c #3E3534",
"+ c #413735",
"@ c #483B3A",
"# c #4A3D3B",
"$ c #4C3F3B",
"% c #544341",
"& c #564541",
"* c #5F4B47",
"= c #624D48",
"- c #6B544E",
"; c #775C55",
/* pixels */
"       X@@          @@@@@@@X  @@X       ",
"       X@@          @@@@@@@X  @@X       ",
"  .XXXXO@@XXXXXXXXXX@@@@@@@OXX@@OXXXX+$$",
"  X@@@@@@@@@@@@@@@@@@@@@@@@@@@@@@@@@@*;;",
"  X@@@@@@@@@@@@@@@@@@@@@@@@@@@@@@@@@@*;;",
"@@@@@@@@@@@@@@@@@@@@@@@@@@@@@@@@@@@@@*;;",
"@@@@@@@@@@@@@@@@@@@@@@@@@@@@@@@@@@@@@*;;",
"@@@@@@@@@@@@@@@@@@@@@@@@@@@@@@@@@@@@@*;;",
"@@@@@@@@@@@@@@@@@@@@@@@@@@@@@@@@@@@@@*;;",
"@@@@@@@@@@@@@@@@@@@@@@@@@@@@@@@@@@@@@*;;",
"  X@@@@@@@;;;;;;;;;;;;;;;;;;;;@@@@@@@*;;",
"  X@@@@@@@;;;;;;;;;;;;;;;;;;;;@@@@@@@*;;",
"XXO@@*****$$=;;$$$$$;;=$$;;;;;*****@@*;;",
"@@@@@;;;;;  $;;     ;;$  ;;;;;;;;;;@@*;;",
"@@@@@;;;;;  $;;     ;;$  ;;;;;;;;;;@@*;;",
"  $;;;;$    $;;          ;;$  ;;$  ;;*@@",
"  $;;;;$    $;;          ;;$  ;;$  ;;*@@",
"  o$$;;$    o$$          ;;$  $$o  $$&**",
"     ;;$                 ;;$         $;;",
"     ;;$                 ;;$         $;;",
"                                     X@@",
"                                     X@@",
"XX.                                  X@@",
"@@X                                  X@@",
"@@X                                  X@@",
"@@*;;                              ;;;;;",
"@@*;;                              ;;;;;",
"XX#**$$$$$                    $$$$$*****",
"  X@@;;;;;                    ;;;;;@@@@@",
"  X@@;;;;;                    ;;;;;@@@@@",
"  X@@@@@@@;;;;;;;;;;;;;;;;;;;;@@@@@@@@@@",
"  X@@@@@@@;;;;;;;;;;;;;;;;;;;;@@@@@@@@@@",
"  X@@@@@@@********************@@@@@@@%**",
"  X@@@@@@@@@@@@@@@@@@@@@@@@@@@@@@@@@@*;;",
"  X@@@@@@@@@@@@@@@@@@@@@@@@@@@@@@@@@@*;;",
"  X@@@@@@@@@@@@@@@@@@@@@@@@@@@@@@@@@@*;;",
"  X@@@@@@@@@@@@@@@@@@@@@@@@@@@@@@@@@@*;;",
"$$&****%@@@@%**@@%*********%@@*******-;;",
";;;;;;;*@@@@*;;@@*;;;;;;;;;*@@;;;;;;;;;;",
";;;;;;;*@@@@*;;@@*;;;;;;;;;*@@;;;;;;;;;;"
};
