/* XPM */
static char *result[] = {
/* columns rows colors chars-per-pixel */
"40 40 22 1 ",
"  c #222222",
". c #2B2828",
"X c #352E2E",
"o c #37302F",
"O c #3E3534",
"+ c #422228",
"@ c #583125",
"# c #413735",
"$ c #483B3A",
"% c #4A3D3B",
"& c #4C3F3B",
"* c #62232F",
"= c #734123",
"- c #544341",
"; c #564541",
": c #5F4B47",
"> c #6B544E",
", c #775C55",
"< c #8F4029",
"1 c #894F30",
"2 c #9E5E3D",
"3 c #C56025",
/* pixels */
"       X$$          $$$$$$$X  $$X       ",
"       X$$          $$$$$$$X  $$X       ",
"  .XXXXO$$XXXXXXXXXX$$$$$$$OXX$$OXXXX#&&",
"  X$$$$$$$$$$$$$$$$$$$$$$$$$$$$$$$$$$:,,",
"  X$$$$$$$$$$$$$$$$$$$$$$$$$$$$$$$$$$:,,",
"$$$$$$$$$$$$$$$$$$$$$$$$$$$$$$$$$$$$$:,,",
"$$$$$$$$$$$$$$$$$$$$$$$$$$$$$$$$$$$$$:,,",
"$$$$$$$$$$$$$$$$$$$$$$$$$$$$$$$$$$$$$:,,",
"$$$$$$$$$$$$$$$$$$$$$$$$$$$$$$$$$$$$$:,,",
"$$$$$$$$$$$$$$$$$$$$$$$$$$$$$$$$$$$$$:,,",
"  X$$$$$$$332,,,,,,,,,,,,,,233$$$$$$$:,,",
"  X$$$$$$$332,,,,,,,,,,,,,,233$$$$$$$:,,",
"XXO$$:::::331&&2222222222,,233:::::$$:,,",
"$$$$$,,,,,33=  3333333333,,233,,,,,$$:,,",
"$$$$$,,,,,33=  3333333333,,233,,,,,$$:,,",
"  &,,,,&  33=              =33,,&  ,,:$$",
"  &,,,,&  33=              =33,,&  ,,:$$",
"  o&&,,&  33=  ==========  =33&&o  &&;::",
"     ,,&  33=  3333333333  =33       &,,",
"     ,,&  33=  3333333333  =33       &,,",
"          <<@              @<<       X$$",
"          <<@              @<<       X$$",
"XX.       <<@  @@@@@@@@@@  @<<       X$$",
"$$X       <<@  <<<<<<<<<<  @<<       X$$",
"$$X       <<@  <<<<<<<<<<  @<<       X$$",
"$$:,,     **+              +**     ,,,,,",
"$$:,,     **+              +**     ,,,,,",
"XX%::&&&&&**+  ++++++++++  +**&&&&&:::::",
"  X$$,,,,,**+  **********  +**,,,,,$$$$$",
"  X$$,,,,,**+  **********  +**,,,,,$$$$$",
"  X$$$$$$$,,,,,,,,,,,,,,,,,,,,$$$$$$$$$$",
"  X$$$$$$$,,,,,,,,,,,,,,,,,,,,$$$$$$$$$$",
"  X$$$$$$$::::::::::::::::::::$$$$$$$-::",
"  X$$$$$$$$$$$$$$$$$$$$$$$$$$$$$$$$$$:,,",
"  X$$$$$$$$$$$$$$$$$$$$$$$$$$$$$$$$$$:,,",
"  X$$$$$$$$$$$$$$$$$$$$$$$$$$$$$$$$$$:,,",
"  X$$$$$$$$$$$$$$$$$$$$$$$$$$$$$$$$$$:,,",
"&&;::::-$$$$-::$$-:::::::::-$$:::::::>,,",
",,,,,,,:$$$$:,,$$:,,,,,,,,,:$$,,,,,,,,,,",
",,,,,,,:$$$$:,,$$:,,,,,,,,,:$$,,,,,,,,,,"
};
