/* XPM */
static char *result[] = {
/* columns rows colors chars-per-pixel */
"40 40 179 2 ",
"   c #670201",
".  c #660B00",
"X  c #6A1808",
"o  c #682B01",
"O  c #683703",
"+  c #783304",
"@  c #752813",
"#  c #713014",
"$  c #7C391C",
"%  c #664300",
"&  c #664B00",
"*  c #665500",
"=  c #685604",
"-  c #6A6C07",
";  c #667600",
":  c #697C00",
">  c #727803",
",  c #7C7B43",
"<  c #981800",
"1  c #8F3A00",
"2  c #A22B00",
"3  c #8C362C",
"4  c #D52800",
"5  c #CD3201",
"6  c #DF3F0B",
"7  c #E43703",
"8  c #EC3401",
"9  c #E43B06",
"0  c #E93A04",
"q  c #F33300",
"w  c #FB3400",
"e  c #F53803",
"r  c #FE3C00",
"t  c #814B06",
"y  c #805200",
"u  c #AA5B00",
"i  c #A57B00",
"p  c #B67D01",
"a  c #B47F14",
"s  c #8B582B",
"d  c #9D652F",
"f  c #86722A",
"g  c #886D38",
"h  c #986B33",
"j  c #8E7938",
"k  c #937A3D",
"l  c #AC642B",
"z  c #B6702E",
"x  c #A26F33",
"c  c #A47436",
"v  c #AE7533",
"b  c #B67933",
"n  c #DB4B08",
"m  c #D75A00",
"M  c #C64D17",
"N  c #D94E13",
"B  c #D25016",
"V  c #E3450C",
"C  c #EB410A",
"Z  c #F14600",
"A  c #FE4300",
"S  c #F04F00",
"D  c #FE4B01",
"F  c #F54E0D",
"G  c #E65F00",
"H  c #F55700",
"J  c #FE5300",
"K  c #F35B00",
"L  c #FF5902",
"P  c #E24912",
"I  c #F24E12",
"U  c #E45818",
"Y  c #F65615",
"T  c #C96603",
"R  c #DF6D0A",
"E  c #D27400",
"W  c #E56900",
"Q  c #E46A00",
"!  c #FB6400",
"~  c #F16F00",
"^  c #FE6C00",
"/  c #F57200",
"(  c #F8601C",
")  c #CF6723",
"_  c #D76D28",
"`  c #D9742B",
"'  c #C87F34",
"]  c #E76A21",
"[  c #FF7B2A",
"{  c #FC7336",
"}  c #668500",
"|  c #668C00",
" . c #7C8F00",
".. c #669300",
"X. c #6B9600",
"o. c #669900",
"O. c #6A9903",
"+. c #6F990A",
"@. c #719300",
"#. c #7C9301",
"$. c #78950A",
"%. c #719D0C",
"&. c #728214",
"*. c #769C15",
"=. c #7DA219",
"-. c #8D8300",
";. c #8E8800",
":. c #998300",
">. c #9A8B00",
",. c #819200",
"<. c #8A9100",
"1. c #A88700",
"2. c #B38500",
"3. c #849C24",
"4. c #8E8E39",
"5. c #A9992E",
"6. c #A48F36",
"7. c #BC8C3E",
"8. c #BD973D",
"9. c #8CA827",
"0. c #9DB03B",
"q. c #CC8300",
"w. c #C49927",
"e. c #CA883A",
"r. c #D3893A",
"t. c #D5903D",
"y. c #848245",
"u. c #8A8746",
"i. c #8C8C48",
"p. c #998643",
"a. c #94944B",
"s. c #9B9B4E",
"d. c #9F9F50",
"f. c #A58C43",
"g. c #B18F42",
"h. c #A39B4C",
"j. c #B39E4B",
"k. c #ACA14F",
"l. c #A7AE4D",
"z. c #BCAA41",
"x. c #AFB94C",
"c. c #A3A451",
"v. c #A7A852",
"b. c #ABAB55",
"n. c #B8AF55",
"m. c #AFB156",
"M. c #B0B157",
"N. c #B3B855",
"B. c #B4B559",
"V. c #B7B85A",
"C. c #BBBC5C",
"Z. c #CC9C46",
"A. c #C69E48",
"S. c #D89942",
"D. c #FF8F5F",
"F. c #FF915E",
"G. c #C6A64A",
"H. c #CFAB4F",
"J. c #D3A34A",
"K. c #D2AA4D",
"L. c #CCB857",
"P. c #C6BC5A",
"I. c #C1806A",
"U. c #FF9566",
"Y. c #FB9C73",
"T. c #DBB168",
"R. c #F5A76E",
"E. c #EBBD7E",
"W. c #BFC05D",
"Q. c #C1C25F",
"!. c #C5C660",
"~. c #C8C761",
"^. c #C7C862",
"/. c #CACB63",
"(. c #FFB992",
"). c #DAC387",
"_. c #EBC696",
"`. c #FCC098",
"'. c #FCC9A2",
/* pixels */
"/./././././././././././././././././././././././././././././././././././././././.",
"/./././././././././././././././././././././././././././././././././././././././.",
"/./././././././././././././././././././././././././././././././././././././././.",
"/./././././././././././././././././././././././././././././././././././././././.",
"/./././././././././././././././././././././././././././././././././././././././.",
"/./././././././././././././././././././././././././././././././././././././././.",
"/./././././././././././././././././././././././././././././././././././././././.",
"/./././././././././././././././././.^.!.!.!.!.!.!./././././././././././././././.",
"/./././././././././././././.^.!.!.Q.Q.Q.V.Q.Q.Q.Q.Q.!.!././././././././././././.",
"/././././././././././././.!.!.W.C.C.V.V.V.B.B.V.V.C.C.W.!.!.^./././././././././.",
"/./././././././././././.!.Q.C.C.B.k.s h M.M.M.M.B.n.A.Z.G.P.!./././././././././.",
"/././././././././././.!.W.C.V.B.M.f.    p.v.v.k._ F Y { { ( ] H././././././././.",
"/./././././././././.!.W.C.V.M.b.b.d.@   f 9.3.T Z K R.'.'.(.F.( S./././././././.",
"/././././././././.!.W.V.m.l.l.v.c.c.$ % : } } i H p 9.z.G.E._.U.F J././././././.",
"/././././././././.W.0.=.%.%.%.*.=.4.# - } @.u 5 2 + % : #.#.w.[ A I ~./././././.",
"/./././././././.W.=.o...| ; * & = = O - &.1 < 1 y & X O o.o.2.! A w H./././././.",
"/././././././.^.9.o.} } } ..o.o.| - # @ $ 4 w 0 m @.} : o.X.2.! A w t./././././.",
"/././././././.~.%.+.+.O.o.o.o...> j u.y.k q q r G #.1.>.>.,.:.H r w t.!././././.",
"/././././././.!.x.N.8.T a 5.6.+ 5 P k y.y.8 q w D T G / ~ ! K A w q J.!././././.",
"/././././././.!.C.r.D D._.).I.3 Y.r e l , M q q w r D J J D A w q 0 C.!././././.",
"/././././././.!.Z.r L `.T.$.o t Q T r w d g 7 8 q w w r r w w q 0 e.C.!././././.",
"/././././././.^.Y D Q 1.,.} . O %.;.A w 6 , h 7 8 q q q q q q 8 ' V.C.^././././.",
"/././././././.L.w J E 2.,.| o * o. .S w q j , k M 7 8 8 8 0 N 7.M.C.W.^././././.",
"/././././././.K.w D K Q <.o.@...o.-.Z w q x u.u.i.k v z b g.k.b.B.V.!.^././././.",
"/././././././.K.w r J ^ >.1.q.2.p i n w 8 c u.i.a.a.a.s.c.c.b.M.B.C.!.^././././.",
"/././././././.~.e w A L W R ^ ! L A w q 8 p.a.a.a.a.s.c.c.v.b.B.C.C.!.^././././.",
"/./././././././.] w w A D J J D A w q q B a.a.s.s.s.c.c.b.b.M.V.C.!.^./././././.",
"/./././././././.L.C q w w w w w q q 8 0 f.d.d.d.h.c.c.b.b.M.B.C.Q.^././././././.",
"/././././././././.H.U q q q q q q 8 N g.c.c.c.c.c.b.b.M.B.B.C.Q.^.^././././././.",
"/./././././././././.L.` V 0 9 9 n ) j.k.b.v.v.b.b.b.M.M.V.C.C.!././././././././.",
"/././././././././././.^.P.H.A.A.n.B.B.M.M.M.M.M.B.B.B.C.C.Q.!./././././././././.",
"/./././././././././././.^.^.!.W.P.C.V.V.V.V.B.B.C.C.C.Q.!.!././././././././././.",
"/./././././././././././././././.~.Q.P.W.W.C.C.C.!.Q.!.!././././././././././././.",
"/./././././././././././././././././.^.!.!.!.!.^.^.^././././././././././././././.",
"/./././././././././././././././././././.^./././././././././././././././././././.",
"/./././././././././././././././././././././././././././././././././././././././.",
"/./././././././././././././././././././././././././././././././././././././././.",
"/./././././././././././././././././././././././././././././././././././././././.",
"/./././././././././././././././././././././././././././././././././././././././.",
"/./././././././././././././././././././././././././././././././././././././././."
};
