/* XPM */
static char *result[] = {
/* columns rows colors chars-per-pixel */
"40 40 132 2 ",
"   c #5D0101",
".  c #5D0F02",
"X  c #640001",
"o  c #660A02",
"O  c #661300",
"+  c #573302",
"@  c #53340A",
"#  c #562417",
"$  c #582114",
"%  c #642700",
"&  c #692601",
"*  c #662F00",
"=  c #7C280F",
"-  c #663700",
";  c #663A00",
":  c #743507",
">  c #7B3100",
",  c #664300",
"<  c #684200",
"1  c #664B00",
"2  c #665400",
"3  c #645B01",
"4  c #5D7201",
"5  c #557E03",
"6  c #656A00",
"7  c #667000",
"8  c #6F7600",
"9  c #667D00",
"0  c #697C00",
"q  c #981800",
"w  c #81240C",
"e  c #942608",
"r  c #9C290B",
"t  c #8E3700",
"y  c #8E3C00",
"u  c #812710",
"i  c #A12604",
"p  c #A22B00",
"a  c #A82905",
"s  c #8C362C",
"d  c #C42E05",
"f  c #D32C01",
"g  c #CD3101",
"h  c #D33001",
"j  c #DD3100",
"k  c #E43201",
"l  c #EC3300",
"z  c #F33300",
"x  c #FB3400",
"c  c #FD3C00",
"v  c #814B06",
"b  c #805200",
"n  c #AA5B00",
"m  c #BD5500",
"M  c #A67400",
"N  c #A07D00",
"B  c #AA7F00",
"V  c #B67D01",
"C  c #B97B00",
"Z  c #B47F14",
"A  c #D94E00",
"S  c #CD5A00",
"D  c #D75A00",
"F  c #ED4200",
"G  c #F14600",
"H  c #FE4300",
"J  c #F04F00",
"K  c #FE4B00",
"L  c #E65F00",
"P  c #EB5E00",
"I  c #F55700",
"U  c #FE5300",
"Y  c #F35B00",
"T  c #FF5902",
"R  c #FD4F13",
"E  c #FD5412",
"W  c #C26500",
"Q  c #CD6800",
"!  c #DF6D0A",
"~  c #D27400",
"^  c #E06500",
"/  c #E46A00",
"(  c #E96C00",
")  c #FB6400",
"_  c #F16F00",
"`  c #FE6C00",
"'  c #F57200",
"]  c #FF7B2A",
"[  c #FF6F33",
"{  c #578102",
"}  c #5F8302",
"|  c #668500",
" . c #668C00",
".. c #6A8A00",
"X. c #7C8F00",
"o. c #649400",
"O. c #6B9600",
"+. c #669900",
"@. c #689800",
"#. c #719300",
"$. c #7C9301",
"%. c #78950A",
"&. c #8D8300",
"*. c #8E8800",
"=. c #998300",
"-. c #9A8B00",
";. c #819200",
":. c #8A9100",
">. c #A78200",
",. c #A88B00",
"<. c #B38500",
"1. c #A9992E",
"2. c #A48F36",
"3. c #8DA528",
"4. c #CC8300",
"5. c #C49927",
"6. c #BCAA41",
"7. c #FF8F5F",
"8. c #FF915E",
"9. c #C2AD45",
"0. c #C1806A",
"q. c #FF9566",
"w. c #FB9C73",
"e. c #DBB168",
"r. c #F5A76E",
"t. c #EBBD7E",
"y. c #FFB992",
"u. c #DAC387",
"i. c #EBC696",
"p. c #FCC098",
"a. c #FCC9A2",
"s. c None",
/* pixels */
"s.s.s.s.s.s.s.s.s.s.s.s.s.s.s.s.s.s.s.s.s.s.s.s.s.s.s.s.s.s.s.s.s.s.s.s.s.s.s.s.",
"s.s.s.s.s.s.s.s.s.s.s.s.s.s.s.s.s.s.s.s.s.s.s.s.s.s.s.s.s.s.s.s.s.s.s.s.s.s.s.s.",
"s.s.s.s.s.s.s.s.s.s.s.s.s.s.s.s.s.s.s.s.s.s.s.s.s.s.s.s.s.s.s.s.s.s.s.s.s.s.s.s.",
"s.s.s.s.s.s.s.s.s.s.s.s.s.s.s.s.s.s.s.s.s.s.s.s.s.s.s.s.s.s.s.s.s.s.s.s.s.s.s.s.",
"s.s.s.s.s.s.s.s.s.s.s.s.s.s.s.s.s.s.s.s.s.s.s.s.s.s.s.s.s.s.s.s.s.s.s.s.s.s.s.s.",
"s.s.s.s.s.s.s.s.s.s.s.s.s.s.s.s.s.s.s.s.s.s.s.s.s.s.s.s.s.s.s.s.s.s.s.s.s.s.s.s.",
"s.s.s.s.s.s.s.s.s.s.s.s.s.s.s.s.s.s.s.s.s.s.s.s.s.s.s.s.s.s.s.s.s.s.s.s.s.s.s.s.",
"s.s.s.s.s.s.s.s.s.s.s.s.s.s.s.s.s.s.s.s.s.s.s.s.s.s.s.s.s.s.s.s.s.s.s.s.s.s.s.s.",
"s.s.s.s.s.s.s.s.s.s.s.s.s.s.s.s.s.s.s.s.s.s.s.s.s.s.s.s.s.s.s.s.s.s.s.s.s.s.s.s.",
"s.s.s.s.s.s.s.s.s.s.s.s.s.s.s.s.s.s.s.s.s.s.s.s.s.s.s.s.s.s.s.s.s.s.s.s.s.s.s.s.",
"s.s.s.s.s.s.s.s.s.s.s.s.s.s.s.s.s.s.  s.s.s.s.s.s.s.s.s.s.s.s.s.s.s.s.s.s.s.s.s.",
"s.s.s.s.s.s.s.s.s.s.s.s.s.s.s.s.s.s.X X s.s.s.s.k c E [ [ E c s.s.s.s.s.s.s.s.s.",
"s.s.s.s.s.s.s.s.s.s.s.s.s.s.s.s.s.s.X X + { } m H Y r.a.a.y.8.R s.s.s.s.s.s.s.s.",
"s.s.s.s.s.s.s.s.s.s.s.s.s.s.s.s.s.s.  < 9 | ..M I V 3.6.9.t.i.q.c s.s.s.s.s.s.s.",
"s.s.s.s.s.s.s.s.s.s.s.o.o.+.o.o.{ s.% 6 | O.n j p > , 0 $.$.5.] H x s.s.s.s.s.s.",
"s.s.s.s.s.s.s.s.s.o.+.o. .7 2 1 2 2 ; 3 7 t q y 2 1 O ; +.@.<.) H x s.s.s.s.s.s.",
"s.s.s.s.s.s.s.s.+.o.| | |  .+.O.o.6 .   o f x l D O...9 o.O.<.) H x s.s.s.s.s.s.",
"s.s.s.s.s.s.s.s.+.o.+.+.+.+.+.o.8 @ s.s.s.z x c ^ $.>.-.-.;.=.I c x s.s.s.s.s.s.",
"s.s.s.s.s.s.s.s.s.s.s.S <.2.2.: g k u s.s.l z x K W P ' _ ` Y H x z s.s.s.s.s.s.",
"s.s.s.s.s.s.s.s.s.s.H q.i.u.0.s w.c x r s.d z x x c K U U K H x z l s.s.s.s.s.s.",
"s.s.s.s.s.s.s.s.s.c T p.e.%.& v / Q c x u # k l z x x c x x x z z s.s.s.s.s.s.s.",
"s.s.s.s.s.s.s.s.x K / ,.;.0 o < @.*.H x k s.= k l z z z z z z l s.s.s.s.s.s.s.s.",
"s.s.s.s.s.s.s.s.x K ~ <.;. .* 3 +.%.J x z $ s.s.d k l l l k j s.s.s.s.s.s.s.s.s.",
"s.s.s.s.s.s.s.s.x K Y ( :.@.#.o.+.&.G x z u s.s.s.s.e a i s.s.s.s.s.s.s.s.s.s.s.",
"s.s.s.s.s.s.s.s.x c U ` -.>.4.V V >.A x z w s.s.s.s.s.s.s.s.s.s.s.s.s.s.s.s.s.s.",
"s.s.s.s.s.s.s.s.z x H T / / ` ) U H x z l s.s.s.s.s.s.s.s.s.s.s.s.s.s.s.s.s.s.s.",
"s.s.s.s.s.s.s.s.l x x H K U U K H x z z h s.s.s.s.s.s.s.s.s.s.s.s.s.s.s.s.s.s.s.",
"s.s.s.s.s.s.s.s.s.z z x c x x x x z l k s.s.s.s.s.s.s.s.s.s.s.s.s.s.s.s.s.s.s.s.",
"s.s.s.s.s.s.s.s.s.s.l z z z z z l l j s.s.s.s.s.s.s.s.s.s.s.s.s.s.s.s.s.s.s.s.s.",
"s.s.s.s.s.s.s.s.s.s.s.k l l k l k h s.s.s.s.s.s.s.s.s.s.s.s.s.s.s.s.s.s.s.s.s.s.",
"s.s.s.s.s.s.s.s.s.s.s.s.s.s.s.s.s.s.s.s.s.s.s.s.s.s.s.s.s.s.s.s.s.s.s.s.s.s.s.s.",
"s.s.s.s.s.s.s.s.s.s.s.s.s.s.s.s.s.s.s.s.s.s.s.s.s.s.s.s.s.s.s.s.s.s.s.s.s.s.s.s.",
"s.s.s.s.s.s.s.s.s.s.s.s.s.s.s.s.s.s.s.s.s.s.s.s.s.s.s.s.s.s.s.s.s.s.s.s.s.s.s.s.",
"s.s.s.s.s.s.s.s.s.s.s.s.s.s.s.s.s.s.s.s.s.s.s.s.s.s.s.s.s.s.s.s.s.s.s.s.s.s.s.s.",
"s.s.s.s.s.s.s.s.s.s.s.s.s.s.s.s.s.s.s.s.s.s.s.s.s.s.s.s.s.s.s.s.s.s.s.s.s.s.s.s.",
"s.s.s.s.s.s.s.s.s.s.s.s.s.s.s.s.s.s.s.s.s.s.s.s.s.s.s.s.s.s.s.s.s.s.s.s.s.s.s.s.",
"s.s.s.s.s.s.s.s.s.s.s.s.s.s.s.s.s.s.s.s.s.s.s.s.s.s.s.s.s.s.s.s.s.s.s.s.s.s.s.s.",
"s.s.s.s.s.s.s.s.s.s.s.s.s.s.s.s.s.s.s.s.s.s.s.s.s.s.s.s.s.s.s.s.s.s.s.s.s.s.s.s.",
"s.s.s.s.s.s.s.s.s.s.s.s.s.s.s.s.s.s.s.s.s.s.s.s.s.s.s.s.s.s.s.s.s.s.s.s.s.s.s.s.",
"s.s.s.s.s.s.s.s.s.s.s.s.s.s.s.s.s.s.s.s.s.s.s.s.s.s.s.s.s.s.s.s.s.s.s.s.s.s.s.s."
};
