/* XPM */
static char *result[] = {
/* columns rows colors chars-per-pixel */
"40 40 2 1 ",
"  c #222222",
". c #AA8D7A",
/* pixels */
"                                        ",
"                                        ",
"                                        ",
"                                        ",
"                                        ",
"                                        ",
"                                        ",
"                                        ",
"                                        ",
"                                        ",
"            .. ...                      ",
"            .. ...                      ",
"         ..    ...                      ",
"         ..        ... ..               ",
"       ..   ....   ... .. ..            ",
"       ..  ......  ...    ..            ",
"          ........    ..    ..          ",
"       . .........   .....  ..          ",
"         ........   .......             ",
"         .......    ........ .          ",
"          .....     ........            ",
"          .....      .......            ",
"           .....      ......            ",
"           ......     .....             ",
"            ......   ......             ",
"             ..... .......              ",
"              ... .......               ",
"                  ......                ",
"                   ....                 ",
"                                        ",
"                                        ",
"                                        ",
"                                        ",
"                                        ",
"                                        ",
"                                        ",
"                                        ",
"                                        ",
"                                        ",
"                                        "
};
