/* XPM */
static char *result[] = {
/* columns rows colors chars-per-pixel */
"40 40 18 1 ",
"  c black",
". c #020202",
"X c #040404",
"o c #090909",
"O c gray4",
"+ c #0C0C0C",
"@ c gray5",
"# c gray6",
"$ c #111111",
"% c #131313",
"& c #151515",
"* c #161616",
"= c gray9",
"- c #191919",
"; c #1D1D1D",
": c #1E1E1E",
"> c #202020",
", c #222222",
/* pixels */
",,,,,,,,,,,,,,,,,,,,,,,,,,,,,,,,,,,,,,,,",
",,,,,,,,,,,,,,,,,,,,,,,,,,,,,,,,,,,,,,,,",
",,,,,,,,,,,,,,,,,,,,,,,,,,,,,,,,,,,,,,,,",
",,,,,,,,,,,,,,,,,,,,,,,,,,,,,,,,,,,,,,,,",
",,,,,,,,,,,,,,,,,,,,,,,,,,,,,,,,,,,,,,,,",
",,,,,,,,,,,,,,,,,,,,,,,,,,,,,,,,,,,,,,,,",
",,,,,,,,,,,,,,,,,,,,,,,,,,,,,,,,,,,,,,,,",
",,,,,,,,,,,,,,,,,,,,,,,,,,,,,,,,,,,,,,,,",
",,,,,,,,,,>-----,,,,,,,,-----;,,,,,,,,,,",
",,,,,,,,,,*     ,,,,,,,,     &,,,,,,,,,,",
",,,,,,,,,,*     ,,,,,,,,     &,,,,,,,,,,",
",,,,,,,,$$O     $$=,,=$$     O$$,,,,,,,,",
",,,,,,,,          +,,@          ,,,,,,,,",
",,,,,,,,          +,,@          ,,,,,,,,",
",,,,,#XX          .XX.          XX#,,,,,",
",,,,,@                            +,,,,,",
",,,,,@                            +,,,,,",
",,,,,@                            +,,,,,",
",,,,,@                            +,,,,,",
",,,,,=$$                        $$=,,,,,",
",,,,,,,,                        ,,,,,,,,",
",,,,,,,,                        ,,,,,,,,",
",,,,,,,,::%                  %::,,,,,,,,",
",,,,,,,,,,*                  &,,,,,,,,,,",
",,,,,,,,,,=ooX            .oo-,,,,,,,,,,",
",,,,,,,,,,,,,@            +,,,,,,,,,,,,,",
",,,,,,,,,,,,,@            +,,,,,,,,,,,,,",
",,,,,,,,,,,,,=$$        $$=,,,,,,,,,,,,,",
",,,,,,,,,,,,,,,,        ,,,,,,,,,,,,,,,,",
",,,,,,,,,,,,,,,,        ,,,,,,,,,,,,,,,,",
",,,,,,,,,,,,,,,,::%  %::,,,,,,,,,,,,,,,,",
",,,,,,,,,,,,,,,,,,*  &,,,,,,,,,,,,,,,,,,",
",,,,,,,,,,,,,,,,,,=oo-,,,,,,,,,,,,,,,,,,",
",,,,,,,,,,,,,,,,,,,,,,,,,,,,,,,,,,,,,,,,",
",,,,,,,,,,,,,,,,,,,,,,,,,,,,,,,,,,,,,,,,",
",,,,,,,,,,,,,,,,,,,,,,,,,,,,,,,,,,,,,,,,",
",,,,,,,,,,,,,,,,,,,,,,,,,,,,,,,,,,,,,,,,",
",,,,,,,,,,,,,,,,,,,,,,,,,,,,,,,,,,,,,,,,",
",,,,,,,,,,,,,,,,,,,,,,,,,,,,,,,,,,,,,,,,",
",,,,,,,,,,,,,,,,,,,,,,,,,,,,,,,,,,,,,,,,"
};
