/* XPM */
static char *result[] = {
/* columns rows colors chars-per-pixel */
"40 40 36 1 ",
"  c black",
". c #040404",
"X c #090909",
"o c gray4",
"O c #0C0C0C",
"+ c gray5",
"@ c gray6",
"# c #1B0A07",
"$ c #111111",
"% c #131313",
"& c #151515",
"* c #161616",
"= c gray9",
"- c #191919",
"; c #1D1D1D",
": c #1E1E1E",
"> c #37130E",
", c #201817",
"< c #211917",
"1 c #341915",
"2 c #202020",
"3 c #222222",
"4 c #441812",
"5 c #521D15",
"6 c #62241A",
"7 c #6D271C",
"8 c #712B20",
"9 c #7D2E21",
"0 c #883123",
"q c #953527",
"w c #963626",
"e c #963627",
"r c #A33A2A",
"t c #BE4431",
"y c #CC4934",
"u c #DA4E38",
/* pixels */
"3333333333333333333333333333333333333333",
"3333333333333333333333333333333333333333",
"3333333333333333333333333333333333333333",
"3333333333333333333333333333333333333333",
"3333333333333333333333333333333333333333",
"3333333333333333333333333333333333333333",
"3333333333333333333333333333333333333333",
"3333333333333333333333333333333333333333",
"33333333332-----33333333-----;3333333333",
"3333333333*     33333333     &3333333333",
"3333333333*     33333333     &3333333333",
"33333333$$177777$$=33=$$774  o$$33333333",
"33333333  5uuuuu  O33+  uu0     33333333",
"33333333  5uuuuu  O33+  uu0     33333333",
"33333@..ttyuuuuutt9..9ttuu0     ..@33333",
"33333+  uuuuuuuuuu0  0uuuu0       O33333",
"33333+  uuuuuuuuuuq>>ruuuu0       O33333",
"33333+  uuuuuuuuuuuuuuuuuu0       O33333",
"33333+  uuuuuuuuuuuuuuuuuu0       O33333",
"33333=$$77wuuuuuuuuuuuuuuu0     $$=33333",
"33333333  5uuuuuuuuuuuuuuu0     33333333",
"33333333  5uuuuuuuuuuuuuuu0     33333333",
"33333333::<##euuuuuuuuuuuu0  %::33333333",
"3333333333*  0uuuuuuuuuuuu0  &3333333333",
"3333333333=XX8rruuuuuuuurr6XX-3333333333",
"3333333333333+  uuuuuuuu  O3333333333333",
"3333333333333+  uuuuuuuu  O3333333333333",
"3333333333333=$$77wuuq77$$=3333333333333",
"3333333333333333  5uu5  3333333333333333",
"3333333333333333  5uu5  3333333333333333",
"3333333333333333::<##,::3333333333333333",
"333333333333333333*  &333333333333333333",
"333333333333333333=XX-333333333333333333",
"3333333333333333333333333333333333333333",
"3333333333333333333333333333333333333333",
"3333333333333333333333333333333333333333",
"3333333333333333333333333333333333333333",
"3333333333333333333333333333333333333333",
"3333333333333333333333333333333333333333",
"3333333333333333333333333333333333333333"
};
