/* XPM */
static char *result[] = {
/* columns rows colors chars-per-pixel */
"40 40 153 2 ",
"   c #0B0807",
".  c #1C0B01",
"X  c #2C0F00",
"o  c #201F0F",
"O  c #341606",
"+  c #281B1F",
"@  c #372C16",
"#  c #1D1028",
"$  c #3A152D",
"%  c #2C193A",
"&  c #302436",
"*  c #471000",
"=  c #4B180D",
"-  c #5C1E07",
";  c #5D130F",
":  c #441B14",
">  c #681807",
",  c #761806",
"<  c #671712",
"1  c #46280F",
"2  c #5C200C",
"3  c #4F3F00",
"4  c #4D271A",
"5  c #5A2E12",
"6  c #473719",
"7  c #672401",
"8  c #782800",
"9  c #693900",
"0  c #633012",
"q  c #763A15",
"w  c #5A192C",
"e  c #541A3E",
"r  c #730F26",
"t  c #631A2C",
"y  c #69083E",
"u  c #74202E",
"i  c #4D4502",
"p  c #5C5418",
"a  c #795300",
"s  c #726D00",
"d  c #4D4A23",
"f  c #565328",
"g  c #5B572B",
"h  c #584A33",
"j  c #6E4E23",
"k  c #755D2B",
"l  c #6F612D",
"z  c #78612D",
"x  c #7F7624",
"c  c #6E6B33",
"v  c #737139",
"b  c #7C7C3C",
"n  c #2A164B",
"m  c #381858",
"M  c #342250",
"N  c #3B1D74",
"B  c #3D2465",
"V  c #530846",
"C  c #591C49",
"Z  c #570152",
"A  c #511D54",
"S  c #6C174F",
"D  c #441D68",
"F  c #660363",
"G  c #690764",
"H  c #70006E",
"J  c #7A0079",
"K  c #432177",
"L  c #5F5940",
"P  c #811B02",
"I  c #8A1A09",
"U  c #941E01",
"Y  c #9A1F02",
"T  c #86181B",
"R  c #892204",
"E  c #892D00",
"W  c #962303",
"Q  c #942E06",
"!  c #9E2800",
"~  c #883200",
"^  c #963200",
"/  c #A42204",
"(  c #A82200",
")  c #A32904",
"_  c #B52401",
"`  c #BB2501",
"'  c #892323",
"]  c #C32700",
"[  c #C42901",
"{  c #CC2900",
"}  c #D32B00",
"|  c #DA2C00",
" . c #D6360F",
".. c #E52E00",
"X. c #EB2F00",
"o. c #F43100",
"O. c #FF3300",
"+. c #845C00",
"@. c #9C4919",
"#. c #866B03",
"$. c #917400",
"%. c #805726",
"&. c #84612B",
"*. c #887E3C",
"=. c #FF4313",
"-. c #E24E29",
";. c #FF542A",
":. c #FF5C33",
">. c #807F40",
",. c #988902",
"<. c #AC8701",
"1. c #A69000",
"2. c #A4A300",
"3. c #80803E",
"4. c #C3C200",
"5. c #CACA00",
"6. c #D6D600",
"7. c #E2E200",
"8. c #E9E903",
"9. c #F2F200",
"0. c #FFFF00",
"q. c #848341",
"w. c #8D8C45",
"e. c #909047",
"r. c #949348",
"t. c #999448",
"y. c #9B9B4C",
"u. c #9E9E50",
"i. c #A2A24F",
"p. c #A4A450",
"a. c #ACAD54",
"s. c #B2B257",
"d. c #B5B658",
"f. c #B7B85A",
"g. c #BCBD5C",
"h. c #BFC05D",
"j. c #C1C25F",
"k. c #C5C660",
"l. c #CACB63",
"z. c #442282",
"x. c #47238B",
"c. c #4A2388",
"v. c #4B2593",
"b. c #4E2799",
"n. c #5229A0",
"m. c #562BAC",
"M. c #582CAE",
"N. c #5C2EB8",
"B. c #6131C2",
"V. c #6533CB",
"C. c #8D008D",
"Z. c #950095",
"A. c #990099",
/* pixels */
"l.l.l.l.l.l.l.l.l.l.l.l.l.l.l.l.l.l.l.l.l.l.l.l.l.l.l.l.l.l.l.l.l.l.l.l.l.l.l.l.",
"l.l.l.l.l.l.l.l.l.l.l.l.l.l.l.l.l.l.l.l.l.l.l.l.l.l.l.l.l.l.l.l.l.l.l.l.l.l.l.l.",
"l.l.l.l.l.l.l.l.l.l.l.l.l.l.l.l.l.l.l.l.l.l.l.l.l.l.l.l.l.l.l.l.l.l.l.l.l.l.l.l.",
"l.l.l.l.l.l.l.l.l.l.l.l.l.l.l.l.l.l.l.l.l.l.l.l.l.l.l.l.l.l.l.l.l.l.l.l.l.l.l.l.",
"l.l.l.l.l.l.l.l.l.l.l.l.l.l.l.l.l.l.l.l.l.l.l.l.l.l.l.l.l.l.l.l.l.l.l.l.l.l.l.l.",
"l.l.l.l.l.l.l.l.l.l.l.l.l.l.l.l.l.l.l.l.l.l.l.l.l.l.l.l.l.l.l.l.l.l.l.l.l.l.l.l.",
"l.l.l.l.l.l.l.l.l.l.l.l.l.l.l.l.l.l.l.l.l.l.l.l.l.l.l.l.l.l.l.l.l.l.l.l.l.l.l.l.",
"l.l.l.l.l.l.l.l.l.l.l.l.l.l.l.l.l.l.l.l.l.k.g.g.l.l.l.l.l.l.l.l.l.l.l.l.l.l.l.l.",
"l.l.l.l.l.l.l.l.l.l.l.l.l.l.l.l.l.l.l.k.a.p.i.p.p.g.l.l.l.l.l.l.l.l.l.l.l.l.l.l.",
"l.l.l.l.l.l.l.l.l.l.l.l.l.l.l.l.l.f.z q 6 f w.p.i.p.g.l.l.l.l.l.l.l.l.l.l.l.l.l.",
"l.l.l.l.l.l.l.l.l.l.l.l.l.l.l.l.t.Q O.O.o.R @ v i.i.p.h.l.l.l.l.l.l.l.l.l.l.l.l.",
"l.l.l.l.l.l.l.l.l.l.l.l.l.l.l.l.q o.O.O.O.o.: @ w.i.i.a.l.l.l.l.l.l.l.l.l.l.l.l.",
"l.l.l.l.l.l.l.l.l.l.l.l.l.l.l.k.> ` / T t m v.n .   5 k d.k.l.l.l.l.l.l.l.l.l.l.",
"l.l.l.l.l.l.l.l.l.l.l.l.l.l.k.L v.x.n.M.B.N.b.$ 8 * o.{ j k.l.l.l.l.l.l.l.l.l.l.",
"l.l.l.l.l.l.l.l.l.l.l.l.k.a.v K M.D e e A m = ~ E O X.O._ r.l.l.l.l.l.l.l.l.l.l.",
"l.l.l.l.l.l.l.l.l.l.l.k.x ,.#.$ < ) { { ` Y - > n N / O.! i.l.l.l.l.l.l.l.l.l.l.",
"l.l.l.l.l.l.l.l.l.l.l.3.$.<.+.U | X.o.O.o.| 9 @ $ K w R c g.l.l.l.l.l.l.l.l.l.l.",
"l.l.l.l.l.l.l.l.l.l.j.h G F , ..O.O.O.O.O.Q 6.4.9 t M b p.d.l.l.l.l.l.l.l.l.l.l.",
"l.l.l.l.l.l.l.l.l.l.i.G A.V X.O.O.O.O.O.} 1.0.9.s P n q.p.s.l.l.l.l.l.l.l.l.l.l.",
"l.l.l.l.l.l.l.l.l.l.y.G A.r O.O.O.O._ I ! 4.0.0.2.P # b i.s.l.l.l.l.l.l.l.l.l.l.",
"l.l.l.l.l.l.l.l.l.l.&.< C.T O.O.O.o.Z Z.4 7.0.0.5.~ # b i.s.k.l.l.l.l.l.l.l.l.l.",
"l.l.l.l.l.l.l.l.l.l.%.P Z.T O.O.O.o.V J 1 7.0.0.4.E # 3.i.s.l.l.l.l.l.l.l.l.l.l.",
"l.l.l.l.l.l.l.l.l.l.t.V A.y O.O.O.O...[ ) 5.0.0.2.P & e.i.f.l.l.l.l.l.l.l.l.l.l.",
"l.l.l.l.l.l.l.l.l.l.f.C A.H ] O.O.O.O.O.} ,.0.0.a ; % 3.i.g.l.l.l.l.l.l.l.l.l.l.",
"l.l.l.l.l.l.l.l.l.l.l.q.V S = | ;.;.=.=.=.@.8.,.; D U ( k h.l.l.l.l.l.l.l.l.l.l.",
"l.l.l.l.l.l.l.l.l.l.l.j.p $.3 O  .;.:.:.:.-.i O % m X.O.W p.l.l.l.l.l.l.l.l.l.l.",
"l.l.l.l.l.l.l.l.l.l.l.l.l.s.h m.z.e u ' u e 2 ^ 7 , O.O.) p.l.l.l.l.l.l.l.l.l.l.",
"l.l.l.l.l.l.l.l.l.l.l.l.l.l.u.B b.m.m.M.B.V.K 7 X * o.` l k.l.l.l.l.l.l.l.l.l.l.",
"l.l.l.l.l.l.l.l.l.l.l.l.l.l.l.v [ _ W , C c.K     o d >.l.l.l.l.l.l.l.l.l.l.l.l.",
"l.l.l.l.l.l.l.l.l.l.l.l.l.l.l.w.{ O.O.O.X.Y + g w.y.p.g.l.l.l.l.l.l.l.l.l.l.l.l.",
"l.l.l.l.l.l.l.l.l.l.l.l.l.l.l.l.j [ O.O.] 0 f y.i.i.d.l.l.l.l.l.l.l.l.l.l.l.l.l.",
"l.l.l.l.l.l.l.l.l.l.l.l.l.l.l.l.g.*.q 2 @ f t.i.p.a.l.l.l.l.l.l.l.l.l.l.l.l.l.l.",
"l.l.l.l.l.l.l.l.l.l.l.l.l.l.l.l.l.l.l.l.k.s.a.s.h.l.l.l.l.l.l.l.l.l.l.l.l.l.l.l.",
"l.l.l.l.l.l.l.l.l.l.l.l.l.l.l.l.l.l.l.l.l.l.l.l.l.l.l.l.l.l.l.l.l.l.l.l.l.l.l.l.",
"l.l.l.l.l.l.l.l.l.l.l.l.l.l.l.l.l.l.l.l.l.l.l.l.l.l.l.l.l.l.l.l.l.l.l.l.l.l.l.l.",
"l.l.l.l.l.l.l.l.l.l.l.l.l.l.l.l.l.l.l.l.l.l.l.l.l.l.l.l.l.l.l.l.l.l.l.l.l.l.l.l.",
"l.l.l.l.l.l.l.l.l.l.l.l.l.l.l.l.l.l.l.l.l.l.l.l.l.l.l.l.l.l.l.l.l.l.l.l.l.l.l.l.",
"l.l.l.l.l.l.l.l.l.l.l.l.l.l.l.l.l.l.l.l.l.l.l.l.l.l.l.l.l.l.l.l.l.l.l.l.l.l.l.l.",
"l.l.l.l.l.l.l.l.l.l.l.l.l.l.l.l.l.l.l.l.l.l.l.l.l.l.l.l.l.l.l.l.l.l.l.l.l.l.l.l.",
"l.l.l.l.l.l.l.l.l.l.l.l.l.l.l.l.l.l.l.l.l.l.l.l.l.l.l.l.l.l.l.l.l.l.l.l.l.l.l.l."
};
