/* XPM */
static char *result[] = {
/* columns rows colors chars-per-pixel */
"40 40 173 2 ",
"   c #222222",
".  c #2B2828",
"X  c #352E2E",
"o  c #3E3534",
"O  c #413735",
"+  c #463B3C",
"@  c #453B3E",
"#  c #483B3A",
"$  c #4C3F3B",
"%  c #6A4130",
"&  c #67443D",
"*  c #6E4338",
"=  c #7B4E38",
"-  c #7B4F3C",
";  c #606433",
":  c #3F3A48",
">  c #3D3A4B",
",  c #3E3A4A",
"<  c #3B3A4D",
"1  c #3B3A4F",
"2  c #3C3A4D",
"3  c #3A3A50",
"4  c #3B3B52",
"5  c #3E3C50",
"6  c #3F3D51",
"7  c #413A45",
"8  c #403B46",
"9  c #403A47",
"0  c #403A48",
"q  c #3C5457",
"w  c #3F5159",
"e  c #336356",
"r  c #46414E",
"t  c #47414E",
"y  c #544341",
"u  c #564541",
"i  c #5F4B47",
"p  c #545646",
"a  c #53564B",
"s  c #5F544D",
"d  c #5F5F4E",
"f  c #444051",
"g  c #464250",
"h  c #474250",
"j  c #404057",
"k  c #464355",
"l  c #4A4755",
"z  c #444358",
"x  c #464559",
"c  c #46465E",
"v  c #504957",
"b  c #5A4851",
"n  c #514C58",
"m  c #584E59",
"M  c #4F525B",
"N  c #535653",
"B  c #5C5257",
"V  c #575D50",
"C  c #585C51",
"Z  c #5C525E",
"A  c #64534B",
"S  c #6B544E",
"D  c #614D56",
"F  c #665250",
"G  c #665454",
"H  c #6C5A55",
"J  c #60535C",
"K  c #775C55",
"L  c #4B764B",
"P  c #6D7656",
"I  c #717554",
"U  c #767C5A",
"Y  c #4E5061",
"T  c #4D5267",
"R  c #4F556B",
"E  c #535662",
"W  c #5D5865",
"Q  c #50586F",
"!  c #545B6C",
"~  c #555D6F",
"^  c #525B72",
"/  c #545E75",
"(  c #645763",
")  c #6E5D60",
"_  c #6C5E65",
"`  c #605C69",
"'  c #605E6A",
"]  c #605E6B",
"[  c #556076",
"{  c #556077",
"}  c #566177",
"|  c #566279",
" . c #56627A",
".. c #56657D",
"X. c #57657D",
"o. c #58657D",
"O. c #58677F",
"+. c #63606D",
"@. c #65696B",
"#. c #6A686E",
"$. c #736262",
"%. c #726566",
"&. c #7D6764",
"*. c #796B64",
"=. c #6D6C71",
"-. c #6D6D72",
";. c #696E7F",
":. c #777476",
">. c #797275",
",. c #7A7375",
"<. c #92573F",
"1. c #9B6A4E",
"2. c #806051",
"3. c #B46845",
"4. c #A47A47",
"5. c #947A64",
"6. c #93766B",
"7. c #857875",
"8. c #897872",
"9. c #907F75",
"0. c #4F873F",
"q. c #77996B",
"w. c #9D8654",
"e. c #AD957A",
"r. c #A9917F",
"t. c #A0B379",
"y. c #596981",
"u. c #5B6C85",
"i. c #5D7089",
"p. c #5E718B",
"a. c #5F738D",
"s. c #6F7480",
"d. c #737987",
"f. c #757C89",
"g. c #607791",
"h. c #617791",
"j. c #637C97",
"k. c #647E99",
"l. c #8C8585",
"z. c #8D888C",
"x. c #988C80",
"c. c #9B928C",
"v. c #9A9191",
"b. c #9B9292",
"n. c #9A9493",
"m. c #A0928A",
"M. c #A1948B",
"N. c #AF9F92",
"B. c #BCA281",
"V. c #B2A297",
"C. c #ADA6A0",
"Z. c #B0A9A3",
"A. c #BAB1A3",
"S. c #BCB3A5",
"D. c #BDB3A5",
"F. c #BFB5A7",
"G. c #C29D88",
"H. c #C5AB8D",
"J. c #C0AFA0",
"K. c #C4B2A4",
"L. c #C3B4A5",
"P. c #C6B4A5",
"I. c #D2C4AB",
"U. c #CBC1B3",
"Y. c #CEC0B1",
"T. c #CCC2B3",
"R. c #CFC2B3",
"E. c #CAC1B4",
"W. c #CFC3B4",
"Q. c #D0C4B5",
"!. c #D1C5B6",
"~. c #D3C9B9",
"^. c #D4CABB",
/* pixels */
"              X # #                     # # # # # # # X     # # X               ",
"              X # #                     # # # # # # # X     # # X               ",
"    . X X X X o # # X X X X X X z c c c c c c h # # # o X X # # o X X X X O $ $ ",
"    X # # # # # # # # # # # # k ^ / p.g.g.g.g...h # # # # # # # # # # # # i K K ",
"    X # # # # # # # # # # # k Q | p.j.k.k.k.h. .R t # # # # # # # # # # # i K K ",
"# # # # # # # # # # # # # # c / | g.k.k.p.y.o.| ^ k # # # # # # # # # # # i K K ",
"# # # # # # # # # # # # # g Y [ | g.k.a.X.| | | { T r # # # # # # # # # # i K K ",
"# # # # # # # # # # # # # j E ! } u.i.O.| | | | | ^ x # # # # # # # # # # i K K ",
"# # # # # # # # # # # # # 3 E E ~ } | | | | | | | ^ x # # # # # # # # # # i K K ",
"# # # # # # # # # # # # # 3 E E E ! } | | | | | | ^ x # # # # # # # # # # i K K ",
"    X # # # # # # # # # # 3 #.#.=.-.s.d.f.f.f.f.f.;.x # # # # # # # # # # i K K ",
"    X # # # # # # # # # # 4 N.N.A.S.S.U.^.^.^.^.^.Z.x # # # # # # # # # # i K K ",
"X X o # # # # # # # # # # x M.N.A.D.F.T.^.^.^.E.E.Z.x # # # # # # # # # # i K K ",
"# # # # # # # # # # # # # # c M.A.L.Q.^.^.^.^.n.' Z.x # # # # # # # # # # i K K ",
"# # # # # # # # # # # # # # 3 m.N.J.P.R.^.^.^.B.4.C.2 # # # # # # # # # # i K K ",
"    X # # # # # # # # # # # + l V.K.W.~.^.Y.G.3.<.n + # # # # # # # # # # # # # ",
"    X # # # # # # # # # # # # < W W ` ] ] +.( D b @ # # # # # # # # # # # # # # ",
"    X # # # # # # # # # # # , H f &.v ) 6._ w e q # # # # # # # # # # # # y i i ",
"    X # # # # # # # # # # 9 x.B 6 6.m 9.H.7.@.q.L # # # # # # # # # # # # i K K ",
"    X # # # # # # # # # # 3 e.G 5 6.Z c.I.l.,.t.0.# # # # # # # # # # # # i K K ",
"    X # # # # # # # # # # 3 5.2.& 1.J v.!.z.$.w.; # # # # # # # # # # # # # # # ",
"    X # # # # # # # # # # : *.F * - s >.b.:.A = % # # # # # # # # # # # # # # # ",
"X X o # # # # # # # # # # # > > > 1 p N M C a 0 # # # # # # # # # # # # # y i i ",
"# # # # # # # # # # # # # # # # # , d I U P V 8 # # # # # # # # # # # # # i K K ",
"# # # # # # # # # # # # # # # # # : 8.r.r.%.8 # # # # # # # # # # # # # # i K K ",
"# # # # # # # # # # # # # # # # # # , 3 3 7 # # # # # # # # # # # # # # # i K K ",
"# # # # # # # # # # # # # # # # # # # # # # # # # # # # # # # # # # # # # i K K ",
"X X o # # # # # # # # # # # # # # # # # # # # # # # # # # # # # # # # # # y i i ",
"    X # # # # # # # # # # # # # # # # # # # # # # # # # # # # # # # # # # # # # ",
"    X # # # # # # # # # # # # # # # # # # # # # # # # # # # # # # # # # # # # # ",
"    X # # # # # # # # # # # # # # # # # # # # # # # # # # # # # # # # # # # # # ",
"    X # # # # # # # # # # # # # # # # # # # # # # # # # # # # # # # # # # # # # ",
"    X # # # # # # # # # # # # # # # # # # # # # # # # # # # # # # # # # # y i i ",
"    X # # # # # # # # # # # # # # # # # # # # # # # # # # # # # # # # # # i K K ",
"    X # # # # # # # # # # # # # # # # # # # # # # # # # # # # # # # # # # i K K ",
"    X # # # # # # # # # # # # # # # # # # # # # # # # # # # # # # # # # # i K K ",
"    X # # # # # # # # # # # # # # # # # # # # # # # # # # # # # # # # # # i K K ",
"$ $ u i i i i y # # # # y i i # # y i i i i i i i i i y # # i i i i i i i S K K ",
"K K K K K K K i # # # # i K K # # i K K K K K K K K K i # # K K K K K K K K K K ",
"K K K K K K K i # # # # i K K # # i K K K K K K K K K i # # K K K K K K K K K K "
};
