/* XPM */
static char *result[] = {
/* columns rows colors chars-per-pixel */
"40 40 156 2 ",
"   c #0B0807",
".  c #1C0B01",
"X  c #2B0F00",
"o  c #341605",
"O  c #281C1E",
"+  c #202010",
"@  c #372C16",
"#  c #1D1128",
"$  c #1B0E30",
"%  c #3A162D",
"&  c #2C193A",
"*  c #3C173C",
"=  c #392421",
"-  c #302436",
";  c #471000",
":  c #481801",
">  c #48140C",
",  c #541400",
"<  c #5E1F04",
"1  c #5D130F",
"2  c #491C12",
"3  c #681807",
"4  c #701701",
"5  c #761801",
"6  c #7A1B0F",
"7  c #671812",
"8  c #46280F",
"9  c #413F00",
"0  c #4C271A",
"q  c #5A2F12",
"w  c #473719",
"e  c #662302",
"r  c #782800",
"t  c #633013",
"y  c #763A15",
"u  c #5A182B",
"i  c #53043F",
"p  c #720F26",
"a  c #631B2C",
"s  c #74202E",
"d  c #4D4403",
"f  c #5D5518",
"g  c #795300",
"h  c #726D00",
"j  c #4D4A23",
"k  c #555329",
"l  c #5A572B",
"z  c #584933",
"x  c #6E4E23",
"c  c #755E2B",
"v  c #6F612E",
"b  c #78612D",
"n  c #6F6B34",
"m  c #727139",
"M  c #7C7B3C",
"N  c #29164B",
"B  c #381858",
"V  c #342250",
"C  c #3B1D74",
"Z  c #3C2566",
"A  c #540946",
"S  c #521B44",
"D  c #5D1D4C",
"F  c #580153",
"G  c #501C55",
"H  c #6C1750",
"J  c #441D68",
"K  c #660363",
"L  c #690764",
"P  c #70016E",
"I  c #7A007A",
"U  c #442077",
"Y  c #4B4240",
"T  c #7F7F40",
"R  c #811B02",
"E  c #8B1A09",
"W  c #941E01",
"Q  c #9A1F01",
"!  c #891A19",
"~  c #892204",
"^  c #8A2D00",
"/  c #952902",
"(  c #883300",
")  c #953106",
"_  c #A42204",
"`  c #A92200",
"'  c #A32904",
"]  c #B52401",
"[  c #BC2601",
"{  c #801320",
"}  c #882323",
"|  c #C32700",
" . c #C42901",
".. c #CC2900",
"X. c #D22B00",
"o. c #DA2C00",
"O. c #D6360E",
"+. c #E52E00",
"@. c #EB2F00",
"#. c #F02F00",
"$. c #F53100",
"%. c #FF3300",
"&. c #845D00",
"*. c #9C4919",
"=. c #866B03",
"-. c #967A04",
";. c #805825",
":. c #85622B",
">. c #807525",
",. c #8E7D3B",
"<. c #FF4214",
"1. c #E24F28",
"2. c #FF5429",
"3. c #FF5C33",
"4. c #958E00",
"5. c #A68402",
"6. c #A68F00",
"7. c #A4A300",
"8. c #81803E",
"9. c #C3C300",
"0. c #CACA00",
"q. c #D5D500",
"w. c #E2E200",
"e. c #EAE903",
"r. c #F2F200",
"t. c yellow",
"y. c #848341",
"u. c #8D8D45",
"i. c #909046",
"p. c #949349",
"a. c #9A9448",
"s. c #9B9B4C",
"d. c #9E9E50",
"f. c #A2A24F",
"g. c #A3A350",
"h. c #ACAD54",
"j. c #B2B257",
"k. c #B5B659",
"l. c #BCBD5C",
"z. c #BFC05D",
"x. c #C1C25F",
"c. c #C5C660",
"v. c #CACB63",
"b. c #442282",
"n. c #47238B",
"m. c #4A2388",
"M. c #4C2795",
"N. c #5328A0",
"B. c #562BAC",
"V. c #582CAF",
"C. c #5C2EB8",
"Z. c #6131C3",
"A. c #6532CB",
"S. c #8D008D",
"D. c #940094",
"F. c #990099",
/* pixels */
"v.v.v.v.v.v.v.v.v.v.v.v.v.v.v.v.v.v.v.v.v.v.v.v.v.v.v.v.v.v.v.v.v.v.v.v.v.v.v.v.",
"v.v.v.v.v.v.v.v.v.v.v.v.v.v.v.v.v.v.v.v.v.v.v.v.v.v.v.v.v.v.v.v.v.v.v.v.v.v.v.v.",
"v.v.v.v.v.v.v.v.v.v.v.v.v.v.v.v.v.v.v.v.v.v.v.v.v.v.v.v.v.v.v.v.v.v.v.v.v.v.v.v.",
"v.v.v.v.v.v.v.v.v.v.v.v.v.v.v.v.v.v.v.v.v.v.v.v.v.v.v.v.v.v.v.v.v.v.v.v.v.v.v.v.",
"v.v.v.v.v.v.v.v.v.v.v.v.v.v.v.v.v.v.v.v.v.v.v.v.v.v.v.v.v.v.v.v.v.v.v.v.v.v.v.v.",
"v.v.v.v.v.v.v.v.v.v.v.v.v.v.v.v.v.v.v.v.v.v.v.v.v.v.v.v.v.v.v.v.v.v.v.v.v.v.v.v.",
"v.v.v.v.v.v.v.v.v.v.v.v.v.v.v.v.v.v.v.v.v.v.v.v.v.v.v.v.v.v.v.v.v.v.v.v.v.v.v.v.",
"v.v.v.v.v.v.v.v.v.v.v.v.v.v.v.z.j.h.j.z.v.v.v.v.v.v.v.v.v.v.v.v.v.v.v.v.v.v.v.v.",
"v.v.v.v.v.v.v.v.v.v.v.v.v.c.h.f.f.a.k @ < y ,.l.v.v.v.v.v.v.v.v.v.v.v.v.v.v.v.v.",
"v.v.v.v.v.v.v.v.v.v.v.v.v.k.g.f.a.k t | $.%. .x v.v.v.v.v.v.v.v.v.v.v.v.v.v.v.v.",
"v.v.v.v.v.v.v.v.v.v.v.v.l.g.s.y.l O Q #.%.%.%...i.v.v.v.v.v.v.v.v.v.v.v.v.v.v.v.",
"v.v.v.v.v.v.v.v.v.v.v.v.8.j +     b.m.D 6 / ] | m v.v.v.v.v.v.v.v.v.v.v.v.v.v.v.",
"v.v.v.v.v.v.v.v.v.v.c.v [ $., X e U A.A.C.C.B.M.Z d.v.v.v.v.v.v.v.v.v.v.v.v.v.v.",
"v.v.v.v.v.v.v.v.v.v.g.' %.%.4 3 ) e * s } } S b.B.z h.x.v.v.v.v.v.v.v.v.v.v.v.v.",
"v.v.v.v.v.v.v.v.v.v.f./ %.@.B & o d 1.3.3.3.2.O.: 9 -.f c.v.v.v.v.v.v.v.v.v.v.v.",
"v.v.v.v.v.v.v.v.v.v.l.b ] E Z 3 4.e.*.<.<.%.2.3.o.> H A y.v.v.v.v.v.v.v.v.v.v.v.",
"v.v.v.v.v.v.v.v.v.v.l.f.8.& 1 g t.t.4...%.%.%.%.%. .P F.H k.v.v.v.v.v.v.v.v.v.v.",
"v.v.v.v.v.v.v.v.v.v.k.f.i.- R 7.t.t.0.' | +.%.%.%.%.A F.A p.v.v.v.v.v.v.v.v.v.v.",
"v.v.v.v.v.v.v.v.v.v.j.f.8.# ^ 0.t.t.w.8 I i #.%.%.%.{ D.R ;.v.v.v.v.v.v.v.v.v.v.",
"v.v.v.v.v.v.v.v.v.v.j.f.M # ( 0.t.t.w.0 F.F $.%.%.%.! S.7 :.v.v.v.v.v.v.v.v.v.v.",
"v.v.v.v.v.v.v.v.v.v.j.f.M $ 5 7.t.t.9.' E ] %.%.%.%.p D.K s.v.v.v.v.v.v.v.v.v.v.",
"v.v.v.v.v.v.v.v.v.v.j.f.y.N R h r.t.6.X.%.%.%.%.%.@.A F.L d.v.v.v.v.v.v.v.v.v.v.",
"v.v.v.v.v.v.v.v.v.v.k.f.T V u e 9.q./ %.%.%.%.%.+.4 L K z c.v.v.v.v.v.v.v.v.v.v.",
"v.v.v.v.v.v.v.v.v.v.l.n R u M.2 @ g X.#.$.$.@.o.W &.5.5.y.v.v.v.v.v.v.v.v.v.v.v.",
"v.v.v.v.v.v.v.v.v.v.s.' %._ C N e , Q [ ....` 7 = =.4.>.c.v.v.v.v.v.v.v.v.v.v.v.",
"v.v.v.v.v.v.v.v.v.v.p.[ %.@.o ^ ^ 2 B G S S J V.b.m j.x.v.v.v.v.v.v.v.v.v.v.v.v.",
"v.v.v.v.v.v.v.v.v.v.c.x ..$.; r % M.C.Z.V.N.M.n.Y v.v.v.v.v.v.v.v.v.v.v.v.v.v.v.",
"v.v.v.v.v.v.v.v.v.v.v.k.c q   . N M.B a ! _ [ 3 v.v.v.v.v.v.v.v.v.v.v.v.v.v.v.v.",
"v.v.v.v.v.v.v.v.v.v.v.v.h.g.s.i.@ 2 $.%.%.%.$.y v.v.v.v.v.v.v.v.v.v.v.v.v.v.v.v.",
"v.v.v.v.v.v.v.v.v.v.v.v.x.g.g.d.m @ ~ $.%.%.) a.v.v.v.v.v.v.v.v.v.v.v.v.v.v.v.v.",
"v.v.v.v.v.v.v.v.v.v.v.v.v.l.g.g.g.u.k w y b k.v.v.v.v.v.v.v.v.v.v.v.v.v.v.v.v.v.",
"v.v.v.v.v.v.v.v.v.v.v.v.v.v.l.g.g.g.g.h.c.v.v.v.v.v.v.v.v.v.v.v.v.v.v.v.v.v.v.v.",
"v.v.v.v.v.v.v.v.v.v.v.v.v.v.v.v.l.l.x.v.v.v.v.v.v.v.v.v.v.v.v.v.v.v.v.v.v.v.v.v.",
"v.v.v.v.v.v.v.v.v.v.v.v.v.v.v.v.v.v.v.v.v.v.v.v.v.v.v.v.v.v.v.v.v.v.v.v.v.v.v.v.",
"v.v.v.v.v.v.v.v.v.v.v.v.v.v.v.v.v.v.v.v.v.v.v.v.v.v.v.v.v.v.v.v.v.v.v.v.v.v.v.v.",
"v.v.v.v.v.v.v.v.v.v.v.v.v.v.v.v.v.v.v.v.v.v.v.v.v.v.v.v.v.v.v.v.v.v.v.v.v.v.v.v.",
"v.v.v.v.v.v.v.v.v.v.v.v.v.v.v.v.v.v.v.v.v.v.v.v.v.v.v.v.v.v.v.v.v.v.v.v.v.v.v.v.",
"v.v.v.v.v.v.v.v.v.v.v.v.v.v.v.v.v.v.v.v.v.v.v.v.v.v.v.v.v.v.v.v.v.v.v.v.v.v.v.v.",
"v.v.v.v.v.v.v.v.v.v.v.v.v.v.v.v.v.v.v.v.v.v.v.v.v.v.v.v.v.v.v.v.v.v.v.v.v.v.v.v.",
"v.v.v.v.v.v.v.v.v.v.v.v.v.v.v.v.v.v.v.v.v.v.v.v.v.v.v.v.v.v.v.v.v.v.v.v.v.v.v.v."
};
