/* XPM */
static char *result[] = {
/* columns rows colors chars-per-pixel */
"40 40 155 2 ",
"   c #0B0807",
".  c #1B0A01",
"X  c #2C0E01",
"o  c #341606",
"O  c #281B1F",
"+  c #20200F",
"@  c #372C16",
"#  c #1C1028",
"$  c #1B0D30",
"%  c #210D28",
"&  c #3A152D",
"*  c #2B1939",
"=  c #3D173C",
"-  c #382421",
";  c #302436",
":  c #471000",
">  c #481801",
",  c #4B180E",
"<  c #541400",
"1  c #5E130E",
"2  c #5C1F0C",
"3  c #451C14",
"4  c #701600",
"5  c #781A09",
"6  c #671712",
"7  c #46280E",
"8  c #4E3E00",
"9  c #4C271A",
"0  c #5A2F12",
"q  c #483619",
"w  c #662302",
"e  c #692900",
"r  c #792700",
"t  c #763A15",
"y  c #5A192C",
"u  c #551A3E",
"i  c #720F26",
"p  c #631A2B",
"a  c #69083E",
"s  c #74202D",
"d  c #4E4402",
"f  c #5D5418",
"g  c #795300",
"h  c #754119",
"j  c #726D00",
"k  c #4D4923",
"l  c #555329",
"z  c #5A562B",
"x  c #584933",
"c  c #6E4E22",
"v  c #755D2A",
"b  c #6F612E",
"n  c #78612C",
"m  c #6F6B33",
"M  c #717137",
"N  c #737139",
"B  c #7C7C3C",
"V  c #2A1746",
"C  c #2A1550",
"Z  c #381859",
"A  c #34224F",
"S  c #3B1D73",
"D  c #3D2566",
"F  c #540846",
"G  c #521B45",
"H  c #5D1D4C",
"J  c #570153",
"K  c #511D54",
"L  c #6D174F",
"P  c #441D68",
"I  c #680265",
"U  c #670863",
"Y  c #70006E",
"T  c #7A0079",
"R  c #432077",
"E  c #4B4240",
"W  c #821C01",
"Q  c #8B1A09",
"!  c #941E02",
"~  c #86171B",
"^  c #892204",
"/  c #8A2E00",
"(  c #972302",
")  c #932C00",
"_  c #9F2800",
"`  c #873200",
"'  c #953105",
"]  c #A42104",
"[  c #A92100",
"{  c #A32903",
"}  c #B42401",
"|  c #BB2601",
" . c #BF2801",
".. c #892323",
"X. c #C32700",
"o. c #C42901",
"O. c #CD2900",
"+. c #D42B00",
"@. c #DB2C00",
"#. c #D7360E",
"$. c #E42E00",
"%. c #EA2F00",
"&. c #F43100",
"*. c #FF3300",
"=. c #845D00",
"-. c #9C4919",
";. c #876B03",
":. c #805826",
">. c #8D7D3B",
",. c #FF4213",
"<. c #E24E28",
"1. c #FF542A",
"2. c #FF5C33",
"3. c #978903",
"4. c #A78402",
"5. c #A69000",
"6. c #A4A300",
"7. c #81803E",
"8. c #C4C400",
"9. c #CCCB00",
"0. c #D6D600",
"q. c #E2E200",
"w. c #E9E903",
"e. c #F2F200",
"r. c yellow",
"t. c #848341",
"y. c #8D8D45",
"u. c #909047",
"i. c #959348",
"p. c #9A9448",
"a. c #9B9B4C",
"s. c #9E9E50",
"d. c #A2A24F",
"f. c #A3A350",
"g. c #ACAD54",
"h. c #B2B257",
"j. c #B5B659",
"k. c #BCBD5C",
"l. c #BFC05E",
"z. c #C1C25E",
"x. c #C5C661",
"c. c #CACB63",
"v. c #442282",
"b. c #48248D",
"n. c #4C2695",
"m. c #4F2699",
"M. c #5328A0",
"N. c #552BAA",
"B. c #582BAE",
"V. c #5C2EB8",
"C. c #6131C2",
"Z. c #6632CB",
"A. c #8D008D",
"S. c #950095",
"D. c #990099",
/* pixels */
"c.c.c.c.c.c.c.c.c.c.c.c.c.c.c.c.c.c.c.c.c.c.c.c.c.c.c.c.c.c.c.c.c.c.c.c.c.c.c.c.",
"c.c.c.c.c.c.c.c.c.c.c.c.c.c.c.c.c.c.c.c.c.c.c.c.c.c.c.c.c.c.c.c.c.c.c.c.c.c.c.c.",
"c.c.c.c.c.c.c.c.c.c.c.c.c.c.c.c.c.c.c.c.c.c.c.c.c.c.c.c.c.c.c.c.c.c.c.c.c.c.c.c.",
"c.c.c.c.c.c.c.c.c.c.c.c.c.c.c.c.c.c.c.c.c.c.c.c.c.c.c.c.c.c.c.c.c.c.c.c.c.c.c.c.",
"c.c.c.c.c.c.c.c.c.c.c.c.c.c.c.c.c.c.c.c.c.c.c.c.c.c.c.c.c.c.c.c.c.c.c.c.c.c.c.c.",
"c.c.c.c.c.c.c.c.c.c.c.c.c.c.c.c.c.c.c.c.c.c.c.c.c.c.c.c.c.c.c.c.c.c.c.c.c.c.c.c.",
"c.c.c.c.c.c.c.c.c.c.c.c.c.c.c.c.c.c.c.c.c.c.c.c.c.c.c.c.c.c.c.c.c.c.c.c.c.c.c.c.",
"c.c.c.c.c.c.c.c.c.c.c.c.c.c.c.c.c.c.c.c.c.c.c.c.c.c.c.c.c.c.c.c.c.c.c.c.c.c.c.c.",
"c.c.c.c.c.c.c.c.c.c.c.c.c.c.c.c.c.c.c.c.c.c.c.c.c.c.c.c.c.c.c.c.c.c.c.c.c.c.c.c.",
"c.c.c.c.c.c.c.c.c.c.c.c.c.c.c.c.c.c.c.c.c.c.c.c.c.c.c.c.c.c.c.c.c.c.c.c.c.c.c.c.",
"c.c.c.c.c.c.c.c.c.c.c.c.c.c.c.c.k.i.:.:.a.f.c.c.c.c.c.c.c.c.c.c.c.c.c.c.c.c.c.c.",
"c.c.c.c.c.c.c.c.c.c.c.c.c.c.x.t.H F 5 6 I U x t.c.c.c.c.c.c.c.c.c.c.c.c.c.c.c.c.",
"c.c.c.c.c.c.c.c.c.c.c.c.c.c.f F D.D.S.A.S.D.I 4.>.z.c.c.c.c.c.c.c.c.c.c.c.c.c.c.",
"c.c.c.c.c.c.c.c.c.c.c.c.c.g.;.L Y a ~ ~ i F I 4.3.h.c.c.c.c.c.c.c.c.c.c.c.c.c.c.",
"c.c.c.c.c.c.c.c.c.c.c.c.s.x 8 , X.*.*.*.*.%.4 =.;.M c.c.c.c.c.c.c.c.c.c.c.c.c.c.",
"c.c.c.c.c.c.c.c.c.c.y.M D N.> +.*.*.*.*.*.*.$.( - R E l.c.c.c.c.c.c.c.c.c.c.c.c.",
"c.c.c.c.c.c.c.c.l.c O.o.m.v.#.1.*.*.*.*.*.*.*.@.6 B.b.4 t p.c.c.c.c.c.c.c.c.c.c.",
"c.c.c.c.c.c.c.c.>.o.*.} N.u 1.1.*.*.&.&.*.*.*.%.[ P b.| &.' j.c.c.c.c.c.c.c.c.c.",
"c.c.c.c.c.c.c.c.t *.*.( B...2.,.*.$.F J } *.*.&.O.G M.] *.*.n c.c.c.c.c.c.c.c.c.",
"c.c.c.c.c.c.c.c.2 *.*.5 V...2.,.*.X.T S.Q *.*.&.O.G B.~ *.*.h x.c.c.c.c.c.c.c.c.",
"c.c.c.c.c.c.c.l.@ X.%.H C.s 2.,.+.{ 7 9 _ +.*.%. .K C.p *.&.q g.c.c.c.c.c.c.c.c.",
"c.c.c.c.c.c.c.h.l 0 ] R Z.= <.-.3.9.q.q.8.5.) +.( Z V.Z &.Q l d.x.c.c.c.c.c.c.c.",
"c.c.c.c.c.c.c.g.p.z O v.S 2 d w.r.r.r.r.r.r.0.g < , n.n.3 @ u.d.k.c.c.c.c.c.c.c.",
"c.c.c.c.c.c.c.h.f.a.z   e ' o 3.r.r.r.r.r.e.8.@ w ` & C @ N d.d.l.c.c.c.c.c.c.c.",
"c.c.c.c.c.c.c.l.d.d.y.  X w * 1 g 6.8.9.6.j w & = ` r . y.d.d.f.c.c.c.c.c.c.c.c.",
"c.c.c.c.c.c.c.c.h.d.a.+ < 4 Z P 1 W / ` W W y b.S o :   s.d.d.k.c.c.c.c.c.c.c.c.",
"c.c.c.c.c.c.c.c.z.j.d.k &.*.%.! * ; # % $ V A y ] %.&.0 d.f.k.c.c.c.c.c.c.c.c.c.",
"c.c.c.c.c.c.c.c.c.c.l.7.| *.*.[ 7.u.B B B t.B ^ *.*.O.v g.l.c.c.c.c.c.c.c.c.c.c.",
"c.c.c.c.c.c.c.c.c.c.c.c.b { ( b d.d.d.d.f.d.d.m { } c j.c.c.c.c.c.c.c.c.c.c.c.c.",
"c.c.c.c.c.c.c.c.c.c.c.c.c.d.d.l.k.j.h.h.h.j.j.k.a.p.z.c.c.c.c.c.c.c.c.c.c.c.c.c.",
"c.c.c.c.c.c.c.c.c.c.c.c.c.c.c.c.c.c.c.c.c.c.c.c.c.c.c.c.c.c.c.c.c.c.c.c.c.c.c.c.",
"c.c.c.c.c.c.c.c.c.c.c.c.c.c.c.c.c.c.c.c.c.c.c.c.c.c.c.c.c.c.c.c.c.c.c.c.c.c.c.c.",
"c.c.c.c.c.c.c.c.c.c.c.c.c.c.c.c.c.c.c.c.c.c.c.c.c.c.c.c.c.c.c.c.c.c.c.c.c.c.c.c.",
"c.c.c.c.c.c.c.c.c.c.c.c.c.c.c.c.c.c.c.c.c.c.c.c.c.c.c.c.c.c.c.c.c.c.c.c.c.c.c.c.",
"c.c.c.c.c.c.c.c.c.c.c.c.c.c.c.c.c.c.c.c.c.c.c.c.c.c.c.c.c.c.c.c.c.c.c.c.c.c.c.c.",
"c.c.c.c.c.c.c.c.c.c.c.c.c.c.c.c.c.c.c.c.c.c.c.c.c.c.c.c.c.c.c.c.c.c.c.c.c.c.c.c.",
"c.c.c.c.c.c.c.c.c.c.c.c.c.c.c.c.c.c.c.c.c.c.c.c.c.c.c.c.c.c.c.c.c.c.c.c.c.c.c.c.",
"c.c.c.c.c.c.c.c.c.c.c.c.c.c.c.c.c.c.c.c.c.c.c.c.c.c.c.c.c.c.c.c.c.c.c.c.c.c.c.c.",
"c.c.c.c.c.c.c.c.c.c.c.c.c.c.c.c.c.c.c.c.c.c.c.c.c.c.c.c.c.c.c.c.c.c.c.c.c.c.c.c.",
"c.c.c.c.c.c.c.c.c.c.c.c.c.c.c.c.c.c.c.c.c.c.c.c.c.c.c.c.c.c.c.c.c.c.c.c.c.c.c.c."
};
