/* XPM */
static char *result[] = {
/* columns rows colors chars-per-pixel */
"40 40 206 2 ",
"   c #222222",
".  c #2B2828",
"X  c #352E2E",
"o  c #3E3534",
"O  c #413735",
"+  c #473B3B",
"@  c #463B3D",
"#  c #443A3F",
"$  c #453B3F",
"%  c #473C3E",
"&  c #483B3A",
"*  c #4C3F3B",
"=  c #483C3C",
"-  c #483C3E",
";  c #64403B",
":  c #674D38",
">  c #6C493B",
",  c #794430",
"<  c #7F4B34",
"1  c #7E613F",
"2  c #3F3A48",
"3  c #3C3A4D",
"4  c #3A3A50",
"5  c #3D3D52",
"6  c #433B41",
"7  c #433A42",
"8  c #423B43",
"9  c #473D41",
"0  c #463D42",
"q  c #473D42",
"w  c #473E43",
"e  c #413A45",
"r  c #443C44",
"t  c #473E45",
"y  c #473F45",
"u  c #473F47",
"i  c #483D41",
"p  c #483E43",
"a  c #4E3C41",
"s  c #443D48",
"d  c #463F4B",
"f  c #453F4D",
"g  c #423E50",
"h  c #2A724D",
"j  c #2F7D4D",
"k  c #2C6E52",
"l  c #3F7C57",
"z  c #336461",
"x  c #3D6660",
"c  c #43434D",
"v  c #47404C",
"b  c #45404F",
"n  c #48414A",
"m  c #544341",
"M  c #564541",
"N  c #5F4B47",
"B  c #585B44",
"V  c #5E574B",
"C  c #464250",
"Z  c #474250",
"A  c #464355",
"S  c #484751",
"D  c #494455",
"F  c #494654",
"G  c #41425B",
"H  c #43435A",
"J  c #454358",
"K  c #45455B",
"L  c #46455A",
"P  c #46465E",
"I  c #464859",
"U  c #424B5C",
"Y  c #444A5E",
"T  c #4A495B",
"R  c #4D4A5A",
"E  c #49495C",
"W  c #4B4A5C",
"Q  c #4E4B5D",
"!  c #4B4D5E",
"~  c #4B4C5F",
"^  c #504850",
"/  c #544A53",
"(  c #504954",
")  c #5A4E58",
"_  c #4C5B59",
"`  c #515350",
"'  c #5B5056",
"]  c #565A55",
"[  c #5B535A",
"{  c #58565A",
"}  c #53595C",
"|  c #595E58",
" . c #6B544E",
".. c #7D5C4E",
"X. c #6F5453",
"o. c #6D595B",
"O. c #775C55",
"+. c #5D6043",
"@. c #5D6250",
"#. c #5D6457",
"$. c #6A6751",
"%. c #746F54",
"&. c #4C5168",
"*. c #4F5569",
"=. c #535662",
"-. c #535164",
";. c #565464",
":. c #585461",
">. c #5D5865",
",. c #575568",
"<. c #545B6A",
"1. c #50586F",
"2. c #535671",
"3. c #525B72",
"4. c #525B73",
"5. c #615763",
"6. c #605764",
"7. c #635960",
"8. c #566279",
"9. c #63606D",
"0. c #6A646C",
"q. c #7D6C6B",
"w. c #676573",
"e. c #6E6572",
"r. c #6A6775",
"t. c #736A72",
"y. c #766F78",
"u. c #747078",
"i. c #7B767A",
"p. c #805F3C",
"a. c #8E5B3E",
"s. c #A0602B",
"d. c #855B45",
"f. c #985A46",
"g. c #9A5F4C",
"h. c #826C59",
"j. c #8A6D58",
"k. c #A3774A",
"l. c #AC7449",
"z. c #8F766E",
"x. c #489449",
"c. c #749356",
"v. c #709954",
"b. c #D68D26",
"n. c #F8D239",
"m. c #8B827D",
"M. c #998579",
"N. c #A0876F",
"B. c #A0886F",
"V. c #BA936C",
"C. c #A08375",
"Z. c #A18379",
"A. c #A9917F",
"S. c #B59179",
"D. c #BD9D7F",
"F. c #89AE66",
"G. c #5A6A84",
"H. c #5C6F88",
"J. c #5D7089",
"K. c #5C708A",
"L. c #5E728B",
"P. c #5E748D",
"I. c #5F748D",
"U. c #607791",
"Y. c #627A95",
"T. c #637C97",
"R. c #637D97",
"E. c #647E99",
"W. c #837B80",
"Q. c #598AC9",
"!. c #878285",
"~. c #8E8180",
"^. c #8A8488",
"/. c #8D888C",
"(. c #9F9898",
"). c #A28980",
"_. c #AB9B89",
"`. c #B69F82",
"'. c #A69893",
"]. c #A59C9A",
"[. c #B5A49A",
"{. c #ADA6A0",
"}. c #BCB3A5",
"|. c #C49C83",
" X c #C9A691",
".X c #C6B292",
"XX c #D0BE9C",
"oX c #C0B3A5",
"OX c #C3B4A5",
"+X c #C6B4A5",
"@X c #C8B2A3",
"#X c #C2B9AB",
"$X c #C5B8AB",
"%X c #C7BAAB",
"&X c #C1B8AE",
"*X c #CDBFB0",
"=X c #CBC1B2",
"-X c #CDC1B2",
";X c #CFC1B2",
":X c #CFC2B3",
">X c #CAC1B4",
",X c #CEC4B5",
"<X c #D1C7B8",
"1X c #D2C7B8",
"2X c #D3C9B9",
"3X c #D4CABB",
/* pixels */
"              X & &                     & & & & & & & X     & & X               ",
"              X & &                     & & & & & & & X     & & X               ",
"    . X X X X o & & X X X X X X X X X X & & & & & & & o X X & & o X X X X O * * ",
"    X & & & & & & & & & & & & L P P P P P P P P p & & & & & & & & & & & & N O.O.",
"    X & & & & & & & & & & & A 1.G.K.K.K.H.3.3.3.E t & & & & & & & & & & & N O.O.",
"& & & & & & & & & & & & = C 1.J.Y.E.E.E.T.I.8.8.4.W y & & & & & & & & & & N O.O.",
"& & & & & & & & & & & & - P 8.Y.E.E.E.E.E.E.8.8.8.&.v & & & & & & & & & & N O.O.",
"& & & & & & & & & & & % n ~ 8.L.R.E.E.E.T.P.8.8.8.*.F w & & & & & & & & & N O.O.",
"& & & & & & & & & & & q K =.8.8.L.U.U.U.P.8.8.8.8.<.! f & & & & & & & & & N O.O.",
"& & & & & & & & & & & # 5 =.8.8.8.8.8.8.8.8.8.8.8.<.I 2 & & & & & & & & & N O.O.",
"    X & & & & & & & & # 5 =.8.8.8.8.8.8.8.8.8.8.8.<.I 2 & & & & & & & & & N O.O.",
"    X & & & & & & & & # T }.}.<X3X3X3X3X3X3X3X3X#X}.i.2 & & & & & & & & & N O.O.",
"X X o & & & & & & & & # T }.}.<X3X3X3X3X3X3X3X3X#X}.i.2 & & & & & & & & & N O.O.",
"& & & & & & & & & & & 0 -.OX}.<X3X3X3X3X3X3X3X3X#XoXW.b & & & & & & & & & N O.O.",
"& & & & & & & & & & & w ,.;X=X2X!.{.3X3X3X3Xu.>X,X-X^.Z & & & & & & & & & N O.O.",
"    X & & & & & & & & % ( /.*X2Xh._.3X3X3X3X: %X:X].0.y & & & & & & & & & & & & ",
"    X & & & & & & & & & - P +X Xl.D.;X;X;X;Xs.|.@Xy.v & & & & & & & & & & & & & ",
"    X & & & & & & & & + r 6.'.g.f.Z.'.'.'.'.f.f.).t./ 9 & & & & & & & & & m N N ",
"    X & & & & & & & & # D S.Q Y U U U U U U Y ' Q z.q.Z & & & & & & & & & N O.O.",
"    X & & & & & & & & # R XXj.x k h h h h h z b.k.`.m.Z & & & & & & & & & N O.O.",
"    X & & & & & & & u r.&X4 ...XXXF.x.j l XXn.Q.e.) /.(.A & & & & & & & & & & & ",
"    X & & & & & & & u r.1X[.g ;.C.v.c.B.N.S.V.2.G ~.$X(.A & & & & & & & & & & & ",
"X X o & & & & & & & - ^ w.>., a.o._ } 5.5.5.5.d.< X.9.:.i & & & & & & & & m N N ",
"& & & & & & & & & & & % d e ; p.V ] | | | | ` 1 > a s y & & & & & & & & & N O.O.",
"& & & & & & & & & & & & & & 4 B +.@.#.#.#.#.+.+.c 7 & & & & & & & & & & & N O.O.",
"& & & & & & & & & & & & & & 4 $.%.{ J A A H %.%.S 7 & & & & & & & & & & & N O.O.",
"& & & & & & & & & & & & & & 3 M.A.7.8 & @ 3 A.A.[ 6 & & & & & & & & & & & N O.O.",
"X X o & & & & & & & & & & & & 3 4 7 & & & & 4 4 $ & & & & & & & & & & & & m N N ",
"    X & & & & & & & & & & & & & & & & & & & & & & & & & & & & & & & & & & & & & ",
"    X & & & & & & & & & & & & & & & & & & & & & & & & & & & & & & & & & & & & & ",
"    X & & & & & & & & & & & & & & & & & & & & & & & & & & & & & & & & & & & & & ",
"    X & & & & & & & & & & & & & & & & & & & & & & & & & & & & & & & & & & & & & ",
"    X & & & & & & & & & & & & & & & & & & & & & & & & & & & & & & & & & & m N N ",
"    X & & & & & & & & & & & & & & & & & & & & & & & & & & & & & & & & & & N O.O.",
"    X & & & & & & & & & & & & & & & & & & & & & & & & & & & & & & & & & & N O.O.",
"    X & & & & & & & & & & & & & & & & & & & & & & & & & & & & & & & & & & N O.O.",
"    X & & & & & & & & & & & & & & & & & & & & & & & & & & & & & & & & & & N O.O.",
"* * M N N N N m & & & & m N N & & m N N N N N N N N N m & & N N N N N N N  .O.O.",
"O.O.O.O.O.O.O.N & & & & N O.O.& & N O.O.O.O.O.O.O.O.O.N & & O.O.O.O.O.O.O.O.O.O.",
"O.O.O.O.O.O.O.N & & & & N O.O.& & N O.O.O.O.O.O.O.O.O.N & & O.O.O.O.O.O.O.O.O.O."
};
