/* XPM */
static char *b344d8165c02435cccba65d6fecf7bc98BxlviX8RVfBg1ow[] = {
/* columns rows colors chars-per-pixel */
"40 40 242 2 ",
"   c None",
".  c black",
"X  c #030100",
"o  c #070502",
"O  c #080200",
"+  c #0E0A06",
"@  c #0C050C",
"#  c #190800",
"$  c #1E0901",
"%  c #1A150B",
"&  c #19150F",
"*  c #180018",
"=  c #210600",
"-  c #200F07",
";  c #2C0E01",
":  c #330900",
">  c #350900",
",  c #370B00",
"<  c #3C0C00",
"1  c #3D0C00",
"2  c #341A00",
"3  c #33110B",
"4  c #261B1E",
"5  c #3A2E00",
"6  c #2F2513",
"7  c #352814",
"8  c #150926",
"9  c #180A26",
"0  c #1A0D2F",
"q  c #1A0D30",
"w  c #1A0C32",
"e  c #190E34",
"r  c #200C28",
"t  c #3B132C",
"y  c #39172E",
"u  c #2B133D",
"i  c #3F153A",
"p  c #3A183E",
"a  c #382421",
"s  c #430D00",
"d  c #4E0E00",
"f  c #471000",
"g  c #481801",
"h  c #48140C",
"j  c #4D1B0F",
"k  c #521000",
"l  c #531100",
"z  c #551302",
"x  c #551700",
"c  c #5A1100",
"v  c #5D1300",
"b  c #5E1F00",
"n  c #5F100D",
"m  c #5C150F",
"M  c #5C1F0C",
"N  c #451C14",
"B  c #621400",
"V  c #6C1602",
"C  c #62160A",
"Z  c #701600",
"A  c #761802",
"S  c #7A1B0F",
"D  c #671712",
"F  c #46280E",
"G  c #413F00",
"H  c #4E3E00",
"J  c #4C271A",
"K  c #632100",
"L  c #692404",
"P  c #692900",
"I  c #792700",
"U  c #693900",
"Y  c #642F13",
"T  c #58182B",
"R  c #5B192C",
"E  c #53043E",
"W  c #541A3E",
"Q  c #551A3E",
"!  c #720F26",
"~  c #631A2B",
"^  c #69083E",
"/  c #74202D",
"(  c #4E4402",
")  c #544300",
"_  c #795300",
"`  c #726D00",
"'  c #251145",
"]  c #27144E",
"[  c #2A1550",
"{  c #351857",
"}  c #3E1956",
"|  c #35185D",
" . c #331A65",
".. c #3B1D73",
"X. c #4B004B",
"o. c #4C004B",
"O. c #580444",
"+. c #520D41",
"@. c #521B45",
"#. c #5C1D48",
"$. c #570153",
"%. c #511D54",
"&. c #6D174F",
"*. c #411C64",
"=. c #461E6B",
"-. c #620062",
";. c #630063",
":. c #680164",
">. c #680265",
",. c #70006E",
"<. c #7A0079",
"1. c #432077",
"2. c #801900",
"3. c #821B00",
"4. c #831C00",
"5. c #811E00",
"6. c #801904",
"7. c #8E1C00",
"8. c #8B1A09",
"9. c #931E00",
"0. c #961E00",
"q. c #961E01",
"w. c #901D04",
"e. c #9A1F02",
"r. c #871E14",
"t. c #81131F",
"y. c #89151D",
"u. c #8E2003",
"i. c #882D00",
"p. c #8A2E00",
"a. c #8B2E00",
"s. c #972000",
"d. c #9E2000",
"f. c #932C00",
"g. c #9F2800",
"h. c #873200",
"j. c #963200",
"k. c #A22000",
"l. c #A72203",
"z. c #A12005",
"x. c #A92100",
"c. c #A32900",
"v. c #B02400",
"b. c #B52400",
"n. c #B42401",
"m. c #B72403",
"M. c #B92500",
"N. c #B82501",
"B. c #BB2600",
"V. c #BF2602",
"C. c #BF2801",
"Z. c #852225",
"A. c #8C2320",
"S. c #C02600",
"D. c #C32700",
"F. c #C72800",
"G. c #C92800",
"H. c #CC2900",
"J. c #CE2900",
"K. c #CF2900",
"L. c #D12A00",
"P. c #D52B00",
"I. c #D72B00",
"U. c #DA2C00",
"Y. c #DB2C00",
"T. c #D7360E",
"R. c #E22D00",
"E. c #E62E00",
"W. c #E82F00",
"Q. c #EB2F00",
"!. c #ED3000",
"~. c #F03000",
"^. c #F13000",
"/. c #F23000",
"(. c #F43100",
"). c #F53100",
"_. c #F63100",
"`. c #F63200",
"'. c #F73200",
"]. c #F83100",
"[. c #FB3200",
"{. c #FD3300",
"}. c #FE3300",
"|. c #FF3300",
" X c #FF3604",
".X c #845D00",
"XX c #9C4919",
"oX c #876A02",
"OX c #917300",
"+X c #977A00",
"@X c #FF4011",
"#X c #FF4314",
"$X c #FE4415",
"%X c #E24E28",
"&X c #FF5328",
"*X c #FF5329",
"=X c #FF562C",
"-X c #FF5B32",
";X c #FF5C33",
":X c #918E00",
">X c #998D00",
",X c #A08001",
"<X c #AC8802",
"1X c #A69000",
"2X c #A3A100",
"3X c #A5A500",
"4X c #C0C000",
"5X c #C5C300",
"6X c #C5C400",
"7X c #C7C700",
"8X c #CCCB00",
"9X c #D6D600",
"0X c #E0E000",
"qX c #E3E300",
"wX c #E9E903",
"eX c #F2F200",
"rX c yellow",
"tX c #412080",
"yX c #452283",
"uX c #432284",
"iX c #4B2282",
"pX c #472289",
"aX c #47248D",
"sX c #48238D",
"dX c #4B2593",
"fX c #4C2697",
"gX c #4F2699",
"hX c #5328A0",
"jX c #552AAA",
"kX c #552BAB",
"lX c #582BAE",
"zX c #582CAF",
"xX c #5A2CB3",
"cX c #5E2FBC",
"vX c #6030C0",
"bX c #6231C3",
"nX c #6632CB",
"mX c #8D008D",
"MX c #930093",
"NX c #950095",
"BX c #960096",
"VX c #990099",
/* pixels */
"                                                                                ",
"                                                                                ",
"                                                                                ",
"                                                                                ",
"                                                                                ",
"                                                                                ",
"                                                                                ",
"                                                                                ",
"                                                                                ",
"                                                                                ",
"                                    k d                                         ",
"                                X.o.6.C ;.:.*                                   ",
"                            5 +.VXVXMXmXNXVX>.+X)                               ",
"                            OX&.,.^ t.y.! O.>.<X+X                              ",
"                          e H h F.|.|.|.|.Q.Z .XoX                              ",
"                         .jXg I.|.|.|.|.|.|.R.s.a uX8                           ",
"                  1 J.F.gXyXT.=X X|.|.|.|.|.|.U.D zXaXV B                       ",
"                  V.|.v.jXQ *X*X|.|._.^.|.|.|.!.l.=.sXM._.7.                    ",
"                v |.|.q.zXZ.;X#X|.E.E $.m.|.|._.G.@.hXz.|.[.,                   ",
"                l |.|.S xXA.;X@X|.S.<.NX8.|.|._.G.Q lXr.|.|.c                   ",
"                % S./.#.bX/ ;X$XL.c.F J c.P.|.^.M.%.cX~ |._.$                   ",
"                % Y e.iXnXi %XXX>X8X0X0X6X1Xf.U.q.{ cX} _.u.+                   ",
"                  6 4 tX1.M ( wXrXrXrXrXrXrX9XU x j gXdXN 7                     ",
"                    o @ L j.2 :XrXrXrXrXrXeX4XG b a.y [ &                       ",
"                      . ; K u C _ 2X6X7X3X` P t p a.I #                         ",
"                      . l A | *.m 4.a.h.5.2.R pX..3 f .                         ",
"                      O _.|.E.w.q q 9 r q ' ] T l.!._.s                         ",
"                        M.|.|.v.              2.|.|.J.,                         ",
"                        = k.9.,                 d.n.1                           ",
"                                                                                ",
"                                                                                ",
"                                                                                ",
"                                                                                ",
"                                                                                ",
"                                                                                ",
"                                                                                ",
"                                                                                ",
"                                                                                ",
"                                                                                ",
"                                                                                "
};
