/* XPM */
static char *_f7235886ebd4cb4f00ba3137df600ceMwbPG12BopRFR1Wt[] = {
/* columns rows colors chars-per-pixel */
"50 50 62 1 ",
"  c None",
". c #1E1832",
"X c #1F1833",
"o c gray13",
"O c #222222",
"+ c #222223",
"@ c #232323",
"# c #563930",
"$ c #6B513C",
"% c #2D2755",
"& c #2D3859",
"* c #332C61",
"= c #3D3C6F",
"- c #3C3778",
"; c #334A5B",
": c #314365",
"> c #3C5D77",
", c #6B6965",
"< c #7A7065",
"1 c #8A503E",
"2 c #8A513F",
"3 c #90684A",
"4 c #9F684A",
"5 c #9E7570",
"6 c #A77A6A",
"7 c #B48057",
"8 c #B58057",
"9 c #A2866F",
"0 c #AE8773",
"q c #3A5880",
"w c #4A469A",
"e c #4A579E",
"r c #5956BC",
"t c #5956BD",
"y c #5A57BD",
"u c #5866C1",
"i c #5777C4",
"p c #876B8A",
"a c #7392AA",
"s c #5787C8",
"d c #5698CB",
"f c #5698CC",
"g c #5798CC",
"h c #8F8B87",
"j c #8F8C87",
"k c #B99584",
"l c #A58790",
"z c #B1A698",
"x c #B4B0AA",
"c c #C3A395",
"v c #D9BBA2",
"b c #D3BFA9",
"n c #C6C2BA",
"m c #80B0D4",
"M c #ABA6D5",
"N c #A9C7DC",
"B c #E8DBCB",
"V c #FAF4EA",
"C c #FBF5EB",
"Z c #FCF6EC",
"A c #FCF7ED",
"S c #FDF7ED",
/* pixels */
"          XXXXX                                   ",
"          XXXXX                                   ",
"          XX%--..                                 ",
"          XX-ttXX.                                ",
"          XX-ttXX.                                ",
"          XX-tttt-XXXXXXXXX.                      ",
"          XX-tttt-XXXXXXXXX.                      ",
"          ..*--ttw-------qq:....                  ",
"            ...ttttttttttgfqXXXX.                 ",
"            ...ttttttttttgfqXXXX.                 ",
"          XX-ttrttttffffggffffffqXX               ",
"          XX-ttrttttffffggffffffqXX               ",
"          XX*--rtuiifffffffsiiiie--.X             ",
"            XX.rtifffffffffitttttttXXX            ",
"            XXXrtifffffffffitttttttXXX            ",
"          XX-rrrttttffffffffffffffffg>XX          ",
"          XX-yrrttttggggggggggffgggggqXX          ",
"        XXXX%-------qqqqqqqqqqqqq>qqq&XXXX        ",
"       XXXXXXXXXXXXXXXXXXXXXXXXXXXXXXXXXXXX       ",
"       XXXXXXXXXXXXXXXXXXXXXXXXXXXXXXXXXXXX       ",
"       +++bbbbbbb021CAAAC8886888vSSSSj++          ",
"       +++bbbbbbb022AAAAZ8888888vSSSSjO+          ",
"        ++<<zBBBBk22hhhh978888889jjjj,++          ",
"          OOhSSSAc22++++@7888888$OOOOO            ",
"          +@hSSSSc11OOOO@7777777$OOOOO            ",
"       +OOAASSS11111OOOO@7777787$OOOOO            ",
"       +OOSSSSS21111OOOO@7778888$OOOOO            ",
"        O+jjnSScc611#####77788883$$OOO@@          ",
"          @+jSSSSc11211128888888887OOO++          ",
"          ++jSSSSc22221128888888877OO+++          ",
"          OOjSSSSSSS224888888888777OOO            ",
"          OOjSSSSSSS224888888888777OOO            ",
"        ++jjnSSSSSSScclpppp588pppppjh,OO          ",
"       +++SSSSSSSSSSSSMttttp88yyryySShOO          ",
"       +@@SSSSSSASAASSMutttp68ttryySShO+          ",
"     ++jSSSSSSSSANggSSNgffffffffdddSSSSS+++       ",
"     ++jSSSSSSSSSNggSSNfffffffffdddAAAAS+++       ",
"     ++hVVjjnSSjjaggNNgfffffffffdddjjxSV++        ",
"          OOhSS+@>ggggffffffffffdfd+@+            ",
"          OOjSS+@>ggggffffffffffggd+@@            ",
"            +++dffffffffffffffff>++               ",
"            +++dffffffffffffffff>++               ",
"          ++;>>dffffffffffffffff>++               ",
"          ++>dddffffffffffffffff>O+               ",
"          ++>fffffffffffffffdggf>++               ",
"       +++ttyyyyttttttttrrrryyrrrrr+O+            ",
"       +++rtrrrrttttttttttttryrrrrr+++            ",
"       +++=========================+++            ",
"       +++OOOOOOOOOOOOOOOOOOOOOO++OOOO            ",
"       +++OOOOOOOOOOOOOOOOOOOOOOOOOOOO            "
};
