/* XPM */
static char *_5aaf698315c4a3790a5824b70e94349fMtPW7EmL5XWIAy4[] = {
/* columns rows colors chars-per-pixel */
"40 40 255 2 ",
"   c None",
".  c black",
"X  c #010000",
"o  c #010100",
"O  c #030100",
"+  c #040000",
"@  c #050100",
"#  c #050503",
"$  c #0B0300",
"%  c #08040E",
"&  c #180300",
"*  c #12081F",
"=  c #210700",
"-  c #240700",
";  c #2B0700",
":  c #200B01",
">  c #2A0800",
",  c #2E0A00",
"<  c #220F09",
"1  c #300F01",
"2  c #3A0B00",
"3  c #261400",
"4  c #351500",
"5  c #3A1300",
"6  c #280F10",
"7  c #2F1019",
"8  c #3D2F01",
"9  c #2F2712",
"0  c #110924",
"q  c #130926",
"w  c #1F0C23",
"e  c #160A2A",
"r  c #180A29",
"t  c #1E0E35",
"y  c #250D27",
"u  c #350135",
"i  c #2E1436",
"p  c #3B2D20",
"a  c #430E00",
"s  c #4C0E00",
"d  c #4D0F00",
"f  c #541700",
"g  c #591300",
"h  c #5B1300",
"j  c #5C1F00",
"k  c #561708",
"l  c #511F08",
"z  c #441810",
"x  c #4D1B14",
"c  c #481E1A",
"v  c #511311",
"b  c #5C1512",
"n  c #631400",
"m  c #621600",
"M  c #671502",
"N  c #681500",
"B  c #6C1500",
"V  c #6D1500",
"C  c #6E1600",
"Z  c #6F1600",
"A  c #6E1700",
"S  c #6F1700",
"D  c #631F00",
"F  c #761901",
"G  c #7C1900",
"H  c #7A1C01",
"J  c #7C1C01",
"K  c #6E1A1E",
"L  c #721B1F",
"P  c #741C1E",
"I  c #59250B",
"U  c #493801",
"Y  c #4B3A00",
"T  c #533F09",
"R  c #492E13",
"E  c #672200",
"W  c #6F2000",
"Q  c #752700",
"!  c #772800",
"~  c #772A00",
"^  c #7B2A00",
"/  c #7D2901",
"(  c #4B1C20",
")  c #45073A",
"_  c #5F0739",
"`  c #531833",
"'  c #77102A",
"]  c #711D2C",
"[  c #731E2E",
"{  c #7B1E28",
"}  c #61073E",
"|  c #631D3A",
" . c #661D3C",
".. c #463224",
"X. c #614900",
"o. c #7D4800",
"O. c #7E5F00",
"+. c #7C7503",
"@. c #644922",
"#. c #715B2D",
"$. c #1F1040",
"%. c #241246",
"&. c #281649",
"*. c #331441",
"=. c #36174E",
"-. c #38194D",
";. c #361950",
":. c #361B52",
">. c #39195E",
",. c #3B1A60",
"<. c #5A1244",
"1. c #5F1D42",
"2. c #6F0940",
"3. c #650452",
"4. c #600255",
"5. c #6F0652",
"6. c #481D65",
"7. c #481E68",
"8. c #6A0163",
"9. c #690166",
"0. c #6A006A",
"q. c #740074",
"w. c #770077",
"e. c #7E007E",
"r. c #48256F",
"t. c #831A00",
"y. c #821F00",
"u. c #861C01",
"i. c #851F02",
"p. c #861A07",
"a. c #8A1C00",
"s. c #8A1C01",
"d. c #891A06",
"f. c #931E01",
"g. c #951D00",
"h. c #981F00",
"j. c #911B0B",
"k. c #911C0B",
"l. c #8E1818",
"z. c #832200",
"x. c #8F2405",
"c. c #842C01",
"v. c #892D00",
"b. c #892708",
"n. c #9E2300",
"m. c #943400",
"M. c #A52100",
"N. c #A62101",
"B. c #A72101",
"V. c #AC2200",
"C. c #AF2300",
"Z. c #A72E08",
"A. c #A42B0E",
"S. c #B52500",
"D. c #BD2500",
"F. c #AA3400",
"G. c #B33414",
"H. c #C02601",
"J. c #C32700",
"K. c #C42700",
"L. c #C62700",
"P. c #C92800",
"I. c #CB2800",
"U. c #D32A00",
"Y. c #D42A00",
"T. c #D82B00",
"R. c #D92B00",
"E. c #DA2C00",
"W. c #DC2C00",
"Q. c #DD2C00",
"!. c #DF2D00",
"~. c #CE3C17",
"^. c #D73E18",
"/. c #E22D00",
"(. c #E32D00",
"). c #E52E00",
"_. c #EA2F00",
"`. c #ED2F00",
"'. c #EE3000",
"]. c #F23000",
"[. c #F43100",
"{. c #F53100",
"}. c #F63100",
"|. c #F63302",
" X c #FA3100",
".X c #FD3300",
"XX c #FE3200",
"oX c #FE3300",
"OX c #FF3300",
"+X c #FF3503",
"@X c #FF3B09",
"#X c #FF3F0F",
"$X c #8D6F03",
"%X c #8A7C06",
"&X c #A17E00",
"*X c #BD5126",
"=X c #886D35",
"-X c #886C37",
";X c #906F37",
":X c #8D7139",
">X c #94773C",
",X c #F2451A",
"<X c #FF4F24",
"1X c #FF5B32",
"2X c #FF5C33",
"3X c #8E8C00",
"4X c #8E8E00",
"5X c #A29300",
"6X c #BC9400",
"7X c #A3A300",
"8X c #A4A300",
"9X c #AEAD00",
"0X c #B9B900",
"qX c #C2C200",
"wX c #D6D600",
"eX c #DCDB00",
"rX c #FFCC00",
"tX c #EEEE00",
"yX c #F5F500",
"uX c #F8F800",
"iX c #FEFE00",
"pX c yellow",
"aX c #AF8B46",
"sX c #D7AB55",
"dX c #D7AC56",
"fX c #EDBE5F",
"gX c #F9C763",
"hX c #FFCB66",
"jX c #472389",
"kX c #46228A",
"lX c #4A248C",
"zX c #4B2591",
"xX c #4A2593",
"cX c #4C2591",
"vX c #4D2594",
"bX c #4E2594",
"nX c #4E2696",
"mX c #4E279C",
"MX c #50289E",
"NX c #5229A3",
"BX c #5429A6",
"VX c #582BAF",
"CX c #582CB1",
"ZX c #5A2CB3",
"AX c #5B2EB5",
"SX c #5E2FBC",
"DX c #6030BE",
"FX c #6131C3",
"GX c #6633CC",
"HX c #8B008B",
"JX c #8C008C",
"KX c #8E008E",
"LX c #970097",
"PX c #980098",
"IX c #990099",
/* pixels */
"                                                                                ",
"                                                                                ",
"                                                                                ",
"                                                                                ",
"                                                                                ",
"                                                                                ",
"                                                                                ",
"                                                                                ",
"                                                                                ",
"                                      > V -                                     ",
"                          V G 3 7 0.HX3.' 5.q.u                                 ",
"                        V }.F.6X<.IXLXKXKXIXIXw.U                               ",
"                        s I.o.rX) _ d.N.B.d.2.9.$XY                             ",
"                      . $ 1 T &XM U.OXOX.X.X).j.8 ..p >X9                       ",
"                      . * zX:.z.!.OXOXOX.X.X.X@Xi.r.NXc x.N                     ",
"                      % mXGX` J. XOXOXOX.X.X.X<X,X| DX{ .X.Xn                   ",
"                    , v SXCXs.T.OXOXOXT.D.}.OX,X1XZ.CX[ .X.XV                   ",
"                    t.L.bXzXC./.OXOXU.} 9.j.OXOX1X~.bX ..X.Xh                   ",
"                    ]..X7.lXC./.OXOXL.4.e.l..X.X1X^.bX6..X}.                    ",
"                  s .X.X1.BXf.W.OX'.n.I R ^ S.}.1XG.VXkXW.N.                    ",
"                  F .X.X] mXh P.m.5XtXiXiXiXeX%X*Xg AXFXb a                     ",
"                  V .X.X{ i E f 9XiXiXiXiXiXiXiX+.I -.vXe                       ",
"                    b.Z.l Q / < 3XwXyXiXiXiXuX7X4 Q v.:                         ",
"                    =XsX:X/ ( ,.W X.3X0XqX8XO.Q *.z 5 .                         ",
"                    #.gXfX@.&.kX>.L i.J H F K =.:.x . .                         ",
"                      aXhXdX# q t %.t y y r q 6 c.E . .                         ",
"                        -X:X                + S y.h.- .                         ",
"                                            2 `..X.Xg.+                         ",
"                                            > T..X.Xa.                          ",
"                                              g `.D.&                           ",
"                                                                                ",
"                                                                                ",
"                                                                                ",
"                                                                                ",
"                                                                                ",
"                                                                                ",
"                                                                                ",
"                                                                                ",
"                                                                                ",
"                                                                                "
};
