/* XPM */
static char *result[] = {
/* columns rows colors chars-per-pixel */
"40 40 160 2 ",
"   c #0B0807",
".  c #1C0A01",
"X  c #2B0F01",
"o  c #341605",
"O  c #281C1F",
"+  c #20200F",
"@  c #362C17",
"#  c #1D1128",
"$  c #1C0D31",
"%  c #210D29",
"&  c #3A162D",
"*  c #2C193A",
"=  c #3D173C",
"-  c #392420",
";  c #302436",
":  c #471100",
">  c #481801",
",  c #4B180D",
"<  c #541400",
"1  c #5D130E",
"2  c #5D1F0A",
"3  c #681807",
"4  c #701600",
"5  c #781A08",
"6  c #671712",
"7  c #46290E",
"8  c #5F2000",
"9  c #413F00",
"0  c #4F3E00",
"q  c #4C271A",
"w  c #5A2F11",
"e  c #483719",
"r  c #622000",
"t  c #692602",
"y  c #782800",
"u  c #693900",
"i  c #643013",
"p  c #763A15",
"a  c #59192C",
"s  c #53043E",
"d  c #541A3E",
"f  c #720F26",
"g  c #631B2C",
"h  c #74202E",
"j  c #4D4402",
"k  c #5D5518",
"l  c #795300",
"z  c #754019",
"x  c #726D00",
"c  c #4C4923",
"v  c #565328",
"b  c #5A572A",
"n  c #584932",
"m  c #6E4E22",
"M  c #755E2B",
"N  c #6F612E",
"B  c #77612D",
"V  c #6E6B34",
"C  c #717137",
"Z  c #737139",
"A  c #7C7C3D",
"S  c #2A1746",
"D  c #291550",
"F  c #381958",
"G  c #342250",
"H  c #3C2465",
"J  c #540946",
"K  c #521B45",
"L  c #5D1D4C",
"P  c #580052",
"I  c #511D55",
"U  c #6C174F",
"Y  c #441D68",
"T  c #660264",
"R  c #690D64",
"E  c #70006E",
"W  c #7A0079",
"Q  c #442077",
"!  c #4A4240",
"~  c #5F5940",
"^  c #811B02",
"/  c #8A1A09",
"(  c #941E02",
")  c #9A1F01",
"_  c #891A19",
"`  c #892204",
"'  c #892E00",
"]  c #962302",
"[  c #942E06",
"{  c #9F2800",
"}  c #873200",
"|  c #953200",
" . c #A42204",
".. c #A82200",
"X. c #A22904",
"o. c #B52401",
"O. c #BC2501",
"+. c #801420",
"@. c #882323",
"#. c #C32700",
"$. c #C42901",
"%. c #CD2900",
"&. c #D32B00",
"*. c #DA2C00",
"=. c #D7360E",
"-. c #E52E01",
";. c #EC2F00",
":. c #F43100",
">. c #FF3300",
",. c #845D00",
"<. c #9B4919",
"1. c #866B03",
"2. c #917401",
"3. c #805726",
"4. c #807525",
"5. c #887E3D",
"6. c #FF4213",
"7. c #E24F29",
"8. c #FF5429",
"9. c #FF5C33",
"0. c #807F40",
"q. c #928F00",
"w. c #A78402",
"e. c #A78F00",
"r. c #A4A300",
"t. c #81803E",
"y. c #C4C400",
"u. c #CCCB00",
"i. c #D5D500",
"p. c #E2E200",
"a. c #EAEA03",
"s. c #F2F200",
"d. c #FFFF00",
"f. c #848341",
"g. c #8D8D45",
"h. c #959349",
"j. c #9B9B4C",
"k. c #A2A24F",
"l. c #A4A350",
"z. c #ACAD54",
"x. c #B2B257",
"c. c #B5B659",
"v. c #BCBD5C",
"b. c #C2C35F",
"n. c #C5C661",
"m. c #CACB63",
"M. c #442282",
"N. c #492387",
"B. c #48238B",
"V. c #4B2695",
"C. c #4F2798",
"Z. c #5328A0",
"A. c #552BAB",
"S. c #582CAE",
"D. c #5C2EB8",
"F. c #6131C3",
"G. c #6533CB",
"H. c #8E008E",
"J. c #950095",
"K. c #990099",
/* pixels */
"m.m.m.m.m.m.m.m.m.m.m.m.m.m.m.m.m.m.m.m.m.m.m.m.m.m.m.m.m.m.m.m.m.m.m.m.m.m.m.m.",
"m.m.m.m.m.m.m.m.m.m.m.m.m.m.m.m.m.m.m.m.m.m.m.m.m.m.m.m.m.m.m.m.m.m.m.m.m.m.m.m.",
"m.m.m.m.m.m.m.m.m.m.m.m.m.m.m.m.m.m.m.m.m.m.m.m.m.m.m.m.m.m.m.m.m.m.m.m.m.m.m.m.",
"m.m.m.m.m.m.m.m.m.m.m.m.m.m.m.m.m.m.m.m.m.m.m.m.m.m.m.m.m.m.m.m.m.m.m.m.m.m.m.m.",
"m.m.m.m.m.m.m.m.m.m.m.m.m.m.m.m.m.m.m.m.m.m.m.m.m.m.m.m.m.m.m.m.m.m.m.m.m.m.m.m.",
"m.m.m.m.m.m.m.m.m.m.m.m.m.m.m.m.m.m.m.m.m.m.m.m.m.m.m.m.m.m.m.m.m.m.m.m.m.m.m.m.",
"m.m.m.m.m.m.m.m.m.m.m.m.m.m.m.m.m.m.m.m.m.m.m.m.m.m.m.m.m.m.m.m.m.m.m.m.m.m.m.m.",
"m.m.m.m.m.m.m.m.m.m.m.m.m.m.m.m.m.m.m.m.m.m.m.m.m.m.m.m.m.m.m.m.m.m.m.m.m.m.m.m.",
"m.m.m.m.m.m.m.m.m.m.m.m.m.m.m.m.m.m.m.m.m.m.m.m.m.m.m.m.m.m.m.m.m.m.m.m.m.m.m.m.",
"m.m.m.m.m.m.m.m.m.m.m.m.m.m.m.m.m.m.m.m.m.m.m.m.m.m.m.m.m.m.m.m.m.m.m.m.m.m.m.m.",
"m.m.m.m.m.m.m.m.m.m.m.m.m.b.h.j.v.x.x.x.z.x.v.v.b.k.k.m.m.m.m.m.m.m.m.m.m.m.m.m.",
"m.m.m.m.m.m.m.m.m.m.m.m.c.m o. .V k.k.k.k.k.k.k.B ] X.N m.m.m.m.m.m.m.m.m.m.m.m.",
"m.m.m.m.m.m.m.m.m.m.b.z.M %.>.>.` t.t.A A 0.g.t.o.>.>.O.5.v.n.m.m.m.m.m.m.m.m.m.",
"m.m.m.m.m.m.m.m.m.v.k.k.w :.;...a G S $ % # ; * ` -.>.:.c k.x.m.m.m.m.m.m.m.m.m.",
"m.m.m.m.m.m.m.m.v.l.k.k.  : o Q B.a ^ ` } ' 5 1 Y F 5 < + j.l.z.m.m.m.m.m.m.m.m.",
"m.m.m.m.m.m.m.m.k.k.k.g.. y ' S & t x r.y.y.r.l 3 * r X   f.l.l.v.m.m.m.m.m.m.m.",
"m.m.m.m.m.m.m.v.l.l.Z @ D & } 8 9 y.s.d.d.d.d.d.q.o | t   b j.l.x.m.m.m.m.m.m.m.",
"m.m.m.m.m.m.m.v.k.g.@ 7 V.C., < u i.d.d.d.d.d.d.a.j 8 Q B.O b h.z.m.m.m.m.m.m.m.",
"m.m.m.m.m.m.m.n.k.v ] :.F D.F ] *.| e.y.p.p.u.q.<.7.= G.M.) i v x.m.m.m.m.m.m.m.",
"m.m.m.m.m.m.m.m.z.e :.>.g F.I O.;.>.%.{ q 7 X.&.6.9.h F.L :.O.@ b.m.m.m.m.m.m.m.",
"m.m.m.m.m.m.m.m.b.z >.>._ S.d %.:.>.>./ K.W O.>.6.9._ D.5 >.>.2 m.m.m.m.m.m.m.m.",
"m.m.m.m.m.m.m.m.m.B :.>. .Z.K $.:.>.>.o.P s -.>.6.9.@.S.) >.:.p m.m.m.m.m.m.m.m.",
"m.m.m.m.m.m.m.m.m.c.[ :.O.B.Y ..;.>.>.>.:.:.>.>.8.8.d A.o.>.$.5.m.m.m.m.m.m.m.m.",
"m.m.m.m.m.m.m.m.m.m.j.p 4 V.S.6 *.>.>.>.>.>.>.>.8.=.M.C.#.&.m b.m.m.m.m.m.m.m.m.",
"m.m.m.m.m.m.m.m.m.m.m.m.n.~ N.- ( -.>.>.>.>.>.>.*.> A.H C g.m.m.m.m.m.m.m.m.m.m.",
"m.m.m.m.m.m.m.m.m.m.m.m.m.n.Z 1.,.4 ;.>.>.>.>.#., 0 ! k.m.m.m.m.m.m.m.m.m.m.m.m.",
"m.m.m.m.m.m.m.m.m.m.m.m.m.m.z.2.w.T J f _ +.U E U 2.z.m.m.m.m.m.m.m.m.m.m.m.m.m.",
"m.m.m.m.m.m.m.m.m.m.m.m.m.m.b.4.w.T K.J.H.J.K.K.J k n.m.m.m.m.m.m.m.m.m.m.m.m.m.",
"m.m.m.m.m.m.m.m.m.m.m.m.m.m.m.n.f.n R T 3 5 P L f.n.m.m.m.m.m.m.m.m.m.m.m.m.m.m.",
"m.m.m.m.m.m.m.m.m.m.m.m.m.m.m.m.m.n.l.j.3.M h.c.m.m.m.m.m.m.m.m.m.m.m.m.m.m.m.m.",
"m.m.m.m.m.m.m.m.m.m.m.m.m.m.m.m.m.m.m.m.m.m.m.m.m.m.m.m.m.m.m.m.m.m.m.m.m.m.m.m.",
"m.m.m.m.m.m.m.m.m.m.m.m.m.m.m.m.m.m.m.m.m.m.m.m.m.m.m.m.m.m.m.m.m.m.m.m.m.m.m.m.",
"m.m.m.m.m.m.m.m.m.m.m.m.m.m.m.m.m.m.m.m.m.m.m.m.m.m.m.m.m.m.m.m.m.m.m.m.m.m.m.m.",
"m.m.m.m.m.m.m.m.m.m.m.m.m.m.m.m.m.m.m.m.m.m.m.m.m.m.m.m.m.m.m.m.m.m.m.m.m.m.m.m.",
"m.m.m.m.m.m.m.m.m.m.m.m.m.m.m.m.m.m.m.m.m.m.m.m.m.m.m.m.m.m.m.m.m.m.m.m.m.m.m.m.",
"m.m.m.m.m.m.m.m.m.m.m.m.m.m.m.m.m.m.m.m.m.m.m.m.m.m.m.m.m.m.m.m.m.m.m.m.m.m.m.m.",
"m.m.m.m.m.m.m.m.m.m.m.m.m.m.m.m.m.m.m.m.m.m.m.m.m.m.m.m.m.m.m.m.m.m.m.m.m.m.m.m.",
"m.m.m.m.m.m.m.m.m.m.m.m.m.m.m.m.m.m.m.m.m.m.m.m.m.m.m.m.m.m.m.m.m.m.m.m.m.m.m.m.",
"m.m.m.m.m.m.m.m.m.m.m.m.m.m.m.m.m.m.m.m.m.m.m.m.m.m.m.m.m.m.m.m.m.m.m.m.m.m.m.m.",
"m.m.m.m.m.m.m.m.m.m.m.m.m.m.m.m.m.m.m.m.m.m.m.m.m.m.m.m.m.m.m.m.m.m.m.m.m.m.m.m."
};
