/* XPM */
static char *d11b7b7be3cb4066f6208634c77372cboGoKKYuGkzbfKmHf[] = {
/* columns rows colors chars-per-pixel */
"40 40 255 2 ",
"   c None",
".  c black",
"X  c #010000",
"o  c #010100",
"O  c #020000",
"+  c #040100",
"@  c #050100",
"#  c #070704",
"$  c #090200",
"%  c #06040E",
"&  c #160400",
"*  c #0F061D",
"=  c #10081F",
"-  c #280700",
";  c #270800",
":  c #210D06",
">  c #290800",
",  c #2A0800",
"<  c #280C01",
"1  c #360B00",
"2  c #3B0A00",
"3  c #3F0E00",
"4  c #291300",
"5  c #331101",
"6  c #3B1201",
"7  c #3A1E00",
"8  c #3F170E",
"9  c #210816",
"0  c #311113",
"q  c #3C2E01",
"w  c #332915",
"e  c #3F2F1F",
"r  c #140921",
"t  c #160A27",
"y  c #160B29",
"u  c #1D0E33",
"i  c #210C23",
"p  c #230D25",
"a  c #360135",
"s  c #3B2D21",
"d  c #460D00",
"f  c #491805",
"g  c #45100F",
"h  c #551100",
"j  c #561000",
"k  c #551200",
"l  c #5F1200",
"z  c #571800",
"x  c #591D00",
"c  c #56130C",
"v  c #44191E",
"b  c #501C15",
"n  c #611300",
"m  c #651400",
"M  c #661500",
"N  c #6C1600",
"B  c #6E1700",
"V  c #6F1700",
"C  c #621D00",
"Z  c #631906",
"A  c #701700",
"S  c #721700",
"D  c #7F1707",
"F  c #721A00",
"G  c #731802",
"H  c #7E1900",
"J  c #7E1A02",
"K  c #791C01",
"L  c #7C1C01",
"P  c #7F1E00",
"I  c #7F1806",
"U  c #731B1D",
"Y  c #492207",
"T  c #4C3D00",
"R  c #503015",
"E  c #662200",
"W  c #692100",
"Q  c #752700",
"!  c #7E2300",
"~  c #792800",
"^  c #792900",
"/  c #7C2900",
"(  c #792E00",
")  c #430738",
"_  c #581935",
"`  c #5A1C3F",
"'  c #6B1A20",
"]  c #771D21",
"[  c #77102B",
"{  c #711E2E",
"}  c #7C1F28",
"|  c #61073F",
" . c #66093B",
".. c #66083D",
"X. c #621C3A",
"o. c #601D3C",
"O. c #572523",
"+. c #544202",
"@. c #534009",
"#. c #6D5600",
"$. c #725200",
"%. c #7F6303",
"&. c #777104",
"*. c #6D4E25",
"=. c #655129",
"-. c #7D6432",
";. c #231342",
":. c #231146",
">. c #2B1243",
",. c #28144F",
"<. c #351740",
"1. c #3E1745",
"2. c #38194C",
"3. c #3C1B54",
"4. c #36195D",
"5. c #3E2155",
"6. c #5C044A",
"7. c #431B5F",
"8. c #631648",
"9. c #660453",
"0. c #650259",
"q. c #65025D",
"w. c #431C62",
"e. c #431D66",
"r. c #660066",
"t. c #6C0068",
"y. c #720072",
"u. c #7B007B",
"i. c #7F007F",
"p. c #442270",
"a. c #801B00",
"s. c #801A01",
"d. c #841A00",
"f. c #881C01",
"g. c #8E1D00",
"h. c #8F1B07",
"j. c #951E00",
"k. c #961F01",
"l. c #801516",
"z. c #A51D11",
"x. c #8D2304",
"c. c #802B01",
"v. c #842C00",
"b. c #872A0A",
"n. c #972000",
"m. c #992501",
"M. c #922900",
"N. c #9D3900",
"B. c #A22000",
"V. c #A52100",
"C. c #A62101",
"Z. c #A72102",
"A. c #AB2200",
"S. c #AE2500",
"D. c #A72E09",
"F. c #A52B0E",
"G. c #B12400",
"H. c #BC2500",
"J. c #BE2600",
"K. c #B03415",
"L. c #C22700",
"P. c #C42700",
"I. c #C72700",
"U. c #C62801",
"Y. c #CA2800",
"T. c #CF2A00",
"R. c #D42A00",
"E. c #DA2B00",
"W. c #DB2C00",
"Q. c #DE2C00",
"!. c #D13B16",
"~. c #D43E18",
"^. c #E02D00",
"/. c #E12D00",
"(. c #E22D00",
"). c #E32D00",
"_. c #EA2F00",
"`. c #EF2F00",
"'. c #EF3000",
"]. c #F13000",
"[. c #F03203",
"{. c #F53100",
"}. c #F63100",
"|. c #F83200",
" X c #FE3200",
".X c #FE3300",
"XX c #FF3300",
"oX c #FF3301",
"OX c #FF3401",
"+X c #FF3B09",
"@X c #FF3F0F",
"#X c #884B00",
"$X c #AB4927",
"%X c #866B35",
"&X c #8E7138",
"*X c #91743A",
"=X c #987438",
"-X c #F0461B",
";X c #FF5024",
":X c #FF5A31",
">X c #FF5B32",
",X c #FF5C33",
"<X c #838200",
"1X c #8D8500",
"2X c #8B8B00",
"3X c #958605",
"4X c #A58300",
"5X c #BE9500",
"6X c #A4A400",
"7X c #B1AF00",
"8X c #B1B000",
"9X c #B8B800",
"0X c #C4C400",
"qX c #D5D500",
"wX c #D8D800",
"eX c #FFCC00",
"rX c #EFEF00",
"tX c #F6F600",
"yX c #F8F800",
"uX c #FDFD00",
"iX c #FEFE00",
"pX c yellow",
"aX c #B49148",
"sX c #D4A954",
"dX c #D6AA55",
"fX c #E5B75C",
"gX c #F8C663",
"hX c #FFCB66",
"jX c #472389",
"kX c #47248D",
"lX c #48238A",
"zX c #4B248D",
"xX c #4C258F",
"cX c #4A2590",
"vX c #4E2591",
"bX c #4D2799",
"nX c #4E2798",
"mX c #4F2798",
"MX c #4E279C",
"NX c #5129A1",
"BX c #562AA9",
"VX c #572BAC",
"CX c #592BAF",
"ZX c #5A2DB3",
"AX c #5E2FBC",
"SX c #5F2FBE",
"DX c #5F30BF",
"FX c #6130C1",
"GX c #6633CC",
"HX c #8A008A",
"JX c #8C008C",
"KX c #8D008D",
"LX c #970097",
"PX c #980098",
"IX c #990099",
/* pixels */
"                                                                                ",
"                                                                                ",
"                                                                                ",
"                                                                                ",
"                                                                                ",
"                                                                                ",
"                                                                                ",
"                                                                                ",
"                                                                                ",
"                                    3 V ;                                       ",
"                                a y.6.[ 9.HXr.9 7 s.l                           ",
"                              @.u.IXIXHXKXIXIX8.5XM.{.J                         ",
"                            T %.t...h.C.A.D ..) eX#XL.d                         ",
"                      w %Xs R q D _..XOX.X.XT.F 4X@.6 $ .                       ",
"                    S x.O.NXp.m.+X.X.X.X.X.XOX(.F 5.lXr .                       ",
"                  j .X.X} SXo.-X;X.X.X.X.X.X.X{.U._ GXMX%                       ",
"                  S .X.X{ ZXF.:X@X.X{.J.R..X.X.XW.f.ZXSXg -                     ",
"                  n .X.XX.nX!.,XOX.Xz.q.| E..X.X(.A.zXmXT.j.                    ",
"                    '..X7.zX~.,X.X.Xl.vX0.U..X.X).G.zXw..X[.                    ",
"                    C.(.lXVXK.,X[.G.x.Z Y n.`..XW.k.BX` .XOXj                   ",
"                    - c FXDXZ $X3XqXiXiXiXtX1XN.U.j bX{ .X.XV                   ",
"                      y cX2.x &.iXiXiXiXiXiXiX8Xz W <.] .X.XV                   ",
"                        < v.^ 4 7XyXiXiXiXtXqX<X: / Q f D.b.                    ",
"                        @ 5 b 1.! #.6X0X9X2X$.C 4.v ^ =XdX&X                    ",
"                        . . 8 3.>.' J K L s.U e.kX;.*.fXgX=.                    ",
"                        . . E c.0 = t i p u ,.:.* # dXhXaX                      ",
"                        . & g.s.m @                 *X-.                        ",
"                        @ B..X.X'.1                                             ",
"                          s..X.XR.2                                             ",
"                          > J.'.m                                               ",
"                                                                                ",
"                                                                                ",
"                                                                                ",
"                                                                                ",
"                                                                                ",
"                                                                                ",
"                                                                                ",
"                                                                                ",
"                                                                                ",
"                                                                                "
};
