/* XPM */
static char *result[] = {
/* columns rows colors chars-per-pixel */
"40 40 184 2 ",
"   c #030101",
".  c #0C0606",
"X  c #120601",
"o  c #2C0B02",
"O  c #300D02",
"+  c #28110A",
"@  c #391500",
"#  c #321508",
"$  c #290A1C",
"%  c #3C1612",
"&  c #3C101E",
"*  c #2D2200",
"=  c #282613",
"-  c #353218",
";  c #1A0D33",
":  c #1E1233",
">  c #220D26",
",  c #350A25",
"<  c #21142E",
"1  c #2D1128",
"2  c #230E30",
"3  c #371332",
"4  c #362725",
"5  c #342C35",
"6  c #450E04",
"7  c #4C1900",
"8  c #4B1805",
"9  c #591605",
"0  c #541A03",
"q  c #5F0D1F",
"w  c #441115",
"e  c #4B1317",
"r  c #5A1515",
"t  c #611503",
"y  c #681607",
"u  c #6D1704",
"i  c #631A01",
"p  c #771903",
"a  c #492309",
"s  c #532A00",
"d  c #59250C",
"f  c #4A3700",
"g  c #452B17",
"h  c #42361B",
"j  c #513719",
"k  c #533A19",
"l  c #6A2004",
"z  c #632509",
"x  c #722400",
"c  c #792900",
"v  c #762B0C",
"b  c #673816",
"n  c #551429",
"m  c #420335",
"M  c #490339",
"N  c #5C063C",
"B  c #451638",
"V  c #531737",
"C  c #641228",
"Z  c #4C223B",
"A  c #585001",
"S  c #534B14",
"D  c #6B5506",
"F  c #755600",
"G  c #6E401A",
"H  c #7B6102",
"J  c #7A7900",
"K  c #4B4321",
"L  c #4D4C26",
"P  c #594C24",
"I  c #525027",
"U  c #5B552C",
"Y  c #5A4438",
"T  c #614820",
"R  c #64622D",
"E  c #686732",
"W  c #777537",
"Q  c #78773A",
"!  c #2C184A",
"~  c #33184D",
"^  c #2C1655",
"/  c #351857",
"(  c #3A274C",
")  c #341962",
"_  c #391B66",
"`  c #3C1C6D",
"'  c #3D1E76",
"]  c #490147",
"[  c #57054A",
"{  c #510D52",
"}  c #670163",
"|  c #780177",
" . c #43207B",
".. c #7D7B43",
"X. c #8B1D05",
"o. c #931E01",
"O. c #981E05",
"+. c #811C12",
"@. c #8A2500",
"#. c #862A01",
"$. c #953100",
"%. c #993300",
"&. c #A42100",
"*. c #A92201",
"=. c #B52401",
"-. c #BC2601",
";. c #B93210",
":. c #C32701",
">. c #C52800",
",. c #CC2900",
"<. c #C82F09",
"1. c #D42B00",
"2. c #DC2C00",
"3. c #E32D00",
"4. c #EC2F00",
"5. c #EE3000",
"6. c #F53100",
"7. c #FE3300",
"8. c #FF3907",
"9. c #875D00",
"0. c #8F7404",
"q. c #84681A",
"w. c #AB4525",
"e. c #807F3D",
"r. c #FE4415",
"t. c #FD4619",
"y. c #FD491C",
"u. c #D94620",
"i. c #FF4D20",
"p. c #FF572D",
"a. c #FF5B32",
"s. c #8F8D00",
"d. c #9B9A00",
"f. c #A58500",
"g. c #B28F00",
"h. c #B89200",
"j. c #A7A401",
"k. c #ACA601",
"l. c #B7B600",
"z. c #BAB900",
"x. c #84833F",
"c. c #C0C000",
"v. c #CACA00",
"b. c #DBDB00",
"n. c #FFCC00",
"m. c #E8E801",
"M. c #F4F400",
"N. c #FFFF00",
"B. c #858541",
"V. c #8C8741",
"C. c #8E8E45",
"Z. c #908F47",
"A. c #8F9046",
"S. c #929147",
"D. c #949449",
"F. c #99994B",
"G. c #A2A24F",
"H. c #A5A551",
"J. c #A7A851",
"K. c #AAAB53",
"L. c #AFB055",
"P. c #B2B357",
"I. c #B7B85A",
"U. c #BBBC5C",
"Y. c #BFC05E",
"T. c #C1C25E",
"R. c #C4C560",
"E. c #C7C861",
"W. c #CACB63",
"Q. c #442285",
"!. c #47238B",
"~. c #4A2593",
"^. c #4F279B",
"/. c #51289D",
"(. c #5329A5",
"). c #552BAA",
"_. c #5A2DB3",
"`. c #5E2FBC",
"'. c #6130C2",
"]. c #6633CB",
"[. c #850085",
"{. c #8B008B",
"}. c #940094",
"|. c #990099",
/* pixels */
"W.W.W.W.W.W.W.W.W.W.W.W.W.W.W.W.W.W.W.W.W.W.W.W.W.W.W.W.W.W.W.W.W.W.W.W.W.W.W.W.",
"W.W.W.W.W.W.W.W.W.W.W.W.W.W.W.W.W.W.W.W.W.W.W.W.W.W.W.W.W.W.W.W.W.W.W.W.W.W.W.W.",
"W.W.W.W.W.W.W.W.W.W.W.W.W.W.W.W.W.W.W.W.W.W.W.W.W.W.W.W.W.W.W.W.W.W.W.W.W.W.W.W.",
"W.W.W.W.W.W.W.W.W.W.W.W.W.W.W.W.W.W.W.W.W.W.W.W.W.W.W.W.W.W.W.W.W.W.W.W.W.W.W.W.",
"W.W.W.W.W.W.W.W.W.W.W.W.W.W.W.W.W.W.W.W.W.W.W.W.W.W.W.W.W.W.W.W.W.W.W.W.W.W.W.W.",
"W.W.W.W.W.W.W.W.W.W.W.W.W.W.W.W.W.W.W.W.W.W.W.W.W.W.W.W.W.W.W.W.W.W.W.W.W.W.W.W.",
"W.W.W.W.W.W.W.W.W.W.W.W.W.W.W.W.U.Q E Q W.W.W.W.W.W.W.W.W.W.W.W.W.W.W.W.W.W.W.W.",
"W.W.W.W.W.W.W.W.W.W.W.W.E.R.B.Y 4 X.=.t B Z Y F.W.W.W.W.W.W.W.W.W.W.W.W.W.W.W.W.",
"W.W.W.W.W.W.W.W.W.W.W.W.K.L [ [.| N C N {.|.~.V S Q I.W.W.W.W.W.W.W.W.W.W.W.W.W.",
"W.W.W.W.W.W.W.W.W.W.W.H.S , }.|.|.}.}.}.|.|.|.| F f.R E.W.W.W.W.W.W.W.W.W.W.W.W.",
"W.W.W.W.W.W.W.W.W.W.W.R g.V |.{.} ] M M N } {.[.D n.D L.W.W.W.W.W.W.W.W.W.W.W.W.",
"W.W.W.W.W.W.W.W.W.W.R.S f.V { 9 *.4.7.7.6.&.6 m D n.0.J.W.W.W.W.W.W.W.W.W.W.W.W.",
"W.W.W.W.W.W.W.W.E.F.K 4 - O =.7.7.7.7.7.7.7.3.o.a h.H U L.T.W.W.W.W.W.W.W.W.W.W.",
"W.W.W.W.W.W.I.J...~ _._ @ ,.7.7.7.7.7.7.7.7.7.3.=.@ h Q.( F.W.W.W.W.W.W.W.W.W.W.",
"W.W.W.W.W.Z.d o.w /.]./ =.t.r.7.7.7.7.7.7.7.7.7.1.&.< ].'.! I W P.W.W.W.W.W.W.W.",
"W.W.W.W.V.i 7.7.+./._.i y.a.r.7.7.7.7.7.7.7.7.7.4.,.p ~.].! -.-.z B.W.W.W.W.W.W.",
"W.W.W.K.b 5.7.7.C ).' <.a.p.8.7.7.7.4.6.7.7.7.7.7.,.*.~ ].^ 2.7.5.l K.W.W.W.W.W.",
"W.W.W.x.o.7.7.7.n _.~ r.a.i.7.7.7.O.q q 1.7.7.7.7.2.>., ].` -.7.7.3.U Y.W.W.W.W.",
"W.W.W.R =.7.7.4.V `.B y.a.r.7.7.>.N }.{.y 6.7.7.7.3.,.w `. .*.7.7.7.d U.W.W.W.W.",
"W.W.W.K &.7.7.,.{ '.B y.a.r.7.7.:.[ |.}.y 6.7.7.7.2.,.w `.^.X.7.7.7.9 G.W.W.W.W.",
"W.W.T.P 9 7.7.O.Q.'.~ y.a.y.7.6.,.9 , $ *.6.7.7.7.2.-.& ]._.r 6.7.7.# S.U.W.W.W.",
"W.W.P.W = o.7.r (.].` ;.a.u.@.F 0.j.k.j.0.F @.2.7.,.&.3 ]._.B 2.7.*.= F.K.R.W.W.",
"W.W.K.C.K j i ^ '.].) i w.q.l.M.N.N.N.N.N.m.l.9.&.,.u > `.)./ O.:.8 L G.H.U.W.W.",
"W.W.H.H...k - / ).!.% a A m.N.N.N.N.N.N.N.N.N.b.A p 8 9 ' (.~.1 g h B.G.H.U.W.W.",
"W.W.J.H.G.C.L . $ 8 #.x * v.N.N.N.N.N.N.N.N.M.b.d.. #.$.# ' Q.< 4 R H.G.G.U.W.W.",
"W.W.P.H.G.G.G.= X c %.c + @ j.M.N.N.N.N.M.m.v.s.@ . z %.$.8 . - B.G.H.G.J.T.W.W.",
"W.W.Y.J.G.G.G.-   X 0 # ) y i f s.l.c.z.j.J f p 9 !.1 #.%.0 . R G.G.G.G.P.W.W.W.",
"W.W.W.I.H.G.G.L   o u > Q.` e &.&.i s s 9 o.*.e _ ).' + 7 X   W G.G.G.K.R.W.W.W.",
"W.W.W.E.P.G.G.E o 1.8.1.u 2 ^ ^ & 9 u p 9 e / !.~.^ & X.>.=.+ e.G.G.H.Y.W.W.W.W.",
"W.W.W.W.W.U.H.A.d 7.7.7.7.4.@ L 5 5 : ; ; ! 5 4 @ :.7.7.7.6.j F.G.K.R.W.W.W.W.W.",
"W.W.W.W.W.W.R.L.P =.7.7.7.,.k G.F.D.C.C.C.Z.S.C.a 6.7.7.7.&.R J.I.E.W.W.W.W.W.W.",
"W.W.W.W.W.W.W.E.H.G ,.6.2.9 V.G.G.G.G.G.G.G.H.G.W p 3.7.1.j K.T.W.W.W.W.W.W.W.W.",
"W.W.W.W.W.W.W.W.W.H.T v b ..J.H.G.G.G.G.G.G.G.G.H.E z v S K.W.W.W.W.W.W.W.W.W.W.",
"W.W.W.W.W.W.W.W.W.W.W.W.W.W.E.T.Y.U.I.I.I.I.I.Y.T.E.W.T.W.W.W.W.W.W.W.W.W.W.W.W.",
"W.W.W.W.W.W.W.W.W.W.W.W.W.W.W.W.W.W.W.W.W.W.W.W.W.W.W.W.W.W.W.W.W.W.W.W.W.W.W.W.",
"W.W.W.W.W.W.W.W.W.W.W.W.W.W.W.W.W.W.W.W.W.W.W.W.W.W.W.W.W.W.W.W.W.W.W.W.W.W.W.W.",
"W.W.W.W.W.W.W.W.W.W.W.W.W.W.W.W.W.W.W.W.W.W.W.W.W.W.W.W.W.W.W.W.W.W.W.W.W.W.W.W.",
"W.W.W.W.W.W.W.W.W.W.W.W.W.W.W.W.W.W.W.W.W.W.W.W.W.W.W.W.W.W.W.W.W.W.W.W.W.W.W.W.",
"W.W.W.W.W.W.W.W.W.W.W.W.W.W.W.W.W.W.W.W.W.W.W.W.W.W.W.W.W.W.W.W.W.W.W.W.W.W.W.W.",
"W.W.W.W.W.W.W.W.W.W.W.W.W.W.W.W.W.W.W.W.W.W.W.W.W.W.W.W.W.W.W.W.W.W.W.W.W.W.W.W."
};
