/* XPM */
static char *result[] = {
/* columns rows colors chars-per-pixel */
"40 40 184 2 ",
"   c #030101",
".  c #0C0706",
"X  c #120601",
"o  c #270902",
"O  c #300D02",
"+  c #28110A",
"@  c #391500",
"#  c #321508",
"$  c #290A1C",
"%  c #3B121A",
"&  c #2D2200",
"*  c #282613",
"=  c #322513",
"-  c #353119",
";  c #1F0B21",
":  c #1A0D33",
">  c #230E28",
",  c #21142E",
"<  c #2C1128",
"1  c #381126",
"2  c #220F30",
"3  c #26183C",
"4  c #392525",
"5  c #322C30",
"6  c #450E04",
"7  c #4C1900",
"8  c #4B1805",
"9  c #581306",
"0  c #551B02",
"q  c #5C1F04",
"w  c #5F0D1F",
"e  c #441116",
"r  c #481219",
"t  c #5A1515",
"y  c #611503",
"u  c #6E1603",
"i  c #631A02",
"p  c #6A1C02",
"a  c #64140B",
"s  c #6D1608",
"d  c #771A03",
"f  c #482209",
"g  c #532A00",
"h  c #5A250C",
"j  c #4A3700",
"k  c #442C17",
"l  c #43351A",
"z  c #513719",
"x  c #533919",
"c  c #652409",
"v  c #722300",
"b  c #772906",
"n  c #683815",
"m  c #551429",
"M  c #460337",
"N  c #5C063C",
"B  c #451638",
"V  c #541737",
"C  c #641229",
"Z  c #452E37",
"A  c #50233E",
"S  c #595002",
"D  c #534B15",
"F  c #6B5506",
"G  c #755600",
"H  c #6E4019",
"J  c #7A6E01",
"K  c #4B4421",
"L  c #4D4C26",
"P  c #554C25",
"I  c #525027",
"U  c #5B552C",
"Y  c #5A4438",
"T  c #675D2D",
"R  c #63622C",
"E  c #686732",
"W  c #767537",
"Q  c #78773A",
"!  c #2C194B",
"~  c #34164E",
"^  c #2C1555",
"/  c #341751",
"(  c #35195E",
")  c #3A274C",
"_  c #361A64",
"`  c #3C1C6D",
"'  c #3D1E75",
"]  c #3D1E78",
"[  c #490047",
"{  c #58054B",
"}  c #510E52",
"|  c #670163",
" . c #780077",
".. c #43207B",
"X. c #7D7B43",
"o. c #8B1D06",
"O. c #931E01",
"+. c #981E05",
"@. c #8A2500",
"#. c #852A01",
"$. c #972001",
"%. c #943200",
"&. c #993300",
"*. c #A32100",
"=. c #A92201",
"-. c #B52401",
";. c #BC2600",
":. c #B93210",
">. c #C22701",
",. c #C72800",
"<. c #CC2900",
"1. c #D42B00",
"2. c #DC2C00",
"3. c #C7300A",
"4. c #E32D00",
"5. c #EB2F00",
"6. c #EE3000",
"7. c #F53100",
"8. c #FE3300",
"9. c #FF3907",
"0. c #865D00",
"q. c #8A6E0F",
"w. c #8E7C00",
"e. c #AB4524",
"r. c #D8461F",
"t. c #FE4415",
"y. c #FD4619",
"u. c #FD491C",
"i. c #FF4C20",
"p. c #FF582E",
"a. c #FF5C33",
"s. c #8E8C00",
"d. c #9A9A00",
"f. c #A58400",
"g. c #B28F00",
"h. c #B89100",
"j. c #A9A401",
"k. c #B7B500",
"l. c #BAB900",
"z. c #81813F",
"x. c #C0C000",
"c. c #CACA00",
"v. c #DBDB00",
"b. c #FFCC00",
"n. c #E8E801",
"m. c #F4F400",
"M. c #FFFF00",
"N. c #858441",
"B. c #8C8742",
"V. c #8E8D45",
"C. c #908F46",
"Z. c #8F9046",
"A. c #919147",
"S. c #949449",
"D. c #98974B",
"F. c #9A9A4C",
"G. c #A2A24F",
"H. c #A5A550",
"J. c #A7A852",
"K. c #AAAB53",
"L. c #AFB055",
"P. c #B2B357",
"I. c #B6B659",
"U. c #BBBC5B",
"Y. c #BFC05E",
"T. c #C1C25E",
"R. c #C4C560",
"E. c #C7C861",
"W. c #CACB63",
"Q. c #442285",
"!. c #46238B",
"~. c #4A2593",
"^. c #51289C",
"/. c #5329A5",
"(. c #552BAA",
"). c #5A2DB3",
"_. c #5E2FBC",
"`. c #6030BF",
"'. c #6131C3",
"]. c #6633CB",
"[. c #860185",
"{. c #8B008B",
"}. c #940094",
"|. c #990099",
/* pixels */
"W.W.W.W.W.W.W.W.W.W.W.W.W.W.W.W.W.W.W.W.W.W.W.W.W.W.W.W.W.W.W.W.W.W.W.W.W.W.W.W.",
"W.W.W.W.W.W.W.W.W.W.W.W.W.W.W.W.W.W.W.W.W.W.W.W.W.W.W.W.W.W.W.W.W.W.W.W.W.W.W.W.",
"W.W.W.W.W.W.W.W.W.W.W.W.W.W.W.W.W.W.W.W.W.W.Y.U.U.R.W.W.W.W.W.W.W.W.W.W.W.W.W.W.",
"W.W.W.W.W.W.W.W.W.W.W.W.W.W.W.W.W.W.W.W.U.K.G.G.G.J.P.T.W.W.W.W.W.W.W.W.W.W.W.W.",
"W.W.W.W.W.W.W.W.W.W.W.W.W.W.W.W.W.Y.I.G.S.D.G.G.G.G.H.J.T.W.W.W.W.W.W.W.W.W.W.W.",
"W.W.W.W.W.W.W.W.W.W.W.W.W.W.W.W.K.U h y # * L N.G.G.G.G.H.T.W.W.W.W.W.W.W.W.W.W.",
"W.W.W.W.W.W.W.W.W.W.W.W.W.W.W.B.c 4.8.8.8.-.8 l R H.G.G.G.J.W.W.W.W.W.W.W.W.W.W.",
"W.W.W.W.W.W.W.W.W.W.W.W.W.W.I.a 5.8.8.8.8.8.;.k - N.G.G.G.G.I.W.W.W.W.W.W.W.W.W.",
"W.W.W.W.W.W.W.W.W.W.W.W.W.W.Q ;.8.8.8.8.7.2.+.< , - R W z.G.J.R.W.W.W.W.W.W.W.W.",
"W.W.W.W.W.W.W.W.W.W.W.W.W.W.L ;.1.>.=.o.t B ( ~.Q.X X   X x T K.W.W.W.W.W.W.W.W.",
"W.W.W.W.W.W.W.W.W.W.W.W.W.F.! ! ^ ' ..~.).).(./.] 0 0 X -.7.*.z K.W.W.W.W.W.W.W.",
"W.W.W.W.W.W.W.W.W.W.W.W.I.5 `.].].'.`._.].].`.' # %.&.8 >.8.8.1.D W.W.W.W.W.W.W.",
"W.W.W.W.W.W.W.W.W.W.K.H.U !.'.^./ % e e % 3 < q %.&.@.+ o.8.8.8.b R.W.W.W.W.W.W.",
"W.W.W.W.W.W.W.W.I.R F w.G l 2 s =.,.<.<.>.*.u 7 #.p > ] 1 8.8.4.h E.W.W.W.W.W.W.",
"W.W.W.W.W.W.W.W.W f.b.b.h.@ =.<.<.2.2.4.2.<.<.d . . !./.^ ,.7.d E E.W.W.W.W.W.W.",
"W.W.W.W.W.W.W.E.D G F F f -.1.6.8.8.8.8.8.8.*.S d.# 9 ` ~.@ f W J.T.W.W.W.W.W.W.",
"W.W.W.W.W.W.W.F.V  .[.M +.4.9.8.8.8.8.8.8.2.0.v.v.s.v t Q.5 V.F.H.U.W.W.W.W.W.W.",
"W.W.W.W.W.W.W.Y  .|.{.6 4.7.8.8.8.8.8.8.8.@.k.M.m.c.j *./ 5 A.H.H.U.W.W.W.W.W.W.",
"W.W.W.W.W.W.W.A {.|.| +.8.8.8.8.8.8.7.7.7.G n.M.M.n.J +.6 ! A.H.G.I.W.W.W.W.W.W.",
"W.W.W.W.W.W.W.B {.|.[ 7.8.8.8.8.8.1.s a *.w.M.M.M.m.j.h 9 ! V.G.G.I.W.W.W.W.W.W.",
"W.W.W.W.W.W.Q y { }.M 8.8.8.8.8.7.w {.}.$ j.M.M.M.M.l.g d : C.G.G.I.W.W.W.W.W.W.",
"W.W.W.W.W.W.E -.C }.M 8.8.8.8.8.5.w |.|.1 j.M.M.M.M.x.g u : C.G.H.I.W.W.W.W.W.W.",
"W.W.W.W.W.W.Q @.N |.[ 5.8.8.8.8.8.+.{ { 9 g.M.M.M.M.k.v 9 3 S.G.G.I.W.W.W.W.W.W.",
"W.W.W.W.W.W.U.4  .|.| =.8.8.8.8.8.7.<.>.<.w.M.M.M.M.s.*.r 5 D.G.H.U.W.W.W.W.W.W.",
"W.W.W.W.W.W.W.Y ^.|.}.a 8.8.9.8.8.8.8.8.7.F m.M.M.m.j *.! L G.G.H.Y.W.W.W.W.W.W.",
"W.W.W.W.W.W.W.N.} }.|.N -.8.9.u.9.8.8.8.8.@.k.M.M.d.p r ^ 6 x N.J.E.W.W.W.W.W.W.",
"W.W.W.W.W.W.W.E.I % V B O <.9.a.p.i.t.t.y.r.q.n.c.@ a ` 2 6.<.h N.W.W.W.W.W.W.W.",
"W.W.W.W.W.W.W.W.K.D h.f.j O -.i.a.a.a.a.a.a.e.S & o _ Q.s 8.8.1.n W.W.W.W.W.W.W.",
"W.W.W.W.W.W.W.W.W.J.R D 4 ) ( y 3.t.y.u.y.:.i 7 v b # ; 1.8.8.7.b W.W.W.W.W.W.W.",
"W.W.W.W.W.W.W.W.W.W.W.R.Z ).].).' ~ B B ~ ' ( % %.&.q u 8.8.9.<.P W.W.W.W.W.W.W.",
"W.W.W.W.W.W.W.W.W.W.W.W.G.! /.^.(.)._.`.'.].].~.8 v X o 1.8.-.H J.W.W.W.W.W.W.W.",
"W.W.W.W.W.W.W.W.W.W.W.W.W.X.r b C m V } Q./.`.(.; X     O h P J.W.W.W.W.W.W.W.W.",
"W.W.W.W.W.W.W.W.W.W.W.W.W.K.O.8.8.8.5.<.+.t / _ . * - L E Z.L.R.W.W.W.W.W.W.W.W.",
"W.W.W.W.W.W.W.W.W.W.W.W.W.U.h 7.8.8.8.8.8.8.p = L G.G.G.G.G.T.W.W.W.W.W.W.W.W.W.",
"W.W.W.W.W.W.W.W.W.W.W.W.W.W.C.p 7.8.8.8.7.O.z K Z.G.G.G.G.Y.W.W.W.W.W.W.W.W.W.W.",
"W.W.W.W.W.W.W.W.W.W.W.W.W.W.W.B.n $.-.*.9 = K Q G.G.G.H.I.W.W.W.W.W.W.W.W.W.W.W.",
"W.W.W.W.W.W.W.W.W.W.W.W.W.W.W.W.K.N.T K I E V.H.G.G.J.I.W.W.W.W.W.W.W.W.W.W.W.W.",
"W.W.W.W.W.W.W.W.W.W.W.W.W.W.W.W.W.W.W.W.E.I.K.H.K.P.Y.W.W.W.W.W.W.W.W.W.W.W.W.W.",
"W.W.W.W.W.W.W.W.W.W.W.W.W.W.W.W.W.W.W.W.W.W.W.W.W.W.W.W.W.W.W.W.W.W.W.W.W.W.W.W.",
"W.W.W.W.W.W.W.W.W.W.W.W.W.W.W.W.W.W.W.W.W.W.W.W.W.W.W.W.W.W.W.W.W.W.W.W.W.W.W.W."
};
