/* XPM */
static char *result[] = {
/* columns rows colors chars-per-pixel */
"40 40 176 2 ",
"   c #222222",
".  c #2B2828",
"X  c #352E2E",
"o  c #3E3534",
"O  c #413735",
"+  c #463B3D",
"@  c #453B3E",
"#  c #443B3F",
"$  c #483B3A",
"%  c #4C3F3B",
"&  c #483C3E",
"*  c #3F3A48",
"=  c #3E3A49",
"-  c #3E3A4A",
";  c #3B3A4D",
":  c #3B3A4E",
">  c #3B3A4F",
",  c #3D3B4F",
"<  c #3C3C4F",
"1  c #3E3E4F",
"2  c #3A3A50",
"3  c #3D3D54",
"4  c #433A42",
"5  c #433B43",
"6  c #473E43",
"7  c #413A45",
"8  c #403A46",
"9  c #403B46",
"0  c #403A47",
"q  c #453C44",
"w  c #473F45",
"e  c #483C41",
"r  c #403A48",
"t  c #473F48",
"y  c #413F53",
"u  c #3F404F",
"i  c #47404C",
"p  c #46414E",
"a  c #47414E",
"s  c #45454C",
"d  c #4B424F",
"f  c #4B434F",
"g  c #47484B",
"h  c #4B4D49",
"j  c #544341",
"k  c #564541",
"l  c #5F4B47",
"z  c #53474F",
"x  c #5B4B4F",
"c  c #4F5247",
"v  c #525447",
"b  c #52554A",
"n  c #53574B",
"m  c #56504E",
"M  c #404250",
"N  c #474150",
"B  c #474253",
"V  c #404155",
"C  c #464355",
"Z  c #464557",
"A  c #494455",
"S  c #4B4755",
"D  c #484556",
"F  c #464559",
"G  c #45455A",
"H  c #45455C",
"J  c #46465E",
"K  c #484758",
"L  c #4B495B",
"P  c #4D4C5B",
"I  c #48485C",
"U  c #49495C",
"Y  c #4D4F5E",
"T  c #514955",
"R  c #4E505F",
"E  c #5C5755",
"W  c #5A505A",
"Q  c #5F535B",
"!  c #5F575C",
"~  c #634F4E",
"^  c #6C534E",
"/  c #6B544E",
"(  c #7D5C4E",
")  c #605052",
"_  c #625354",
"`  c #695653",
"'  c #675A5A",
"]  c #67585E",
"[  c #775C55",
"{  c #755F57",
"}  c #735E5D",
"|  c #5D6043",
" . c #5E6255",
".. c #606547",
"X. c #62665A",
"o. c #7D6357",
"O. c #767C5A",
"+. c #4A4D65",
"@. c #535764",
"#. c #515567",
"$. c #595462",
"%. c #545866",
"&. c #5F5962",
"*. c #595B65",
"=. c #5E5D66",
"-. c #545968",
";. c #545B6C",
":. c #555C6E",
">. c #5E5F68",
",. c #525B72",
"<. c #555E72",
"1. c #555F73",
"2. c #545E75",
"3. c #615763",
"4. c #665A60",
"5. c #605A66",
"6. c #605D6B",
"7. c #556076",
"8. c #566279",
"9. c #57647B",
"0. c #56657C",
"q. c #57657D",
"w. c #6B6066",
"e. c #64636B",
"r. c #6A646C",
"t. c #7D6763",
"y. c #7B6B61",
"u. c #6E6870",
"i. c #757174",
"p. c #7E797D",
"a. c #836453",
"s. c #84675C",
"d. c #8D705E",
"f. c #8E725F",
"g. c #857163",
"h. c #8C7167",
"j. c #82726C",
"k. c #82726D",
"l. c #85786F",
"z. c #887A6F",
"x. c #927763",
"c. c #93766B",
"v. c #967D68",
"b. c #9B7B6D",
"n. c #837979",
"m. c #817A7D",
"M. c #877D7E",
"N. c #A28070",
"B. c #AA8470",
"V. c #A98572",
"C. c #B18A74",
"Z. c #A9917F",
"A. c #5A6B83",
"S. c #5B6C85",
"D. c #5D7089",
"F. c #5C708A",
"G. c #7B7880",
"H. c #617691",
"J. c #607791",
"K. c #627A95",
"L. c #647E99",
"P. c #857F82",
"I. c #928581",
"U. c #958985",
"Y. c #988D86",
"T. c #918B8A",
"R. c #958C8B",
"E. c #998F8E",
"W. c #AC9980",
"Q. c #A1948B",
"!. c #AF9F92",
"~. c #B4A287",
"^. c #B7A386",
"/. c #BEAA8B",
"(. c #BFB5AB",
"). c #C0B8AD",
/* pixels */
"              X $ $                     $ $ $ $ $ $ $ X     $ $ X               ",
"              X $ $                     $ $ $ $ $ $ $ X     $ $ X               ",
"    . X X X X o $ $ X X X X X X X X X X $ $ $ $ $ $ $ o X X $ $ o X X X X O % % ",
"    X $ $ $ $ $ $ $ $ $ $ $ $ N J J J J J J J J & $ $ $ $ $ $ $ $ $ $ $ $ l [ [ ",
"    X $ $ $ $ $ $ $ $ $ $ $ B 0.J.J.J.J.J.J.2.2.I e $ $ $ $ $ $ $ $ $ $ $ l [ [ ",
"$ $ $ $ $ $ $ $ $ $ $ $ $ a q.K.L.L.L.L.L.L.J.8.,.U e $ $ $ $ $ $ $ $ $ $ l [ [ ",
"$ $ $ $ $ $ $ $ $ $ $ $ $ C F.L.L.L.L.L.L.L.L.8.8.+.6 $ $ $ $ $ $ $ $ $ $ l [ [ ",
"$ $ $ $ $ $ $ $ $ $ $ $ p P 9.H.L.L.L.L.L.L.S.8.8.#.D 6 $ $ $ $ $ $ $ $ $ l [ [ ",
"$ $ $ $ $ $ $ $ $ $ $ $ y R 1.A.D.D.D.D.D.D.8.8.8.-.G q $ $ $ $ $ $ $ $ $ l [ [ ",
"$ $ $ $ $ $ $ $ $ $ $ $ ; Y 1.8.8.8.8.8.8.8.8.8.8.-.V 4 $ $ $ $ $ $ $ $ $ l [ [ ",
"    X $ $ $ $ $ $ $ $ $ ; Y ;.7.8.8.8.8.8.8.8.8.<.%.V 4 $ $ $ $ $ $ $ $ $ l [ [ ",
"    X $ $ $ $ $ $ $ $ $ ; =.*.:.1.1.1.1.1.1.1.1.@.e.Z 4 $ $ $ $ $ $ $ $ $ l [ [ ",
"X X o $ $ $ $ $ $ $ $ $ , I.i.>.>.>.>.>.>.>.>.>.>.Y.$.5 $ $ $ $ $ $ $ $ $ l [ [ ",
"$ $ $ $ $ $ $ $ $ $ $ $ C M.!.!.!.!.!.!.!.!.!.!.!.Q.5.w $ $ $ $ $ $ $ $ $ l [ [ ",
"$ $ $ $ $ $ $ $ $ $ $ $ $ C U.!.!.!.!.!.!.!.!.!.!.6.6 $ $ $ $ $ $ $ $ $ $ l [ [ ",
"    X $ $ $ $ $ $ $ $ $ $ $ - n.!.!.!.!.!.!.!.!.K # $ $ $ $ $ $ $ $ $ $ $ $ $ $ ",
"    X $ $ $ $ $ $ $ $ $ $ = h.4.K K K K K K K K c.T @ $ $ $ $ $ $ $ $ $ $ $ $ $ ",
"    X $ $ $ $ $ $ $ $ $ 0 t.V.s.z f ^ ^ ^ ^ 2 ^ B.b.W w $ $ $ $ $ $ $ $ $ j l l ",
"    X $ $ $ $ $ $ $ $ $ ; c.C.} x o.v.v.v.v.^ d N.C.3.t $ $ $ $ $ $ $ $ $ l [ [ ",
"    X $ $ $ $ $ $ $ $ 0 T.w.] A ) { l./.~.! ( 2 Q ] E.r.w $ $ $ $ $ $ $ $ l [ [ ",
"    X $ $ $ $ $ $ $ $ 2 ).R.L 2 ' g.z.^.W._ ( 2 2 u.(.G.i $ $ $ $ $ $ $ $ $ $ $ ",
"    X $ $ $ $ $ $ $ $ 7 p.m.L s E y.x.f.d.a.x h < u.P.&.6 $ $ $ $ $ $ $ $ $ $ $ ",
"X X o $ $ $ $ $ $ $ $ $ 8 * > c v m ` ~ ~ ~ g | 1 = * # $ $ $ $ $ $ $ $ $ j l l ",
"$ $ $ $ $ $ $ $ $ $ $ $ $ $ - b ..n 3 3 3 3 ....u # $ $ $ $ $ $ $ $ $ $ $ l [ [ ",
"$ $ $ $ $ $ $ $ $ $ $ $ $ $ -  .O.X.G F F H O.O.M # $ $ $ $ $ $ $ $ $ $ $ l [ [ ",
"$ $ $ $ $ $ $ $ $ $ $ $ $ $ * k.Z.j.9 $ + : Z.Z.S # $ $ $ $ $ $ $ $ $ $ $ l [ [ ",
"$ $ $ $ $ $ $ $ $ $ $ $ $ $ $ * 2 r $ $ $ $ 2 2 + $ $ $ $ $ $ $ $ $ $ $ $ l [ [ ",
"X X o $ $ $ $ $ $ $ $ $ $ $ $ $ $ $ $ $ $ $ $ $ $ $ $ $ $ $ $ $ $ $ $ $ $ j l l ",
"    X $ $ $ $ $ $ $ $ $ $ $ $ $ $ $ $ $ $ $ $ $ $ $ $ $ $ $ $ $ $ $ $ $ $ $ $ $ ",
"    X $ $ $ $ $ $ $ $ $ $ $ $ $ $ $ $ $ $ $ $ $ $ $ $ $ $ $ $ $ $ $ $ $ $ $ $ $ ",
"    X $ $ $ $ $ $ $ $ $ $ $ $ $ $ $ $ $ $ $ $ $ $ $ $ $ $ $ $ $ $ $ $ $ $ $ $ $ ",
"    X $ $ $ $ $ $ $ $ $ $ $ $ $ $ $ $ $ $ $ $ $ $ $ $ $ $ $ $ $ $ $ $ $ $ $ $ $ ",
"    X $ $ $ $ $ $ $ $ $ $ $ $ $ $ $ $ $ $ $ $ $ $ $ $ $ $ $ $ $ $ $ $ $ $ j l l ",
"    X $ $ $ $ $ $ $ $ $ $ $ $ $ $ $ $ $ $ $ $ $ $ $ $ $ $ $ $ $ $ $ $ $ $ l [ [ ",
"    X $ $ $ $ $ $ $ $ $ $ $ $ $ $ $ $ $ $ $ $ $ $ $ $ $ $ $ $ $ $ $ $ $ $ l [ [ ",
"    X $ $ $ $ $ $ $ $ $ $ $ $ $ $ $ $ $ $ $ $ $ $ $ $ $ $ $ $ $ $ $ $ $ $ l [ [ ",
"    X $ $ $ $ $ $ $ $ $ $ $ $ $ $ $ $ $ $ $ $ $ $ $ $ $ $ $ $ $ $ $ $ $ $ l [ [ ",
"% % k l l l l j $ $ $ $ j l l $ $ j l l l l l l l l l j $ $ l l l l l l l / [ [ ",
"[ [ [ [ [ [ [ l $ $ $ $ l [ [ $ $ l [ [ [ [ [ [ [ [ [ l $ $ [ [ [ [ [ [ [ [ [ [ ",
"[ [ [ [ [ [ [ l $ $ $ $ l [ [ $ $ l [ [ [ [ [ [ [ [ [ l $ $ [ [ [ [ [ [ [ [ [ [ "
};
