/* XPM */
static char *result[] = {
/* columns rows colors chars-per-pixel */
"40 40 5 1 ",
"  c #222222",
". c #232222",
"X c #AA8D7A",
"o c #D2BEA8",
"O c #D3BFA9",
/* pixels */
"                                XXXXXX  ",
"                                XXXXXX  ",
"                                OOOOOO  ",
"                                OOOOOO  ",
"                                        ",
"                                        ",
"                                XXXXXX  ",
"                                XXXXXX  ",
"                                XXXXXX  ",
"                                XXXXXX  ",
"                                XXXXXX  ",
"                                XXXXXX  ",
"                                XXXXXX  ",
"                                XXXXXX  ",
"                                XXXXXX  ",
"                                XXXXXX  ",
"                                OOOOOO  ",
"                                OOOOOO  ",
"                                        ",
"                                        ",
"                                XXXXXX  ",
"                                XXXXXX  ",
"                                XXXXXX  ",
"                                XXXXXX  ",
"                                XXXXXX  ",
"                                XXXXXX  ",
"                                XXXXXX  ",
"                                XXXXXX  ",
"                                XXXXXX  ",
"                                XXXXXX  ",
"                                XXXXXX  ",
"                                XXXXXX  ",
"                                XXXXXX  ",
"                                XXXXXX  ",
"                                OOOOOO  ",
"                                oooooo  ",
"                                        ",
"                                ......  ",
"                                XXXXXX  ",
"                                XXXXXX  "
};
