/* XPM */
static char *_aa51a9836764809bafd71950dda0facQ1PFf73AF6QAXF32[] = {
/* columns rows colors chars-per-pixel */
"40 40 38 1 ",
"  c None",
". c black",
"X c #000301",
"o c #000302",
"O c #000402",
"+ c #000603",
"@ c #050706",
"# c #010804",
"$ c #020905",
"% c #001209",
"& c #01170B",
"* c #01180B",
"= c #01190C",
"- c #011F0F",
"; c #012110",
": c #012311",
"> c #012513",
", c #012814",
"< c #012A15",
"1 c #012B16",
"2 c #012E17",
"3 c #023219",
"4 c #023319",
"5 c #02341A",
"6 c #02361B",
"7 c #02391D",
"8 c #023B1D",
"9 c #023D1E",
"0 c #023D1F",
"q c #023E1F",
"w c #1E2D26",
"e c #24382E",
"r c #294738",
"t c #294A39",
"y c #29523D",
"u c #466957",
"i c #476A58",
"p c #517965",
/* pixels */
"     ...............................    ",
"   @eryyyyyyyyyyyyyyyyyyyyyyyyyyyytw.   ",
"  $ippppppppppppppppppppppppppppppppu$  ",
" .6qqqqqqqqqqqqqqqqqqqqqqqqqqqqqqqqqq6O ",
".&qqqqqqqqqqqqqqqqqqqqqqqqqqqqqqqqqqqq;.",
".3qqqqqqqqqqqqqqqqqqqqqqqqqqqqqqqqqqqq1.",
".qqqqqqqqqqqqqqqqqqqqqqqqqqqqqqqqqqqqqq.",
".qqqqqqqqqqqqqqqqqqqqqqqqqqqqqqqqqqqqqq.",
".qqqqqqqqqqqqqqqqqqqqqqqqqqqqqqqqqqqqqq.",
".qqqqqqqqqqqqqqqqqqqqqqqqqqqqqqqqqqqqqq.",
".qqqqqqqqqqqqqqqqqqqqqqqqqqqqqqqqqqqqqq.",
".qqqqqqqqqqqqqqqqqqqqqqqqqqqqqqqqqqqqqq.",
".qqqqqqqqqqqqqqqqqqqqqqqqqqqqqqqqqqqqqq.",
".qqqqqqqqqqqqqqqqqqqqqqqqqqqqqqqqqqqqqq.",
".qqqqqqqqqqqqqqqqqqqqqqqqqqqqqqqqqqqqqq.",
".qqqqqqqqqqqqqqqqqqqqqqqqqqqqqqqqqqqqqq.",
".qqqqqqqqqqqqqqqqqqqqqqqqqqqqqqqqqqqqqq.",
".qqqqqqqqqqqqqqqqqqqqqqqqqqqqqqqqqqqqqq.",
".qqqqqqqqqqqqqqqqqqqqqqqqqqqqqqqqqqqqqq.",
".qqqqqqqqqqqqqqqqqqqqqqqqqqqqqqqqqqqqqq.",
".qqqqqqqqqqqqqqqqqqqqqqqqqqqqqqqqqqqqqq.",
".qqqqqqqqqqqqqqqqqqqqqqqqqqqqqqqqqqqqqq.",
".qqqqqqqqqqqqqqqqqqqqqqqqqqqqqqqqqqqqqq.",
".qqqqqqqqqqqqqqqqqqqqqqqqqqqqqqqqqqqqqq.",
".qqqqqqqqqqqqqqqqqqqqqqqqqqqqqqqqqqqqqq.",
".qqqqqqqqqqqqqqqqqqqqqqqqqqqqqqqqqqqqqq.",
".qqqqqqqqqqqqqqqqqqqqqqqqqqqqqqqqqqqqqq.",
".qqqqqqqqqqqqqqqqqqqqqqqqqqqqqqqqqqqqqq.",
".qqqqqqqqqqqqqqqqqqqqqqqqqqqqqqqqqqqqqq.",
".qqqqqqqqqqqqqqqqqqqqqqqqqqqqqqqqqqqqqq.",
".qqqqqqqqqqqqqqqqqqqqqqqqqqqqqqqqqqqqqq.",
".qqqqqqqqqqqqqqqqqqqqqqqqqqqqqqqqqqqqqq.",
".qqqqqqqqqqqqqqqqqqqqqqqqqqqqqqqqqqqqqq.",
".7qqqqqqqqqqqqqqqqqqqqqqqqqqqqqqqqqqqq7.",
".>3336633636633636633636633636636336331.",
".=333333333333333333333333333333333333%.",
" O133333333333333333333333333333333331. ",
"  +1333333333333333333333333333333331O  ",
"   .%:111,11111111111,111111111111;*O   ",
"    ................................    "
};
