/* XPM */
static char *result[] = {
/* columns rows colors chars-per-pixel */
"40 40 5 1 ",
"  c #222222",
". c #232323",
"X c #A98D7A",
"o c #AA8D7A",
"O c #D3BFA9",
/* pixels */
"                                oooooo  ",
"                                oooooo  ",
"                                oooooo  ",
"                                oooooo  ",
"                                oooooo  ",
"                                oooooo  ",
"                                oooooo  ",
"                                oooooo  ",
"                                oooooo  ",
"                                oooooo  ",
"                                oooooo  ",
"                                oooooo  ",
"                                        ",
"                                        ",
"                                OOOOOO  ",
"                                OOOOOO  ",
"                                oooooo  ",
"                                oooooo  ",
"                                oooooo  ",
"                                oooooo  ",
"                                oooooo  ",
"                                oooooo  ",
"                                oooooo  ",
"                                oooooo  ",
"                                oooooo  ",
"                                ooooXX  ",
"                                        ",
"                                  ....  ",
"                                OOOOOO  ",
"                                OOOOOO  ",
"                                oooooo  ",
"                                oooooo  ",
"                                oooooo  ",
"                                oooooo  ",
"                                oooooo  ",
"                                oooooo  ",
"                                oooooo  ",
"                                XXXXXX  ",
"                                        ",
"                                        "
};
