/* XPM */
static char *result[] = {
/* columns rows colors chars-per-pixel */
"40 40 5 1 ",
"  c #222222",
". c #483B3A",
"X c #775C55",
"o c #AA8D7A",
"O c #D3BFA9",
/* pixels */
"                                        ",
"                                        ",
"oooo..oooooooooo  oooooo  oooooooo  ..oo",
"oooo..oooooooooo  oooooo  oooooooo  ..oo",
"oooooooooooooooo  oooooo  oooooooo  oooo",
"oooooooooooooooo  oooooo  oooooooo  oooo",
"OOOOOOOOOOOO..OO  OOOOOO  OOOOOOOO  OOOO",
"OOOOOOOOOOOO..OO  OOOOOO  OOOOOOOO  OOOO",
"XXXXXXXXXXXXXXXX  XXXXXX  XXXXXXXX  XXXX",
"XXXXXXXXXXXXXXXX  XXXXXX  XXXXXXXX  XXXX",
"................  ......  ........  ....",
"................  ......  ........  ....",
"........  ......  ....    ........  ....",
"........  ......  ....    ........  ....",
"                                        ",
"                                        ",
"  XXXX  XXXXXXXXXXXX  XXXXXXXXXX  XXXX  ",
"  XXXX  XXXXXXXXXXXX  XXXXXXXXXX  XXXX  ",
"......  ............  ................  ",
"......  ............  ................  ",
"......  ............  ..  ............  ",
"......  ............  ..  ............  ",
"                                        ",
"                                        ",
"XXXXXXXXXXXX  XXXXXXXXXXXX    XXXXXXXXXX",
"XXXXXXXXXXXX  XXXXXXXXXXXX    XXXXXXXXXX",
"............  ............  ............",
"............  ............  ............",
"....  ......  ............  ........  ..",
"....  ......  ............  ........  ..",
"                                        ",
"                                        ",
"XXXXXX  XXXXXXXXXX  XXXXXXXXXXXXXX  XXXX",
"XXXXXX  XXXXXXXXXX  XXXXXXXXXXXXXX  XXXX",
"......  ..........  ..............  ....",
"......  ..........  ..............  ....",
"......  ......  ..  ..  ..........  ....",
"......  ......  ..  ..  ..........  ....",
"                                        ",
"                                        "
};
